G75*
%MOIN*%
%OFA0B0*%
%FSLAX25Y25*%
%IPPOS*%
%LPD*%
%AMOC8*
5,1,8,0,0,1.08239X$1,22.5*
%
%ADD10C,0.00600*%
%ADD11C,0.03000*%
%ADD12R,0.02000X0.03000*%
%ADD13R,0.04000X0.03000*%
%ADD14C,0.00800*%
%ADD15C,0.01000*%
%ADD16C,0.00500*%
D10*
X0034634Y0018185D02*
X0037134Y0015685D01*
X0042134Y0015685D01*
X0044634Y0018185D01*
X0047134Y0015685D01*
X0052134Y0015685D01*
X0054634Y0018185D01*
X0054634Y0023185D01*
X0052134Y0025685D01*
X0047134Y0025685D01*
X0044634Y0023185D01*
X0044634Y0018185D01*
X0034634Y0018185D02*
X0034634Y0023185D01*
X0037134Y0025685D01*
X0042134Y0025685D01*
X0044634Y0023185D01*
X0054634Y0023185D02*
X0057134Y0025685D01*
X0062134Y0025685D01*
X0064634Y0023185D01*
X0067134Y0025685D01*
X0072134Y0025685D01*
X0074634Y0023185D01*
X0077134Y0025685D01*
X0082134Y0025685D01*
X0084634Y0023185D01*
X0084634Y0018185D01*
X0082134Y0015685D01*
X0077134Y0015685D01*
X0074634Y0018185D01*
X0072134Y0015685D01*
X0067134Y0015685D01*
X0064634Y0018185D01*
X0062134Y0015685D01*
X0057134Y0015685D01*
X0054634Y0018185D01*
X0064634Y0018185D02*
X0064634Y0023185D01*
X0074634Y0023185D02*
X0074634Y0018185D01*
X0084634Y0018185D02*
X0087134Y0015685D01*
X0092134Y0015685D01*
X0094634Y0018185D01*
X0097134Y0015685D01*
X0102134Y0015685D01*
X0104634Y0018185D01*
X0107134Y0015685D01*
X0112134Y0015685D01*
X0114634Y0018185D01*
X0114634Y0023185D01*
X0112134Y0025685D01*
X0107134Y0025685D01*
X0104634Y0023185D01*
X0104634Y0018185D01*
X0104634Y0023185D02*
X0102134Y0025685D01*
X0097134Y0025685D01*
X0094634Y0023185D01*
X0094634Y0018185D01*
X0094634Y0023185D02*
X0092134Y0025685D01*
X0087134Y0025685D01*
X0084634Y0023185D01*
X0114634Y0023185D02*
X0117134Y0025685D01*
X0122134Y0025685D01*
X0124634Y0023185D01*
X0127134Y0025685D01*
X0132134Y0025685D01*
X0134634Y0023185D01*
X0137134Y0025685D01*
X0142134Y0025685D01*
X0144634Y0023185D01*
X0144634Y0018185D01*
X0142134Y0015685D01*
X0137134Y0015685D01*
X0134634Y0018185D01*
X0132134Y0015685D01*
X0127134Y0015685D01*
X0124634Y0018185D01*
X0122134Y0015685D01*
X0117134Y0015685D01*
X0114634Y0018185D01*
X0124634Y0018185D02*
X0124634Y0023185D01*
X0134634Y0023185D02*
X0134634Y0018185D01*
X0144634Y0018185D02*
X0147134Y0015685D01*
X0152134Y0015685D01*
X0154634Y0018185D01*
X0157134Y0015685D01*
X0162134Y0015685D01*
X0164634Y0018185D01*
X0167134Y0015685D01*
X0172134Y0015685D01*
X0174634Y0018185D01*
X0174634Y0023185D01*
X0172134Y0025685D01*
X0167134Y0025685D01*
X0164634Y0023185D01*
X0164634Y0018185D01*
X0164634Y0023185D02*
X0162134Y0025685D01*
X0157134Y0025685D01*
X0154634Y0023185D01*
X0154634Y0018185D01*
X0154634Y0023185D02*
X0152134Y0025685D01*
X0147134Y0025685D01*
X0144634Y0023185D01*
X0174634Y0023185D02*
X0177134Y0025685D01*
X0182134Y0025685D01*
X0184634Y0023185D01*
X0187134Y0025685D01*
X0192134Y0025685D01*
X0194634Y0023185D01*
X0194634Y0018185D01*
X0192134Y0015685D01*
X0187134Y0015685D01*
X0184634Y0018185D01*
X0182134Y0015685D01*
X0177134Y0015685D01*
X0174634Y0018185D01*
X0184634Y0018185D02*
X0184634Y0023185D01*
X0197705Y0023894D02*
X0197705Y0018894D01*
X0200205Y0016394D01*
X0205205Y0016394D01*
X0207705Y0018894D01*
X0207705Y0023894D01*
X0205205Y0026394D01*
X0200205Y0026394D01*
X0197705Y0023894D01*
X0207705Y0023894D02*
X0210205Y0026394D01*
X0215205Y0026394D01*
X0217705Y0023894D01*
X0217705Y0018894D01*
X0215205Y0016394D01*
X0210205Y0016394D01*
X0207705Y0018894D01*
X0223984Y0014870D02*
X0223984Y0012370D01*
X0248984Y0012370D01*
X0248984Y0014870D01*
X0241984Y0023870D02*
X0241984Y0027870D01*
X0241484Y0027370D01*
X0241484Y0025870D01*
X0241484Y0024370D01*
X0241984Y0023870D01*
X0241484Y0024370D02*
X0240984Y0024870D01*
X0240484Y0025370D01*
X0240484Y0026370D01*
X0240984Y0026870D01*
X0241484Y0027370D01*
X0240984Y0026870D02*
X0240984Y0024870D01*
X0240484Y0025370D02*
X0239984Y0025870D01*
X0241484Y0025870D01*
X0247484Y0025870D01*
X0248984Y0025870D02*
X0248984Y0029070D01*
X0223984Y0029070D01*
X0223984Y0025870D01*
X0239984Y0025870D02*
X0240484Y0026370D01*
X0280362Y0051866D02*
X0290362Y0051866D01*
X0290362Y0061866D01*
X0290362Y0071866D01*
X0290362Y0081866D01*
X0290362Y0091866D01*
X0280362Y0091866D01*
X0280362Y0081866D01*
X0280362Y0071866D01*
X0280362Y0061866D01*
X0280362Y0051866D01*
X0280362Y0061866D02*
X0290362Y0061866D01*
X0290362Y0071866D02*
X0280362Y0071866D01*
X0280362Y0081866D02*
X0290362Y0081866D01*
X0322232Y0096610D02*
X0324732Y0094110D01*
X0329732Y0094110D01*
X0332232Y0096610D01*
X0332232Y0101610D01*
X0329732Y0104110D01*
X0332232Y0106610D01*
X0332232Y0111610D01*
X0329732Y0114110D01*
X0324732Y0114110D01*
X0322232Y0111610D01*
X0322232Y0106610D01*
X0324732Y0104110D01*
X0329732Y0104110D01*
X0324732Y0104110D02*
X0322232Y0101610D01*
X0322232Y0096610D01*
X0324732Y0114110D02*
X0322232Y0116610D01*
X0322232Y0121610D01*
X0324732Y0124110D01*
X0322232Y0126610D01*
X0322232Y0131610D01*
X0324732Y0134110D01*
X0322232Y0136610D01*
X0322232Y0141610D01*
X0324732Y0144110D01*
X0329732Y0144110D01*
X0332232Y0141610D01*
X0332232Y0136610D01*
X0329732Y0134110D01*
X0332232Y0131610D01*
X0332232Y0126610D01*
X0329732Y0124110D01*
X0332232Y0121610D01*
X0332232Y0116610D01*
X0329732Y0114110D01*
X0329732Y0124110D02*
X0324732Y0124110D01*
X0324732Y0134110D02*
X0329732Y0134110D01*
X0021484Y0101846D02*
X0021484Y0096846D01*
X0018984Y0094346D01*
X0021484Y0091846D01*
X0021484Y0086846D01*
X0018984Y0084346D01*
X0013984Y0084346D01*
X0011484Y0086846D01*
X0011484Y0091846D01*
X0013984Y0094346D01*
X0011484Y0096846D01*
X0011484Y0101846D01*
X0013984Y0104346D01*
X0018984Y0104346D01*
X0021484Y0101846D01*
X0018984Y0094346D02*
X0013984Y0094346D01*
X0013984Y0084346D02*
X0011484Y0081846D01*
X0011484Y0076846D01*
X0013984Y0074346D01*
X0011484Y0071846D01*
X0011484Y0066846D01*
X0013984Y0064346D01*
X0011484Y0061846D01*
X0011484Y0056846D01*
X0013984Y0054346D01*
X0018984Y0054346D01*
X0021484Y0056846D01*
X0021484Y0061846D01*
X0018984Y0064346D01*
X0013984Y0064346D01*
X0018984Y0064346D02*
X0021484Y0066846D01*
X0021484Y0071846D01*
X0018984Y0074346D01*
X0013984Y0074346D01*
X0018984Y0074346D02*
X0021484Y0076846D01*
X0021484Y0081846D01*
X0018984Y0084346D01*
X0018984Y0054346D02*
X0021484Y0051846D01*
X0021484Y0046846D01*
X0018984Y0044346D01*
X0021484Y0041846D01*
X0021484Y0036846D01*
X0018984Y0034346D01*
X0013984Y0034346D01*
X0011484Y0036846D01*
X0011484Y0041846D01*
X0013984Y0044346D01*
X0011484Y0046846D01*
X0011484Y0051846D01*
X0013984Y0054346D01*
X0013984Y0044346D02*
X0018984Y0044346D01*
X0018000Y0126000D02*
X0013000Y0126000D01*
X0010500Y0128500D01*
X0010500Y0133500D01*
X0013000Y0136000D01*
X0010500Y0138500D01*
X0010500Y0143500D01*
X0013000Y0146000D01*
X0018000Y0146000D01*
X0020500Y0143500D01*
X0020500Y0138500D01*
X0018000Y0136000D01*
X0020500Y0133500D01*
X0020500Y0128500D01*
X0018000Y0126000D01*
X0018000Y0136000D02*
X0013000Y0136000D01*
D11*
X0292862Y0086866D02*
X0315362Y0086866D01*
X0315362Y0076866D02*
X0292862Y0076866D01*
X0292862Y0066866D02*
X0315362Y0066866D01*
X0315362Y0056866D02*
X0292862Y0056866D01*
D12*
X0291362Y0056866D03*
X0291362Y0066866D03*
X0291362Y0076866D03*
X0291362Y0086866D03*
D13*
X0278362Y0086866D03*
X0278362Y0076866D03*
X0278362Y0066866D03*
X0278362Y0056866D03*
D14*
X0193453Y0073520D02*
X0191484Y0071551D01*
X0156839Y0071551D01*
X0154870Y0073520D01*
X0154870Y0108165D01*
X0156839Y0110134D01*
X0191484Y0110134D01*
X0193453Y0108165D01*
X0193453Y0073520D01*
D15*
X0188796Y0106591D02*
X0188798Y0106658D01*
X0188804Y0106724D01*
X0188814Y0106790D01*
X0188828Y0106855D01*
X0188845Y0106919D01*
X0188867Y0106982D01*
X0188892Y0107044D01*
X0188921Y0107104D01*
X0188954Y0107162D01*
X0188989Y0107218D01*
X0189029Y0107272D01*
X0189071Y0107323D01*
X0189116Y0107372D01*
X0189164Y0107418D01*
X0189215Y0107461D01*
X0189268Y0107501D01*
X0189324Y0107538D01*
X0189382Y0107571D01*
X0189441Y0107601D01*
X0189502Y0107627D01*
X0189565Y0107650D01*
X0189629Y0107668D01*
X0189694Y0107683D01*
X0189760Y0107694D01*
X0189826Y0107701D01*
X0189892Y0107704D01*
X0189959Y0107703D01*
X0190025Y0107698D01*
X0190091Y0107689D01*
X0190157Y0107676D01*
X0190221Y0107659D01*
X0190284Y0107639D01*
X0190346Y0107614D01*
X0190407Y0107586D01*
X0190466Y0107555D01*
X0190522Y0107520D01*
X0190577Y0107482D01*
X0190629Y0107440D01*
X0190678Y0107395D01*
X0190725Y0107348D01*
X0190769Y0107298D01*
X0190809Y0107245D01*
X0190847Y0107190D01*
X0190881Y0107133D01*
X0190912Y0107074D01*
X0190939Y0107013D01*
X0190962Y0106951D01*
X0190982Y0106887D01*
X0190998Y0106822D01*
X0191010Y0106757D01*
X0191018Y0106691D01*
X0191022Y0106624D01*
X0191022Y0106558D01*
X0191018Y0106491D01*
X0191010Y0106425D01*
X0190998Y0106360D01*
X0190982Y0106295D01*
X0190962Y0106231D01*
X0190939Y0106169D01*
X0190912Y0106108D01*
X0190881Y0106049D01*
X0190847Y0105992D01*
X0190809Y0105937D01*
X0190769Y0105884D01*
X0190725Y0105834D01*
X0190678Y0105787D01*
X0190629Y0105742D01*
X0190577Y0105700D01*
X0190522Y0105662D01*
X0190465Y0105627D01*
X0190407Y0105596D01*
X0190346Y0105568D01*
X0190284Y0105543D01*
X0190221Y0105523D01*
X0190157Y0105506D01*
X0190091Y0105493D01*
X0190025Y0105484D01*
X0189959Y0105479D01*
X0189892Y0105478D01*
X0189826Y0105481D01*
X0189760Y0105488D01*
X0189694Y0105499D01*
X0189629Y0105514D01*
X0189565Y0105532D01*
X0189502Y0105555D01*
X0189441Y0105581D01*
X0189382Y0105611D01*
X0189324Y0105644D01*
X0189268Y0105681D01*
X0189215Y0105721D01*
X0189164Y0105764D01*
X0189116Y0105810D01*
X0189071Y0105859D01*
X0189029Y0105910D01*
X0188989Y0105964D01*
X0188954Y0106020D01*
X0188921Y0106078D01*
X0188892Y0106138D01*
X0188867Y0106200D01*
X0188845Y0106263D01*
X0188828Y0106327D01*
X0188814Y0106392D01*
X0188804Y0106458D01*
X0188798Y0106524D01*
X0188796Y0106591D01*
D16*
X0162980Y0128677D02*
X0133846Y0128677D01*
X0133846Y0146394D01*
X0162980Y0146394D01*
X0162980Y0128677D01*
X0107665Y0102024D02*
X0107665Y0082339D01*
X0078138Y0082339D01*
X0078138Y0102024D01*
X0107665Y0102024D01*
X0098841Y0084307D02*
X0098843Y0084354D01*
X0098849Y0084400D01*
X0098858Y0084446D01*
X0098872Y0084490D01*
X0098889Y0084534D01*
X0098910Y0084575D01*
X0098934Y0084615D01*
X0098961Y0084653D01*
X0098992Y0084688D01*
X0099025Y0084721D01*
X0099061Y0084751D01*
X0099100Y0084777D01*
X0099140Y0084801D01*
X0099182Y0084820D01*
X0099226Y0084837D01*
X0099271Y0084849D01*
X0099317Y0084858D01*
X0099363Y0084863D01*
X0099410Y0084864D01*
X0099456Y0084861D01*
X0099502Y0084854D01*
X0099548Y0084843D01*
X0099592Y0084829D01*
X0099635Y0084811D01*
X0099676Y0084789D01*
X0099716Y0084764D01*
X0099753Y0084736D01*
X0099788Y0084705D01*
X0099820Y0084671D01*
X0099849Y0084634D01*
X0099874Y0084596D01*
X0099897Y0084555D01*
X0099916Y0084512D01*
X0099931Y0084468D01*
X0099943Y0084423D01*
X0099951Y0084377D01*
X0099955Y0084330D01*
X0099955Y0084284D01*
X0099951Y0084237D01*
X0099943Y0084191D01*
X0099931Y0084146D01*
X0099916Y0084102D01*
X0099897Y0084059D01*
X0099874Y0084018D01*
X0099849Y0083980D01*
X0099820Y0083943D01*
X0099788Y0083909D01*
X0099753Y0083878D01*
X0099716Y0083850D01*
X0099677Y0083825D01*
X0099635Y0083803D01*
X0099592Y0083785D01*
X0099548Y0083771D01*
X0099502Y0083760D01*
X0099456Y0083753D01*
X0099410Y0083750D01*
X0099363Y0083751D01*
X0099317Y0083756D01*
X0099271Y0083765D01*
X0099226Y0083777D01*
X0099182Y0083794D01*
X0099140Y0083813D01*
X0099100Y0083837D01*
X0099061Y0083863D01*
X0099025Y0083893D01*
X0098992Y0083926D01*
X0098961Y0083961D01*
X0098934Y0083999D01*
X0098910Y0084039D01*
X0098889Y0084080D01*
X0098872Y0084124D01*
X0098858Y0084168D01*
X0098849Y0084214D01*
X0098843Y0084260D01*
X0098841Y0084307D01*
X0094083Y0128087D02*
X0064949Y0128087D01*
X0064949Y0145803D01*
X0094083Y0145803D01*
X0094083Y0128087D01*
X0230303Y0133205D02*
X0230303Y0150921D01*
X0259437Y0150921D01*
X0259437Y0133205D01*
X0230303Y0133205D01*
M02*
