G75*
%MOIN*%
%OFA0B0*%
%FSLAX25Y25*%
%IPPOS*%
%LPD*%
%AMOC8*
5,1,8,0,0,1.08239X$1,22.5*
%
%ADD10C,0.00000*%
%ADD11C,0.06000*%
%ADD12R,0.05118X0.05906*%
%ADD13R,0.05906X0.05118*%
%ADD14C,0.05200*%
%ADD15R,0.01181X0.05906*%
%ADD16R,0.05906X0.01181*%
%ADD17R,0.06299X0.01378*%
%ADD18C,0.01000*%
%ADD19C,0.04159*%
%ADD20C,0.04002*%
%ADD21C,0.04000*%
D10*
X0004398Y0001000D02*
X0004398Y0159268D01*
X0342980Y0160449D01*
X0342980Y0001000D01*
X0004398Y0001000D01*
X0009910Y0020685D02*
X0009912Y0020843D01*
X0009918Y0021001D01*
X0009928Y0021159D01*
X0009942Y0021317D01*
X0009960Y0021474D01*
X0009981Y0021631D01*
X0010007Y0021787D01*
X0010037Y0021943D01*
X0010070Y0022098D01*
X0010108Y0022251D01*
X0010149Y0022404D01*
X0010194Y0022556D01*
X0010243Y0022707D01*
X0010296Y0022856D01*
X0010352Y0023004D01*
X0010412Y0023150D01*
X0010476Y0023295D01*
X0010544Y0023438D01*
X0010615Y0023580D01*
X0010689Y0023720D01*
X0010767Y0023857D01*
X0010849Y0023993D01*
X0010933Y0024127D01*
X0011022Y0024258D01*
X0011113Y0024387D01*
X0011208Y0024514D01*
X0011305Y0024639D01*
X0011406Y0024761D01*
X0011510Y0024880D01*
X0011617Y0024997D01*
X0011727Y0025111D01*
X0011840Y0025222D01*
X0011955Y0025331D01*
X0012073Y0025436D01*
X0012194Y0025538D01*
X0012317Y0025638D01*
X0012443Y0025734D01*
X0012571Y0025827D01*
X0012701Y0025917D01*
X0012834Y0026003D01*
X0012969Y0026087D01*
X0013105Y0026166D01*
X0013244Y0026243D01*
X0013385Y0026315D01*
X0013527Y0026385D01*
X0013671Y0026450D01*
X0013817Y0026512D01*
X0013964Y0026570D01*
X0014113Y0026625D01*
X0014263Y0026676D01*
X0014414Y0026723D01*
X0014566Y0026766D01*
X0014719Y0026805D01*
X0014874Y0026841D01*
X0015029Y0026872D01*
X0015185Y0026900D01*
X0015341Y0026924D01*
X0015498Y0026944D01*
X0015656Y0026960D01*
X0015813Y0026972D01*
X0015972Y0026980D01*
X0016130Y0026984D01*
X0016288Y0026984D01*
X0016446Y0026980D01*
X0016605Y0026972D01*
X0016762Y0026960D01*
X0016920Y0026944D01*
X0017077Y0026924D01*
X0017233Y0026900D01*
X0017389Y0026872D01*
X0017544Y0026841D01*
X0017699Y0026805D01*
X0017852Y0026766D01*
X0018004Y0026723D01*
X0018155Y0026676D01*
X0018305Y0026625D01*
X0018454Y0026570D01*
X0018601Y0026512D01*
X0018747Y0026450D01*
X0018891Y0026385D01*
X0019033Y0026315D01*
X0019174Y0026243D01*
X0019313Y0026166D01*
X0019449Y0026087D01*
X0019584Y0026003D01*
X0019717Y0025917D01*
X0019847Y0025827D01*
X0019975Y0025734D01*
X0020101Y0025638D01*
X0020224Y0025538D01*
X0020345Y0025436D01*
X0020463Y0025331D01*
X0020578Y0025222D01*
X0020691Y0025111D01*
X0020801Y0024997D01*
X0020908Y0024880D01*
X0021012Y0024761D01*
X0021113Y0024639D01*
X0021210Y0024514D01*
X0021305Y0024387D01*
X0021396Y0024258D01*
X0021485Y0024127D01*
X0021569Y0023993D01*
X0021651Y0023857D01*
X0021729Y0023720D01*
X0021803Y0023580D01*
X0021874Y0023438D01*
X0021942Y0023295D01*
X0022006Y0023150D01*
X0022066Y0023004D01*
X0022122Y0022856D01*
X0022175Y0022707D01*
X0022224Y0022556D01*
X0022269Y0022404D01*
X0022310Y0022251D01*
X0022348Y0022098D01*
X0022381Y0021943D01*
X0022411Y0021787D01*
X0022437Y0021631D01*
X0022458Y0021474D01*
X0022476Y0021317D01*
X0022490Y0021159D01*
X0022500Y0021001D01*
X0022506Y0020843D01*
X0022508Y0020685D01*
X0022506Y0020527D01*
X0022500Y0020369D01*
X0022490Y0020211D01*
X0022476Y0020053D01*
X0022458Y0019896D01*
X0022437Y0019739D01*
X0022411Y0019583D01*
X0022381Y0019427D01*
X0022348Y0019272D01*
X0022310Y0019119D01*
X0022269Y0018966D01*
X0022224Y0018814D01*
X0022175Y0018663D01*
X0022122Y0018514D01*
X0022066Y0018366D01*
X0022006Y0018220D01*
X0021942Y0018075D01*
X0021874Y0017932D01*
X0021803Y0017790D01*
X0021729Y0017650D01*
X0021651Y0017513D01*
X0021569Y0017377D01*
X0021485Y0017243D01*
X0021396Y0017112D01*
X0021305Y0016983D01*
X0021210Y0016856D01*
X0021113Y0016731D01*
X0021012Y0016609D01*
X0020908Y0016490D01*
X0020801Y0016373D01*
X0020691Y0016259D01*
X0020578Y0016148D01*
X0020463Y0016039D01*
X0020345Y0015934D01*
X0020224Y0015832D01*
X0020101Y0015732D01*
X0019975Y0015636D01*
X0019847Y0015543D01*
X0019717Y0015453D01*
X0019584Y0015367D01*
X0019449Y0015283D01*
X0019313Y0015204D01*
X0019174Y0015127D01*
X0019033Y0015055D01*
X0018891Y0014985D01*
X0018747Y0014920D01*
X0018601Y0014858D01*
X0018454Y0014800D01*
X0018305Y0014745D01*
X0018155Y0014694D01*
X0018004Y0014647D01*
X0017852Y0014604D01*
X0017699Y0014565D01*
X0017544Y0014529D01*
X0017389Y0014498D01*
X0017233Y0014470D01*
X0017077Y0014446D01*
X0016920Y0014426D01*
X0016762Y0014410D01*
X0016605Y0014398D01*
X0016446Y0014390D01*
X0016288Y0014386D01*
X0016130Y0014386D01*
X0015972Y0014390D01*
X0015813Y0014398D01*
X0015656Y0014410D01*
X0015498Y0014426D01*
X0015341Y0014446D01*
X0015185Y0014470D01*
X0015029Y0014498D01*
X0014874Y0014529D01*
X0014719Y0014565D01*
X0014566Y0014604D01*
X0014414Y0014647D01*
X0014263Y0014694D01*
X0014113Y0014745D01*
X0013964Y0014800D01*
X0013817Y0014858D01*
X0013671Y0014920D01*
X0013527Y0014985D01*
X0013385Y0015055D01*
X0013244Y0015127D01*
X0013105Y0015204D01*
X0012969Y0015283D01*
X0012834Y0015367D01*
X0012701Y0015453D01*
X0012571Y0015543D01*
X0012443Y0015636D01*
X0012317Y0015732D01*
X0012194Y0015832D01*
X0012073Y0015934D01*
X0011955Y0016039D01*
X0011840Y0016148D01*
X0011727Y0016259D01*
X0011617Y0016373D01*
X0011510Y0016490D01*
X0011406Y0016609D01*
X0011305Y0016731D01*
X0011208Y0016856D01*
X0011113Y0016983D01*
X0011022Y0017112D01*
X0010933Y0017243D01*
X0010849Y0017377D01*
X0010767Y0017513D01*
X0010689Y0017650D01*
X0010615Y0017790D01*
X0010544Y0017932D01*
X0010476Y0018075D01*
X0010412Y0018220D01*
X0010352Y0018366D01*
X0010296Y0018514D01*
X0010243Y0018663D01*
X0010194Y0018814D01*
X0010149Y0018966D01*
X0010108Y0019119D01*
X0010070Y0019272D01*
X0010037Y0019427D01*
X0010007Y0019583D01*
X0009981Y0019739D01*
X0009960Y0019896D01*
X0009942Y0020053D01*
X0009928Y0020211D01*
X0009918Y0020369D01*
X0009912Y0020527D01*
X0009910Y0020685D01*
X0009910Y0115370D02*
X0009912Y0115528D01*
X0009918Y0115686D01*
X0009928Y0115844D01*
X0009942Y0116002D01*
X0009960Y0116159D01*
X0009981Y0116316D01*
X0010007Y0116472D01*
X0010037Y0116628D01*
X0010070Y0116783D01*
X0010108Y0116936D01*
X0010149Y0117089D01*
X0010194Y0117241D01*
X0010243Y0117392D01*
X0010296Y0117541D01*
X0010352Y0117689D01*
X0010412Y0117835D01*
X0010476Y0117980D01*
X0010544Y0118123D01*
X0010615Y0118265D01*
X0010689Y0118405D01*
X0010767Y0118542D01*
X0010849Y0118678D01*
X0010933Y0118812D01*
X0011022Y0118943D01*
X0011113Y0119072D01*
X0011208Y0119199D01*
X0011305Y0119324D01*
X0011406Y0119446D01*
X0011510Y0119565D01*
X0011617Y0119682D01*
X0011727Y0119796D01*
X0011840Y0119907D01*
X0011955Y0120016D01*
X0012073Y0120121D01*
X0012194Y0120223D01*
X0012317Y0120323D01*
X0012443Y0120419D01*
X0012571Y0120512D01*
X0012701Y0120602D01*
X0012834Y0120688D01*
X0012969Y0120772D01*
X0013105Y0120851D01*
X0013244Y0120928D01*
X0013385Y0121000D01*
X0013527Y0121070D01*
X0013671Y0121135D01*
X0013817Y0121197D01*
X0013964Y0121255D01*
X0014113Y0121310D01*
X0014263Y0121361D01*
X0014414Y0121408D01*
X0014566Y0121451D01*
X0014719Y0121490D01*
X0014874Y0121526D01*
X0015029Y0121557D01*
X0015185Y0121585D01*
X0015341Y0121609D01*
X0015498Y0121629D01*
X0015656Y0121645D01*
X0015813Y0121657D01*
X0015972Y0121665D01*
X0016130Y0121669D01*
X0016288Y0121669D01*
X0016446Y0121665D01*
X0016605Y0121657D01*
X0016762Y0121645D01*
X0016920Y0121629D01*
X0017077Y0121609D01*
X0017233Y0121585D01*
X0017389Y0121557D01*
X0017544Y0121526D01*
X0017699Y0121490D01*
X0017852Y0121451D01*
X0018004Y0121408D01*
X0018155Y0121361D01*
X0018305Y0121310D01*
X0018454Y0121255D01*
X0018601Y0121197D01*
X0018747Y0121135D01*
X0018891Y0121070D01*
X0019033Y0121000D01*
X0019174Y0120928D01*
X0019313Y0120851D01*
X0019449Y0120772D01*
X0019584Y0120688D01*
X0019717Y0120602D01*
X0019847Y0120512D01*
X0019975Y0120419D01*
X0020101Y0120323D01*
X0020224Y0120223D01*
X0020345Y0120121D01*
X0020463Y0120016D01*
X0020578Y0119907D01*
X0020691Y0119796D01*
X0020801Y0119682D01*
X0020908Y0119565D01*
X0021012Y0119446D01*
X0021113Y0119324D01*
X0021210Y0119199D01*
X0021305Y0119072D01*
X0021396Y0118943D01*
X0021485Y0118812D01*
X0021569Y0118678D01*
X0021651Y0118542D01*
X0021729Y0118405D01*
X0021803Y0118265D01*
X0021874Y0118123D01*
X0021942Y0117980D01*
X0022006Y0117835D01*
X0022066Y0117689D01*
X0022122Y0117541D01*
X0022175Y0117392D01*
X0022224Y0117241D01*
X0022269Y0117089D01*
X0022310Y0116936D01*
X0022348Y0116783D01*
X0022381Y0116628D01*
X0022411Y0116472D01*
X0022437Y0116316D01*
X0022458Y0116159D01*
X0022476Y0116002D01*
X0022490Y0115844D01*
X0022500Y0115686D01*
X0022506Y0115528D01*
X0022508Y0115370D01*
X0022506Y0115212D01*
X0022500Y0115054D01*
X0022490Y0114896D01*
X0022476Y0114738D01*
X0022458Y0114581D01*
X0022437Y0114424D01*
X0022411Y0114268D01*
X0022381Y0114112D01*
X0022348Y0113957D01*
X0022310Y0113804D01*
X0022269Y0113651D01*
X0022224Y0113499D01*
X0022175Y0113348D01*
X0022122Y0113199D01*
X0022066Y0113051D01*
X0022006Y0112905D01*
X0021942Y0112760D01*
X0021874Y0112617D01*
X0021803Y0112475D01*
X0021729Y0112335D01*
X0021651Y0112198D01*
X0021569Y0112062D01*
X0021485Y0111928D01*
X0021396Y0111797D01*
X0021305Y0111668D01*
X0021210Y0111541D01*
X0021113Y0111416D01*
X0021012Y0111294D01*
X0020908Y0111175D01*
X0020801Y0111058D01*
X0020691Y0110944D01*
X0020578Y0110833D01*
X0020463Y0110724D01*
X0020345Y0110619D01*
X0020224Y0110517D01*
X0020101Y0110417D01*
X0019975Y0110321D01*
X0019847Y0110228D01*
X0019717Y0110138D01*
X0019584Y0110052D01*
X0019449Y0109968D01*
X0019313Y0109889D01*
X0019174Y0109812D01*
X0019033Y0109740D01*
X0018891Y0109670D01*
X0018747Y0109605D01*
X0018601Y0109543D01*
X0018454Y0109485D01*
X0018305Y0109430D01*
X0018155Y0109379D01*
X0018004Y0109332D01*
X0017852Y0109289D01*
X0017699Y0109250D01*
X0017544Y0109214D01*
X0017389Y0109183D01*
X0017233Y0109155D01*
X0017077Y0109131D01*
X0016920Y0109111D01*
X0016762Y0109095D01*
X0016605Y0109083D01*
X0016446Y0109075D01*
X0016288Y0109071D01*
X0016130Y0109071D01*
X0015972Y0109075D01*
X0015813Y0109083D01*
X0015656Y0109095D01*
X0015498Y0109111D01*
X0015341Y0109131D01*
X0015185Y0109155D01*
X0015029Y0109183D01*
X0014874Y0109214D01*
X0014719Y0109250D01*
X0014566Y0109289D01*
X0014414Y0109332D01*
X0014263Y0109379D01*
X0014113Y0109430D01*
X0013964Y0109485D01*
X0013817Y0109543D01*
X0013671Y0109605D01*
X0013527Y0109670D01*
X0013385Y0109740D01*
X0013244Y0109812D01*
X0013105Y0109889D01*
X0012969Y0109968D01*
X0012834Y0110052D01*
X0012701Y0110138D01*
X0012571Y0110228D01*
X0012443Y0110321D01*
X0012317Y0110417D01*
X0012194Y0110517D01*
X0012073Y0110619D01*
X0011955Y0110724D01*
X0011840Y0110833D01*
X0011727Y0110944D01*
X0011617Y0111058D01*
X0011510Y0111175D01*
X0011406Y0111294D01*
X0011305Y0111416D01*
X0011208Y0111541D01*
X0011113Y0111668D01*
X0011022Y0111797D01*
X0010933Y0111928D01*
X0010849Y0112062D01*
X0010767Y0112198D01*
X0010689Y0112335D01*
X0010615Y0112475D01*
X0010544Y0112617D01*
X0010476Y0112760D01*
X0010412Y0112905D01*
X0010352Y0113051D01*
X0010296Y0113199D01*
X0010243Y0113348D01*
X0010194Y0113499D01*
X0010149Y0113651D01*
X0010108Y0113804D01*
X0010070Y0113957D01*
X0010037Y0114112D01*
X0010007Y0114268D01*
X0009981Y0114424D01*
X0009960Y0114581D01*
X0009942Y0114738D01*
X0009928Y0114896D01*
X0009918Y0115054D01*
X0009912Y0115212D01*
X0009910Y0115370D01*
X0259910Y0020685D02*
X0259912Y0020843D01*
X0259918Y0021001D01*
X0259928Y0021159D01*
X0259942Y0021317D01*
X0259960Y0021474D01*
X0259981Y0021631D01*
X0260007Y0021787D01*
X0260037Y0021943D01*
X0260070Y0022098D01*
X0260108Y0022251D01*
X0260149Y0022404D01*
X0260194Y0022556D01*
X0260243Y0022707D01*
X0260296Y0022856D01*
X0260352Y0023004D01*
X0260412Y0023150D01*
X0260476Y0023295D01*
X0260544Y0023438D01*
X0260615Y0023580D01*
X0260689Y0023720D01*
X0260767Y0023857D01*
X0260849Y0023993D01*
X0260933Y0024127D01*
X0261022Y0024258D01*
X0261113Y0024387D01*
X0261208Y0024514D01*
X0261305Y0024639D01*
X0261406Y0024761D01*
X0261510Y0024880D01*
X0261617Y0024997D01*
X0261727Y0025111D01*
X0261840Y0025222D01*
X0261955Y0025331D01*
X0262073Y0025436D01*
X0262194Y0025538D01*
X0262317Y0025638D01*
X0262443Y0025734D01*
X0262571Y0025827D01*
X0262701Y0025917D01*
X0262834Y0026003D01*
X0262969Y0026087D01*
X0263105Y0026166D01*
X0263244Y0026243D01*
X0263385Y0026315D01*
X0263527Y0026385D01*
X0263671Y0026450D01*
X0263817Y0026512D01*
X0263964Y0026570D01*
X0264113Y0026625D01*
X0264263Y0026676D01*
X0264414Y0026723D01*
X0264566Y0026766D01*
X0264719Y0026805D01*
X0264874Y0026841D01*
X0265029Y0026872D01*
X0265185Y0026900D01*
X0265341Y0026924D01*
X0265498Y0026944D01*
X0265656Y0026960D01*
X0265813Y0026972D01*
X0265972Y0026980D01*
X0266130Y0026984D01*
X0266288Y0026984D01*
X0266446Y0026980D01*
X0266605Y0026972D01*
X0266762Y0026960D01*
X0266920Y0026944D01*
X0267077Y0026924D01*
X0267233Y0026900D01*
X0267389Y0026872D01*
X0267544Y0026841D01*
X0267699Y0026805D01*
X0267852Y0026766D01*
X0268004Y0026723D01*
X0268155Y0026676D01*
X0268305Y0026625D01*
X0268454Y0026570D01*
X0268601Y0026512D01*
X0268747Y0026450D01*
X0268891Y0026385D01*
X0269033Y0026315D01*
X0269174Y0026243D01*
X0269313Y0026166D01*
X0269449Y0026087D01*
X0269584Y0026003D01*
X0269717Y0025917D01*
X0269847Y0025827D01*
X0269975Y0025734D01*
X0270101Y0025638D01*
X0270224Y0025538D01*
X0270345Y0025436D01*
X0270463Y0025331D01*
X0270578Y0025222D01*
X0270691Y0025111D01*
X0270801Y0024997D01*
X0270908Y0024880D01*
X0271012Y0024761D01*
X0271113Y0024639D01*
X0271210Y0024514D01*
X0271305Y0024387D01*
X0271396Y0024258D01*
X0271485Y0024127D01*
X0271569Y0023993D01*
X0271651Y0023857D01*
X0271729Y0023720D01*
X0271803Y0023580D01*
X0271874Y0023438D01*
X0271942Y0023295D01*
X0272006Y0023150D01*
X0272066Y0023004D01*
X0272122Y0022856D01*
X0272175Y0022707D01*
X0272224Y0022556D01*
X0272269Y0022404D01*
X0272310Y0022251D01*
X0272348Y0022098D01*
X0272381Y0021943D01*
X0272411Y0021787D01*
X0272437Y0021631D01*
X0272458Y0021474D01*
X0272476Y0021317D01*
X0272490Y0021159D01*
X0272500Y0021001D01*
X0272506Y0020843D01*
X0272508Y0020685D01*
X0272506Y0020527D01*
X0272500Y0020369D01*
X0272490Y0020211D01*
X0272476Y0020053D01*
X0272458Y0019896D01*
X0272437Y0019739D01*
X0272411Y0019583D01*
X0272381Y0019427D01*
X0272348Y0019272D01*
X0272310Y0019119D01*
X0272269Y0018966D01*
X0272224Y0018814D01*
X0272175Y0018663D01*
X0272122Y0018514D01*
X0272066Y0018366D01*
X0272006Y0018220D01*
X0271942Y0018075D01*
X0271874Y0017932D01*
X0271803Y0017790D01*
X0271729Y0017650D01*
X0271651Y0017513D01*
X0271569Y0017377D01*
X0271485Y0017243D01*
X0271396Y0017112D01*
X0271305Y0016983D01*
X0271210Y0016856D01*
X0271113Y0016731D01*
X0271012Y0016609D01*
X0270908Y0016490D01*
X0270801Y0016373D01*
X0270691Y0016259D01*
X0270578Y0016148D01*
X0270463Y0016039D01*
X0270345Y0015934D01*
X0270224Y0015832D01*
X0270101Y0015732D01*
X0269975Y0015636D01*
X0269847Y0015543D01*
X0269717Y0015453D01*
X0269584Y0015367D01*
X0269449Y0015283D01*
X0269313Y0015204D01*
X0269174Y0015127D01*
X0269033Y0015055D01*
X0268891Y0014985D01*
X0268747Y0014920D01*
X0268601Y0014858D01*
X0268454Y0014800D01*
X0268305Y0014745D01*
X0268155Y0014694D01*
X0268004Y0014647D01*
X0267852Y0014604D01*
X0267699Y0014565D01*
X0267544Y0014529D01*
X0267389Y0014498D01*
X0267233Y0014470D01*
X0267077Y0014446D01*
X0266920Y0014426D01*
X0266762Y0014410D01*
X0266605Y0014398D01*
X0266446Y0014390D01*
X0266288Y0014386D01*
X0266130Y0014386D01*
X0265972Y0014390D01*
X0265813Y0014398D01*
X0265656Y0014410D01*
X0265498Y0014426D01*
X0265341Y0014446D01*
X0265185Y0014470D01*
X0265029Y0014498D01*
X0264874Y0014529D01*
X0264719Y0014565D01*
X0264566Y0014604D01*
X0264414Y0014647D01*
X0264263Y0014694D01*
X0264113Y0014745D01*
X0263964Y0014800D01*
X0263817Y0014858D01*
X0263671Y0014920D01*
X0263527Y0014985D01*
X0263385Y0015055D01*
X0263244Y0015127D01*
X0263105Y0015204D01*
X0262969Y0015283D01*
X0262834Y0015367D01*
X0262701Y0015453D01*
X0262571Y0015543D01*
X0262443Y0015636D01*
X0262317Y0015732D01*
X0262194Y0015832D01*
X0262073Y0015934D01*
X0261955Y0016039D01*
X0261840Y0016148D01*
X0261727Y0016259D01*
X0261617Y0016373D01*
X0261510Y0016490D01*
X0261406Y0016609D01*
X0261305Y0016731D01*
X0261208Y0016856D01*
X0261113Y0016983D01*
X0261022Y0017112D01*
X0260933Y0017243D01*
X0260849Y0017377D01*
X0260767Y0017513D01*
X0260689Y0017650D01*
X0260615Y0017790D01*
X0260544Y0017932D01*
X0260476Y0018075D01*
X0260412Y0018220D01*
X0260352Y0018366D01*
X0260296Y0018514D01*
X0260243Y0018663D01*
X0260194Y0018814D01*
X0260149Y0018966D01*
X0260108Y0019119D01*
X0260070Y0019272D01*
X0260037Y0019427D01*
X0260007Y0019583D01*
X0259981Y0019739D01*
X0259960Y0019896D01*
X0259942Y0020053D01*
X0259928Y0020211D01*
X0259918Y0020369D01*
X0259912Y0020527D01*
X0259910Y0020685D01*
D11*
X0212705Y0018394D02*
X0212705Y0024394D01*
X0202705Y0024394D02*
X0202705Y0018394D01*
X0189634Y0017685D02*
X0189634Y0023685D01*
X0179634Y0023685D02*
X0179634Y0017685D01*
X0169634Y0017685D02*
X0169634Y0023685D01*
X0159634Y0023685D02*
X0159634Y0017685D01*
X0149634Y0017685D02*
X0149634Y0023685D01*
X0139634Y0023685D02*
X0139634Y0017685D01*
X0129634Y0017685D02*
X0129634Y0023685D01*
X0119634Y0023685D02*
X0119634Y0017685D01*
X0109634Y0017685D02*
X0109634Y0023685D01*
X0099634Y0023685D02*
X0099634Y0017685D01*
X0089634Y0017685D02*
X0089634Y0023685D01*
X0079634Y0023685D02*
X0079634Y0017685D01*
X0069634Y0017685D02*
X0069634Y0023685D01*
X0059634Y0023685D02*
X0059634Y0017685D01*
X0049634Y0017685D02*
X0049634Y0023685D01*
X0039634Y0023685D02*
X0039634Y0017685D01*
X0019484Y0039346D02*
X0013484Y0039346D01*
X0013484Y0049346D02*
X0019484Y0049346D01*
X0019484Y0059346D02*
X0013484Y0059346D01*
X0013484Y0069346D02*
X0019484Y0069346D01*
X0019484Y0079346D02*
X0013484Y0079346D01*
X0013484Y0089346D02*
X0019484Y0089346D01*
X0019484Y0099346D02*
X0013484Y0099346D01*
X0012500Y0131000D02*
X0018500Y0131000D01*
X0018500Y0141000D02*
X0012500Y0141000D01*
X0269862Y0086866D02*
X0275862Y0086866D01*
X0275862Y0076866D02*
X0269862Y0076866D01*
X0269862Y0066866D02*
X0275862Y0066866D01*
X0275862Y0056866D02*
X0269862Y0056866D01*
X0324232Y0099110D02*
X0330232Y0099110D01*
X0330232Y0109110D02*
X0324232Y0109110D01*
X0324232Y0119110D02*
X0330232Y0119110D01*
X0330232Y0129110D02*
X0324232Y0129110D01*
X0324232Y0139110D02*
X0330232Y0139110D01*
D12*
X0240382Y0107063D03*
X0232902Y0107063D03*
X0233492Y0087378D03*
X0240972Y0087378D03*
X0208846Y0148402D03*
X0201366Y0148402D03*
X0045264Y0102535D03*
X0037783Y0102535D03*
X0103165Y0055939D03*
X0110646Y0055939D03*
D13*
X0103531Y0065724D03*
X0103531Y0073205D03*
X0123925Y0112457D03*
X0123925Y0119937D03*
X0103650Y0120843D03*
X0103650Y0113362D03*
X0105028Y0138283D03*
X0105028Y0145764D03*
X0122744Y0146709D03*
X0122744Y0139228D03*
X0173453Y0142929D03*
X0173453Y0135449D03*
X0194398Y0132990D03*
X0194398Y0125510D03*
X0213886Y0125567D03*
X0213886Y0133047D03*
X0270972Y0132732D03*
X0270972Y0125252D03*
X0269004Y0106748D03*
X0269004Y0099268D03*
X0290657Y0098953D03*
X0290657Y0106433D03*
X0306406Y0106118D03*
X0306406Y0098638D03*
X0053846Y0125843D03*
X0053846Y0133323D03*
X0037626Y0133717D03*
X0037626Y0126236D03*
D14*
X0226484Y0022970D02*
X0226484Y0017770D01*
X0236484Y0017770D02*
X0236484Y0022970D01*
X0246484Y0022970D02*
X0246484Y0017770D01*
D15*
X0188925Y0067614D03*
X0186957Y0067614D03*
X0184988Y0067614D03*
X0183020Y0067614D03*
X0181051Y0067614D03*
X0179083Y0067614D03*
X0177114Y0067614D03*
X0175146Y0067614D03*
X0173177Y0067614D03*
X0171209Y0067614D03*
X0169240Y0067614D03*
X0167272Y0067614D03*
X0165303Y0067614D03*
X0163335Y0067614D03*
X0161366Y0067614D03*
X0159398Y0067614D03*
X0159398Y0114071D03*
X0161366Y0114071D03*
X0163335Y0114071D03*
X0165303Y0114071D03*
X0167272Y0114071D03*
X0169240Y0114071D03*
X0171209Y0114071D03*
X0173177Y0114071D03*
X0175146Y0114071D03*
X0177114Y0114071D03*
X0179083Y0114071D03*
X0181051Y0114071D03*
X0183020Y0114071D03*
X0184988Y0114071D03*
X0186957Y0114071D03*
X0188925Y0114071D03*
D16*
X0197390Y0105606D03*
X0197390Y0103638D03*
X0197390Y0101669D03*
X0197390Y0099701D03*
X0197390Y0097732D03*
X0197390Y0095764D03*
X0197390Y0093795D03*
X0197390Y0091827D03*
X0197390Y0089858D03*
X0197390Y0087890D03*
X0197390Y0085921D03*
X0197390Y0083953D03*
X0197390Y0081984D03*
X0197390Y0080016D03*
X0197390Y0078047D03*
X0197390Y0076079D03*
X0150933Y0076079D03*
X0150933Y0078047D03*
X0150933Y0080016D03*
X0150933Y0081984D03*
X0150933Y0083953D03*
X0150933Y0085921D03*
X0150933Y0087890D03*
X0150933Y0089858D03*
X0150933Y0091827D03*
X0150933Y0093795D03*
X0150933Y0095764D03*
X0150933Y0097732D03*
X0150933Y0099701D03*
X0150933Y0101669D03*
X0150933Y0103638D03*
X0150933Y0105606D03*
D17*
X0103728Y0099661D03*
X0103728Y0097102D03*
X0103728Y0094543D03*
X0103728Y0091984D03*
X0103728Y0089425D03*
X0103728Y0086866D03*
X0103728Y0084307D03*
X0081681Y0084307D03*
X0081681Y0086866D03*
X0081681Y0089425D03*
X0081681Y0091984D03*
X0081681Y0094543D03*
X0081681Y0097102D03*
X0081681Y0099661D03*
X0090539Y0129268D03*
X0090539Y0131827D03*
X0090539Y0134386D03*
X0090539Y0136945D03*
X0090539Y0139504D03*
X0090539Y0142063D03*
X0090539Y0144622D03*
X0068492Y0144622D03*
X0068492Y0142063D03*
X0068492Y0139504D03*
X0068492Y0136945D03*
X0068492Y0134386D03*
X0068492Y0131827D03*
X0068492Y0129268D03*
X0137390Y0129858D03*
X0137390Y0132417D03*
X0137390Y0134976D03*
X0137390Y0137535D03*
X0137390Y0140094D03*
X0137390Y0142654D03*
X0137390Y0145213D03*
X0159437Y0145213D03*
X0159437Y0142654D03*
X0159437Y0140094D03*
X0159437Y0137535D03*
X0159437Y0134976D03*
X0159437Y0132417D03*
X0159437Y0129858D03*
X0233846Y0134386D03*
X0233846Y0136945D03*
X0233846Y0139504D03*
X0233846Y0142063D03*
X0233846Y0144622D03*
X0233846Y0147181D03*
X0233846Y0149740D03*
X0255894Y0149740D03*
X0255894Y0147181D03*
X0255894Y0144622D03*
X0255894Y0142063D03*
X0255894Y0139504D03*
X0255894Y0136945D03*
X0255894Y0134386D03*
D18*
X0255874Y0134858D01*
X0251937Y0134858D01*
X0248984Y0137811D01*
X0248984Y0141256D01*
X0251937Y0144209D01*
X0255874Y0144209D01*
X0255894Y0144622D01*
X0255894Y0142063D02*
X0255874Y0141748D01*
X0255874Y0139780D01*
X0255894Y0139504D01*
X0255894Y0136945D02*
X0256366Y0136827D01*
X0266701Y0136827D01*
X0270638Y0132890D01*
X0270972Y0132732D01*
X0275559Y0129937D02*
X0275559Y0149622D01*
X0256366Y0149622D01*
X0255894Y0149740D01*
X0255874Y0147654D02*
X0255894Y0147181D01*
X0255874Y0147654D02*
X0242094Y0147654D01*
X0234713Y0155035D01*
X0029988Y0155035D01*
X0027035Y0152083D01*
X0027035Y0094996D01*
X0030972Y0094012D02*
X0030972Y0153067D01*
X0211583Y0153067D01*
X0222656Y0141994D01*
X0221917Y0141256D01*
X0202724Y0141256D01*
X0194850Y0133382D01*
X0194398Y0132990D01*
X0190913Y0128953D02*
X0189929Y0129937D01*
X0189929Y0143224D01*
X0203709Y0143224D01*
X0208630Y0148146D01*
X0208846Y0148402D01*
X0201366Y0148402D02*
X0201248Y0148146D01*
X0177626Y0148146D01*
X0173197Y0143224D02*
X0171228Y0145193D01*
X0159909Y0145193D01*
X0159437Y0145213D01*
X0159417Y0145685D01*
X0157449Y0147654D01*
X0123492Y0147654D01*
X0123000Y0147161D01*
X0122744Y0146709D01*
X0122508Y0146669D01*
X0122016Y0146177D01*
X0105283Y0146177D01*
X0105028Y0145764D01*
X0104791Y0145685D01*
X0103807Y0144701D01*
X0091012Y0144701D01*
X0090539Y0144622D01*
X0090028Y0144701D01*
X0088059Y0146669D01*
X0042783Y0146669D01*
X0032941Y0136827D01*
X0032941Y0126492D01*
X0037370Y0126492D01*
X0037626Y0126236D01*
X0038354Y0125508D01*
X0053118Y0125508D01*
X0053846Y0125843D01*
X0053610Y0125508D01*
X0053610Y0113697D01*
X0045736Y0113205D01*
X0045264Y0102535D01*
X0045736Y0097457D01*
X0038096Y0097397D01*
X0035365Y0086637D01*
X0031957Y0071866D01*
X0044014Y0064238D01*
X0049181Y0059071D01*
X0051642Y0063992D02*
X0055579Y0063992D01*
X0051642Y0063992D02*
X0051642Y0099425D01*
X0081681Y0099661D01*
X0081681Y0097102D02*
X0053610Y0097457D01*
X0053610Y0067929D01*
X0061287Y0067339D01*
X0064765Y0068060D02*
X0065421Y0067929D01*
X0065421Y0062024D01*
X0069490Y0062108D02*
X0071327Y0060055D01*
X0069490Y0062108D02*
X0068702Y0066828D01*
X0066565Y0070034D01*
X0063589Y0073010D01*
X0059380Y0073010D01*
X0058235Y0071866D01*
X0057547Y0071866D01*
X0057657Y0091553D01*
X0081681Y0091984D01*
X0081681Y0089425D02*
X0059516Y0089583D01*
X0059516Y0074810D01*
X0064335Y0074810D01*
X0067453Y0071692D01*
X0067649Y0071653D01*
X0067964Y0071181D01*
X0068365Y0070779D01*
X0070502Y0067574D01*
X0070614Y0067407D01*
X0071598Y0065764D01*
X0077232Y0060055D01*
X0081169Y0055626D02*
X0097409Y0071866D01*
X0098886Y0077772D02*
X0103315Y0073343D01*
X0103531Y0073205D01*
X0109713Y0071866D02*
X0103807Y0065961D01*
X0103531Y0065724D01*
X0110697Y0065961D01*
X0110646Y0055939D01*
X0103165Y0055939D02*
X0095441Y0057594D01*
X0097409Y0066945D02*
X0084122Y0053657D01*
X0020638Y0053657D01*
X0016701Y0049720D01*
X0016484Y0049346D01*
X0020146Y0055626D02*
X0081169Y0055626D01*
X0077232Y0048244D02*
X0081169Y0046276D01*
X0089969Y0046276D01*
X0090607Y0046914D01*
X0099290Y0046914D01*
X0099929Y0046276D01*
X0130382Y0046276D01*
X0134280Y0050173D01*
X0134319Y0065961D01*
X0134319Y0069898D01*
X0136287Y0063992D02*
X0140224Y0063992D01*
X0136287Y0063992D02*
X0136054Y0048477D01*
X0131883Y0044306D01*
X0099444Y0044215D01*
X0098545Y0045114D01*
X0091353Y0045114D01*
X0090428Y0044189D01*
X0072395Y0044139D01*
X0071327Y0046276D01*
X0065421Y0048244D02*
X0065421Y0042339D01*
X0091123Y0042339D01*
X0092099Y0043314D01*
X0097799Y0043314D01*
X0098775Y0042339D01*
X0133343Y0042339D01*
X0133343Y0043220D01*
X0137374Y0047251D01*
X0138256Y0047251D01*
X0138256Y0060055D01*
X0144161Y0060055D01*
X0140224Y0056118D02*
X0148098Y0056118D01*
X0148098Y0065961D01*
X0154004Y0069898D02*
X0152035Y0056118D01*
X0149898Y0055691D01*
X0149898Y0055373D01*
X0148844Y0054318D01*
X0143035Y0054318D01*
X0142193Y0054150D01*
X0142193Y0044307D01*
X0141537Y0043651D01*
X0138865Y0043651D01*
X0136943Y0041729D01*
X0136943Y0039057D01*
X0136287Y0038402D01*
X0097620Y0038402D01*
X0096308Y0039714D01*
X0093590Y0039714D01*
X0092277Y0038402D01*
X0055579Y0038402D01*
X0061484Y0042339D02*
X0063453Y0040370D01*
X0091700Y0040370D01*
X0092844Y0041514D01*
X0097053Y0041514D01*
X0098198Y0040370D01*
X0134319Y0040370D01*
X0135143Y0041194D01*
X0135143Y0042475D01*
X0138120Y0045451D01*
X0139400Y0045451D01*
X0140224Y0046276D01*
X0140224Y0056118D01*
X0142587Y0039780D02*
X0173689Y0040370D01*
X0175165Y0041846D01*
X0175165Y0067437D01*
X0175146Y0067614D01*
X0177114Y0067614D02*
X0177134Y0067437D01*
X0177134Y0035941D01*
X0124476Y0035941D01*
X0124476Y0028559D01*
X0092980Y0028559D01*
X0089634Y0020685D01*
X0090028Y0020685D01*
X0079648Y0020699D02*
X0079634Y0020685D01*
X0079648Y0020699D02*
X0079648Y0028157D01*
X0087923Y0028559D01*
X0095343Y0035252D01*
X0069850Y0020685D02*
X0069634Y0020685D01*
X0069358Y0010843D01*
X0134319Y0008874D01*
X0134319Y0032069D01*
X0139732Y0020685D02*
X0151051Y0032004D01*
X0179102Y0032004D01*
X0179102Y0067437D01*
X0179083Y0067614D01*
X0181051Y0067614D02*
X0181071Y0067437D01*
X0181071Y0030035D01*
X0159417Y0030035D01*
X0150067Y0020685D01*
X0149634Y0020685D01*
X0139732Y0020685D02*
X0139634Y0020685D01*
X0159634Y0020685D02*
X0159909Y0020685D01*
X0167291Y0028067D01*
X0183039Y0028067D01*
X0183039Y0067437D01*
X0183020Y0067614D01*
X0184988Y0067614D02*
X0185008Y0067929D01*
X0185008Y0073835D01*
X0182547Y0077280D02*
X0179102Y0073835D01*
X0112665Y0073835D01*
X0105283Y0081217D01*
X0090520Y0081217D01*
X0085106Y0086630D01*
X0082154Y0086630D01*
X0081681Y0086866D01*
X0081661Y0084661D02*
X0077724Y0084661D01*
X0081661Y0084661D02*
X0081681Y0084307D01*
X0089043Y0076945D01*
X0089043Y0069898D01*
X0098394Y0077772D02*
X0098886Y0077772D01*
X0103807Y0084169D02*
X0103728Y0084307D01*
X0103807Y0084169D02*
X0105283Y0084169D01*
X0113650Y0075803D01*
X0150559Y0075803D01*
X0150933Y0076079D01*
X0151051Y0075803D01*
X0154496Y0075803D01*
X0165323Y0075880D01*
X0165323Y0101394D01*
X0165047Y0101669D01*
X0150933Y0101669D01*
X0150933Y0099701D02*
X0144898Y0099750D01*
X0144818Y0101221D01*
X0141537Y0100784D02*
X0141537Y0100125D01*
X0141996Y0097654D01*
X0147409Y0097621D01*
X0147442Y0097654D01*
X0148461Y0097654D01*
X0150933Y0097732D01*
X0150933Y0095764D02*
X0137469Y0095685D01*
X0136878Y0099819D01*
X0141322Y0100999D02*
X0141537Y0100784D01*
X0141322Y0100999D02*
X0139852Y0105155D01*
X0144043Y0107114D02*
X0147442Y0103716D01*
X0150606Y0103716D01*
X0150676Y0103675D01*
X0150829Y0103716D01*
X0150846Y0103716D01*
X0150933Y0103638D01*
X0150933Y0105606D02*
X0150559Y0105823D01*
X0140224Y0116157D01*
X0137764Y0116157D01*
X0135795Y0118126D01*
X0135795Y0125016D01*
X0138256Y0125016D01*
X0142193Y0128953D01*
X0142193Y0132398D01*
X0142193Y0141256D01*
X0141209Y0142240D01*
X0137764Y0142240D01*
X0137390Y0142654D01*
X0137272Y0145193D02*
X0137390Y0145213D01*
X0137272Y0145193D02*
X0128906Y0145193D01*
X0123000Y0139287D01*
X0122744Y0139228D01*
X0122508Y0138795D01*
X0109220Y0125508D01*
X0108236Y0129445D02*
X0103315Y0129445D01*
X0103315Y0129937D01*
X0093965Y0139287D01*
X0091012Y0139287D01*
X0090539Y0139504D01*
X0090520Y0141748D02*
X0090539Y0142063D01*
X0091012Y0141748D01*
X0101346Y0141748D01*
X0104791Y0138303D01*
X0105028Y0138283D01*
X0090539Y0136945D02*
X0090520Y0136827D01*
X0090520Y0134858D01*
X0090539Y0134386D01*
X0090539Y0131827D02*
X0090520Y0131413D01*
X0085598Y0131413D01*
X0085598Y0128461D01*
X0087075Y0126984D01*
X0097409Y0126984D01*
X0103315Y0121079D01*
X0103650Y0120843D01*
X0103315Y0113697D02*
X0103650Y0113362D01*
X0104299Y0112713D01*
X0123492Y0112713D01*
X0123925Y0112457D01*
X0133995Y0117380D02*
X0137018Y0114357D01*
X0138808Y0114357D01*
X0140224Y0113205D01*
X0144043Y0109793D01*
X0144043Y0107114D01*
X0155972Y0114189D02*
X0158925Y0114189D01*
X0159398Y0114071D01*
X0161366Y0114071D02*
X0161386Y0113697D01*
X0161386Y0108283D01*
X0161878Y0108283D01*
X0165323Y0105823D02*
X0165323Y0101394D01*
X0165323Y0105823D02*
X0188945Y0105823D01*
X0188945Y0113697D01*
X0188925Y0114071D01*
X0177134Y0114189D02*
X0177114Y0114071D01*
X0177134Y0114189D02*
X0177134Y0120094D01*
X0170736Y0120094D01*
X0167291Y0123539D02*
X0188945Y0123539D01*
X0200756Y0111728D01*
X0235697Y0111728D01*
X0240126Y0107299D01*
X0240382Y0107063D01*
X0240618Y0106807D01*
X0268669Y0106807D01*
X0269004Y0106748D01*
X0269161Y0106807D01*
X0290323Y0106807D01*
X0290657Y0106433D01*
X0290815Y0106315D01*
X0306071Y0106315D01*
X0306406Y0106118D01*
X0306563Y0106315D01*
X0324772Y0106315D01*
X0327232Y0108776D01*
X0327232Y0109110D01*
X0327232Y0099110D02*
X0327232Y0098933D01*
X0306563Y0098933D01*
X0306406Y0098638D01*
X0306071Y0098933D01*
X0290815Y0098933D01*
X0290657Y0098953D01*
X0290323Y0099425D01*
X0280480Y0099425D01*
X0280480Y0067437D01*
X0272606Y0067437D01*
X0272862Y0066866D01*
X0272606Y0066945D01*
X0189437Y0066945D01*
X0188945Y0067437D01*
X0188925Y0067614D01*
X0186976Y0067437D02*
X0186957Y0067614D01*
X0186976Y0067437D02*
X0186976Y0032496D01*
X0188453Y0029051D02*
X0237665Y0029051D01*
X0246031Y0020685D01*
X0246484Y0020370D01*
X0236484Y0020370D02*
X0236189Y0020193D01*
X0229791Y0005921D01*
X0068866Y0005921D01*
X0060008Y0020685D01*
X0059634Y0020685D01*
X0039634Y0020685D02*
X0039339Y0020685D01*
X0021130Y0038894D01*
X0016701Y0038894D01*
X0016484Y0039346D01*
X0045736Y0032496D02*
X0057547Y0032496D01*
X0020146Y0055626D02*
X0016701Y0059071D01*
X0016484Y0059346D01*
X0016701Y0068913D02*
X0028512Y0066945D01*
X0036878Y0099917D01*
X0037783Y0102535D01*
X0030972Y0094012D02*
X0016701Y0079740D01*
X0016484Y0079346D01*
X0016484Y0069346D02*
X0016701Y0068913D01*
X0043522Y0064730D02*
X0044014Y0064238D01*
X0055579Y0069898D02*
X0058813Y0069898D01*
X0060125Y0071210D01*
X0062843Y0071210D01*
X0064765Y0069288D01*
X0064765Y0068060D01*
X0055579Y0069898D02*
X0055898Y0094750D01*
X0081681Y0094543D01*
X0088551Y0097949D02*
X0094457Y0092043D01*
X0103315Y0092043D01*
X0103728Y0091984D01*
X0103807Y0092043D01*
X0120047Y0092043D01*
X0122783Y0085921D02*
X0118571Y0081709D01*
X0126445Y0079740D02*
X0128138Y0078047D01*
X0150933Y0078047D01*
X0150933Y0085921D02*
X0122783Y0085921D01*
X0109713Y0086630D02*
X0103807Y0086630D01*
X0103728Y0086866D01*
X0103315Y0089091D02*
X0099870Y0089091D01*
X0097409Y0086630D01*
X0103315Y0089091D02*
X0103728Y0089425D01*
X0103728Y0094543D02*
X0103807Y0094996D01*
X0103807Y0096965D01*
X0103728Y0097102D01*
X0103807Y0097457D01*
X0103807Y0099425D01*
X0103728Y0099661D01*
X0103315Y0099917D01*
X0101346Y0101886D01*
X0101346Y0102378D01*
X0108728Y0102378D01*
X0108728Y0105331D01*
X0094949Y0105331D01*
X0094949Y0109268D01*
X0089043Y0109268D01*
X0103315Y0113697D02*
X0053610Y0113697D01*
X0064437Y0117142D02*
X0066406Y0119110D01*
X0070343Y0119110D01*
X0085598Y0134366D01*
X0085598Y0141748D01*
X0090520Y0141748D01*
X0073295Y0141748D02*
X0073295Y0133382D01*
X0071819Y0131906D01*
X0068866Y0131906D01*
X0068492Y0131827D01*
X0068374Y0131413D01*
X0062469Y0131413D01*
X0068492Y0129268D02*
X0068866Y0128953D01*
X0068866Y0122555D01*
X0090539Y0129268D02*
X0091012Y0129445D01*
X0103315Y0129445D01*
X0108236Y0129445D02*
X0109220Y0130429D01*
X0123984Y0134858D02*
X0137272Y0134858D01*
X0137390Y0134976D01*
X0137390Y0132417D02*
X0137764Y0132398D01*
X0142193Y0132398D01*
X0137390Y0129858D02*
X0137272Y0129445D01*
X0129644Y0121817D01*
X0133995Y0118275D01*
X0133995Y0117380D01*
X0139240Y0119602D02*
X0163354Y0119602D01*
X0163354Y0114189D01*
X0163335Y0114071D01*
X0165303Y0114071D02*
X0165323Y0113697D01*
X0165323Y0105823D01*
X0167272Y0114071D02*
X0167291Y0114189D01*
X0167291Y0123539D01*
X0159437Y0129858D02*
X0159417Y0129937D01*
X0155972Y0129937D01*
X0154496Y0131413D01*
X0154496Y0139780D01*
X0159417Y0139780D01*
X0159437Y0140094D01*
X0159437Y0137535D02*
X0159417Y0137319D01*
X0159417Y0135350D01*
X0159437Y0134976D01*
X0159909Y0132890D02*
X0159437Y0132417D01*
X0159909Y0132890D02*
X0170736Y0132890D01*
X0173197Y0135350D01*
X0173453Y0135449D01*
X0167291Y0137811D02*
X0167291Y0142240D01*
X0159909Y0142240D01*
X0159437Y0142654D01*
X0173197Y0143224D02*
X0173453Y0142929D01*
X0173689Y0143224D01*
X0189929Y0143224D01*
X0213886Y0133047D02*
X0214043Y0133382D01*
X0219949Y0139287D01*
X0233728Y0139287D01*
X0233846Y0139504D01*
X0234220Y0137319D02*
X0233846Y0136945D01*
X0233728Y0136827D01*
X0230283Y0136827D01*
X0227823Y0134366D01*
X0233846Y0134386D02*
X0234220Y0134366D01*
X0234220Y0128461D01*
X0234220Y0137319D02*
X0238650Y0137319D01*
X0238650Y0145685D01*
X0237665Y0146669D01*
X0234713Y0146669D01*
X0234220Y0147161D01*
X0233846Y0147181D01*
X0233728Y0149622D02*
X0230283Y0149622D01*
X0222656Y0141994D01*
X0233728Y0142240D02*
X0233846Y0142063D01*
X0233728Y0142240D02*
X0233728Y0144209D01*
X0233846Y0144622D01*
X0233728Y0149622D02*
X0233846Y0149740D01*
X0271130Y0125508D02*
X0275559Y0129937D01*
X0271130Y0125508D02*
X0270972Y0125252D01*
X0270638Y0125016D01*
X0213551Y0125016D01*
X0213886Y0125567D01*
X0213551Y0125508D01*
X0194850Y0125508D01*
X0194398Y0125510D01*
X0194358Y0126000D01*
X0191406Y0128953D01*
X0190913Y0128953D01*
X0231760Y0105823D02*
X0232744Y0106807D01*
X0232902Y0107063D01*
X0233236Y0106807D01*
X0240618Y0099425D01*
X0268669Y0099425D01*
X0269004Y0099268D01*
X0269161Y0099425D01*
X0280480Y0099425D01*
X0272606Y0087122D02*
X0272862Y0086866D01*
X0272606Y0087122D02*
X0246524Y0087122D01*
X0246524Y0097457D01*
X0245681Y0097625D01*
X0239873Y0097625D01*
X0238818Y0098680D01*
X0238420Y0099077D01*
X0226839Y0101394D01*
X0226839Y0103362D01*
X0197390Y0103638D01*
X0197390Y0105606D02*
X0197803Y0105823D01*
X0231760Y0105823D01*
X0224870Y0101394D02*
X0224870Y0087614D01*
X0233492Y0087378D02*
X0217488Y0071374D01*
X0192390Y0071374D01*
X0186484Y0077280D01*
X0182547Y0077280D01*
X0197390Y0078047D02*
X0201778Y0078047D01*
X0201850Y0078119D01*
X0210743Y0078119D01*
X0211091Y0077772D01*
X0203217Y0074819D02*
X0198787Y0074819D01*
X0197803Y0075803D01*
X0197390Y0076079D01*
X0201643Y0089862D02*
X0215028Y0087614D01*
X0220920Y0094235D02*
X0201685Y0093491D01*
X0201458Y0093717D01*
X0198489Y0093717D01*
X0197390Y0093795D01*
X0197390Y0095764D02*
X0197470Y0095842D01*
X0200881Y0095842D01*
X0201643Y0096603D01*
X0201643Y0099873D01*
X0203217Y0101394D01*
X0224870Y0101394D01*
X0201643Y0090987D02*
X0201643Y0089862D01*
X0201643Y0090987D02*
X0200881Y0091749D01*
X0197558Y0091749D01*
X0197390Y0091827D01*
X0197390Y0105606D02*
X0197311Y0105823D01*
X0188945Y0105823D01*
X0150933Y0093795D02*
X0133531Y0093717D01*
X0145096Y0089399D02*
X0145148Y0088000D01*
X0150933Y0087890D01*
X0128413Y0102378D02*
X0108728Y0102378D01*
X0128413Y0102378D02*
X0128413Y0120587D01*
X0129644Y0121817D01*
X0123984Y0120094D02*
X0123925Y0119937D01*
X0123984Y0120094D02*
X0123984Y0134858D01*
X0137272Y0137811D02*
X0137272Y0139780D01*
X0137390Y0140094D01*
X0137272Y0137811D02*
X0137390Y0137535D01*
X0073295Y0141748D02*
X0068866Y0141748D01*
X0068492Y0142063D01*
X0068492Y0139504D02*
X0068374Y0139287D01*
X0068374Y0137319D01*
X0068492Y0136945D01*
X0068374Y0134858D02*
X0064437Y0134858D01*
X0063945Y0135350D01*
X0056071Y0135350D01*
X0054102Y0133382D01*
X0053846Y0133323D01*
X0046228Y0128953D02*
X0039831Y0135350D01*
X0037626Y0133717D01*
X0037862Y0133874D01*
X0048197Y0144209D01*
X0068374Y0144209D01*
X0068492Y0144622D01*
X0068374Y0134858D02*
X0068492Y0134386D01*
X0103531Y0065724D02*
X0103807Y0065469D01*
X0180087Y0020685D02*
X0188453Y0029051D01*
X0189634Y0020685D02*
X0189929Y0020685D01*
X0196819Y0013795D01*
X0219949Y0013795D01*
X0226346Y0020193D01*
X0226484Y0020370D01*
X0222902Y0030851D02*
X0215028Y0038402D01*
X0216996Y0052181D01*
X0220933Y0058087D02*
X0220933Y0062024D01*
X0220933Y0058087D02*
X0232744Y0058087D01*
X0232744Y0038402D01*
X0334880Y0038402D01*
X0334880Y0119110D01*
X0327232Y0119110D01*
X0327232Y0129110D02*
X0336680Y0129026D01*
X0336680Y0034465D01*
X0224870Y0034465D01*
X0220933Y0038402D01*
X0224870Y0048244D01*
X0222902Y0030851D02*
X0261102Y0030851D01*
X0261735Y0031484D01*
X0270682Y0031484D01*
X0271639Y0030528D01*
X0338480Y0030528D01*
X0338480Y0138885D01*
X0327232Y0139110D01*
X0240972Y0087378D02*
X0241110Y0087122D01*
X0246524Y0087122D01*
X0180087Y0020685D02*
X0179634Y0020685D01*
D19*
X0055579Y0063992D03*
D20*
X0061287Y0067339D03*
X0065421Y0062024D03*
X0071327Y0060055D03*
X0077232Y0060055D03*
X0089043Y0069898D03*
X0118571Y0081709D03*
X0126445Y0079740D03*
X0134319Y0069898D03*
X0140224Y0063992D03*
X0144161Y0060055D03*
X0148098Y0065961D03*
X0154004Y0069898D03*
X0145096Y0089399D03*
X0133531Y0093717D03*
X0136878Y0099819D03*
X0144818Y0101221D03*
X0139852Y0105155D03*
X0089043Y0109268D03*
X0211091Y0077772D03*
X0215028Y0087614D03*
X0224870Y0087614D03*
X0220920Y0094235D03*
X0220933Y0062024D03*
X0216996Y0052181D03*
X0224870Y0048244D03*
X0142587Y0039780D03*
X0134319Y0032069D03*
X0095343Y0035252D03*
X0071327Y0046276D03*
X0065421Y0048244D03*
X0061484Y0042339D03*
X0055579Y0038402D03*
X0057547Y0032496D03*
X0045736Y0032496D03*
X0077232Y0048244D03*
D21*
X0095441Y0057594D03*
X0097409Y0066945D03*
X0097409Y0071866D03*
X0109713Y0071866D03*
X0098394Y0077772D03*
X0097409Y0086630D03*
X0109713Y0086630D03*
X0120047Y0092043D03*
X0088551Y0097949D03*
X0064437Y0117142D03*
X0068866Y0122555D03*
X0079201Y0120094D03*
X0062469Y0131413D03*
X0046228Y0128953D03*
X0109220Y0130429D03*
X0109220Y0125508D03*
X0139240Y0119602D03*
X0155972Y0114189D03*
X0161878Y0108283D03*
X0170736Y0120094D03*
X0167291Y0137811D03*
X0177626Y0148146D03*
X0227823Y0134366D03*
X0234220Y0128461D03*
X0248984Y0137811D03*
X0203217Y0074819D03*
X0185008Y0073835D03*
X0186976Y0032496D03*
X0049181Y0059071D03*
X0027035Y0094996D03*
M02*
