%
M48
M72
T01C0.02400
T02C0.02402
T03C0.02559
T04C0.03200
T05C0.04000
T06C0.12598
%
T01
X95441Y57594
X97409Y66945
X97409Y71866
X109713Y71866
X98394Y77772
X97409Y86630
X109713Y86630
X120047Y92043
X88551Y97949
X64437Y117142
X68866Y122555
X79201Y120094
X62469Y131413
X46228Y128953
X109220Y130429
X109220Y125508
X139240Y119602
X155972Y114189
X161878Y108283
X170736Y120094
X167291Y137811
X177626Y148146
X227823Y134366
X234220Y128461
X248984Y137811
X203217Y74819
X185008Y73835
X186976Y32496
X49181Y59071
X27035Y94996
T02
X61287Y67339
X65421Y62024
X71327Y60055
X77232Y60055
X89043Y69898
X118571Y81709
X126445Y79740
X134319Y69898
X140224Y63992
X144161Y60055
X148098Y65961
X154004Y69898
X145096Y89399
X133531Y93717
X136878Y99819
X144818Y101221
X139852Y105155
X89043Y109268
X211091Y77772
X215028Y87614
X224870Y87614
X220920Y94235
X220933Y62024
X216996Y52181
X224870Y48244
X142587Y39780
X134319Y32069
X95343Y35252
X71327Y46276
X65421Y48244
X61484Y42339
X55579Y38402
X57547Y32496
X45736Y32496
X77232Y48244
T03
X55579Y63992
T04
X226484Y20370
X236484Y20370
X246484Y20370
T05
X212705Y21394
X202705Y21394
X189634Y20685
X179634Y20685
X169634Y20685
X159634Y20685
X149634Y20685
X139634Y20685
X129634Y20685
X119634Y20685
X109634Y20685
X99634Y20685
X89634Y20685
X79634Y20685
X69634Y20685
X59634Y20685
X49634Y20685
X39634Y20685
X16484Y39346
X16484Y49346
X16484Y59346
X16484Y69346
X16484Y79346
X16484Y89346
X16484Y99346
X15500Y131000
X15500Y141000
X272862Y86866
X272862Y76866
X272862Y66866
X272862Y56866
X327232Y99110
X327232Y109110
X327232Y119110
X327232Y129110
X327232Y139110
T06
X16209Y20685
X16209Y115370
X266209Y20685
M30
