G75*
%MOIN*%
%OFA0B0*%
%FSLAX25Y25*%
%IPPOS*%
%LPD*%
%AMOC8*
5,1,8,0,0,1.08239X$1,22.5*
%
%ADD10C,0.13398*%
%ADD11C,0.06800*%
%ADD12C,0.06000*%
%ADD13C,0.04959*%
%ADD14C,0.04802*%
%ADD15C,0.04800*%
D10*
X0016209Y0020685D03*
X0016209Y0115370D03*
X0266209Y0020685D03*
D11*
X0039634Y0017685D02*
X0039634Y0023685D01*
X0049634Y0023685D02*
X0049634Y0017685D01*
X0059634Y0017685D02*
X0059634Y0023685D01*
X0069634Y0023685D02*
X0069634Y0017685D01*
X0079634Y0017685D02*
X0079634Y0023685D01*
X0089634Y0023685D02*
X0089634Y0017685D01*
X0099634Y0017685D02*
X0099634Y0023685D01*
X0109634Y0023685D02*
X0109634Y0017685D01*
X0119634Y0017685D02*
X0119634Y0023685D01*
X0129634Y0023685D02*
X0129634Y0017685D01*
X0139634Y0017685D02*
X0139634Y0023685D01*
X0149634Y0023685D02*
X0149634Y0017685D01*
X0159634Y0017685D02*
X0159634Y0023685D01*
X0169634Y0023685D02*
X0169634Y0017685D01*
X0179634Y0017685D02*
X0179634Y0023685D01*
X0189634Y0023685D02*
X0189634Y0017685D01*
X0202705Y0018394D02*
X0202705Y0024394D01*
X0212705Y0024394D02*
X0212705Y0018394D01*
X0269862Y0056866D02*
X0275862Y0056866D01*
X0275862Y0066866D02*
X0269862Y0066866D01*
X0269862Y0076866D02*
X0275862Y0076866D01*
X0275862Y0086866D02*
X0269862Y0086866D01*
X0324232Y0099110D02*
X0330232Y0099110D01*
X0330232Y0109110D02*
X0324232Y0109110D01*
X0324232Y0119110D02*
X0330232Y0119110D01*
X0330232Y0129110D02*
X0324232Y0129110D01*
X0324232Y0139110D02*
X0330232Y0139110D01*
X0018500Y0141000D02*
X0012500Y0141000D01*
X0012500Y0131000D02*
X0018500Y0131000D01*
X0019484Y0099346D02*
X0013484Y0099346D01*
X0013484Y0089346D02*
X0019484Y0089346D01*
X0019484Y0079346D02*
X0013484Y0079346D01*
X0013484Y0069346D02*
X0019484Y0069346D01*
X0019484Y0059346D02*
X0013484Y0059346D01*
X0013484Y0049346D02*
X0019484Y0049346D01*
X0019484Y0039346D02*
X0013484Y0039346D01*
D12*
X0226484Y0022970D02*
X0226484Y0017770D01*
X0236484Y0017770D02*
X0236484Y0022970D01*
X0246484Y0022970D02*
X0246484Y0017770D01*
D13*
X0055579Y0063992D03*
D14*
X0061287Y0067339D03*
X0065421Y0062024D03*
X0071327Y0060055D03*
X0077232Y0060055D03*
X0089043Y0069898D03*
X0118571Y0081709D03*
X0126445Y0079740D03*
X0134319Y0069898D03*
X0140224Y0063992D03*
X0144161Y0060055D03*
X0148098Y0065961D03*
X0154004Y0069898D03*
X0145096Y0089399D03*
X0133531Y0093717D03*
X0136878Y0099819D03*
X0144818Y0101221D03*
X0139852Y0105155D03*
X0089043Y0109268D03*
X0211091Y0077772D03*
X0215028Y0087614D03*
X0224870Y0087614D03*
X0220920Y0094235D03*
X0220933Y0062024D03*
X0216996Y0052181D03*
X0224870Y0048244D03*
X0142587Y0039780D03*
X0134319Y0032069D03*
X0095343Y0035252D03*
X0071327Y0046276D03*
X0065421Y0048244D03*
X0061484Y0042339D03*
X0055579Y0038402D03*
X0057547Y0032496D03*
X0045736Y0032496D03*
X0077232Y0048244D03*
D15*
X0095441Y0057594D03*
X0097409Y0066945D03*
X0097409Y0071866D03*
X0109713Y0071866D03*
X0098394Y0077772D03*
X0097409Y0086630D03*
X0109713Y0086630D03*
X0120047Y0092043D03*
X0088551Y0097949D03*
X0064437Y0117142D03*
X0068866Y0122555D03*
X0079201Y0120094D03*
X0062469Y0131413D03*
X0046228Y0128953D03*
X0109220Y0130429D03*
X0109220Y0125508D03*
X0139240Y0119602D03*
X0155972Y0114189D03*
X0161878Y0108283D03*
X0170736Y0120094D03*
X0167291Y0137811D03*
X0177626Y0148146D03*
X0227823Y0134366D03*
X0234220Y0128461D03*
X0248984Y0137811D03*
X0203217Y0074819D03*
X0185008Y0073835D03*
X0186976Y0032496D03*
X0049181Y0059071D03*
X0027035Y0094996D03*
M02*
