G75*
%MOIN*%
%OFA0B0*%
%FSLAX25Y25*%
%IPPOS*%
%LPD*%
%AMOC8*
5,1,8,0,0,1.08239X$1,22.5*
%
%ADD10R,0.05906X0.03937*%
%ADD11R,0.05118X0.06299*%
%ADD12R,0.06299X0.05118*%
%ADD13R,0.09843X0.10039*%
%ADD14R,0.06299X0.03150*%
%ADD15R,0.04724X0.02165*%
%ADD16R,0.03150X0.03150*%
%ADD17R,0.02362X0.01969*%
%ADD18R,0.06299X0.08268*%
%ADD19R,0.07480X0.07480*%
%ADD20R,0.07480X0.07087*%
%ADD21R,0.05315X0.01575*%
%ADD22R,0.05906X0.05118*%
%ADD23R,0.05118X0.05906*%
%ADD24R,0.05118X0.05118*%
%ADD25R,0.03937X0.02756*%
D10*
X0106591Y0034996D03*
X0106591Y0057043D03*
D11*
X0168835Y0024287D03*
X0176709Y0024287D03*
X0220921Y0022712D03*
X0228795Y0022712D03*
X0229268Y0035586D03*
X0221394Y0035586D03*
X0219740Y0070941D03*
X0211866Y0070941D03*
X0041079Y0094051D03*
X0033205Y0094051D03*
D12*
X0059110Y0092240D03*
X0059110Y0084366D03*
X0088756Y0080744D03*
X0088756Y0088618D03*
X0083244Y0053421D03*
X0083244Y0045547D03*
X0147811Y0044248D03*
X0147811Y0052122D03*
X0239543Y0096964D03*
X0239543Y0104838D03*
D13*
X0129386Y0063165D03*
X0129386Y0043283D03*
D14*
X0132654Y0109405D03*
X0119268Y0109405D03*
D15*
X0061079Y0068106D03*
X0050843Y0068106D03*
X0050843Y0064366D03*
X0050843Y0060626D03*
X0061079Y0060626D03*
D16*
X0039504Y0056571D03*
X0039504Y0050665D03*
D17*
X0153126Y0080508D03*
X0153126Y0084248D03*
X0153126Y0087988D03*
X0162378Y0087988D03*
X0162378Y0084248D03*
X0162378Y0080508D03*
X0169150Y0053933D03*
X0169150Y0050193D03*
X0169150Y0046452D03*
X0178402Y0046452D03*
X0178402Y0050193D03*
X0178402Y0053933D03*
D18*
X0019543Y0050744D03*
X0019543Y0075153D03*
D19*
X0009504Y0067673D03*
X0009504Y0058224D03*
D20*
X0009504Y0047988D03*
X0009504Y0077909D03*
D21*
X0020055Y0068067D03*
X0020055Y0065508D03*
X0020055Y0062949D03*
X0020055Y0060389D03*
X0020055Y0057830D03*
D22*
X0191197Y0080704D03*
X0191197Y0088185D03*
X0206276Y0055429D03*
X0206276Y0047949D03*
D23*
X0058362Y0047594D03*
X0050882Y0047594D03*
D24*
X0210843Y0087515D03*
X0222654Y0087515D03*
X0228283Y0053657D03*
X0240094Y0053657D03*
D25*
X0122142Y0085074D03*
X0122142Y0088815D03*
X0122142Y0092555D03*
X0112693Y0092555D03*
X0112693Y0085074D03*
M02*
