G75*
%MOIN*%
%OFA0B0*%
%FSLAX25Y25*%
%IPPOS*%
%LPD*%
%AMOC8*
5,1,8,0,0,1.08239X$1,22.5*
%
%ADD10C,0.13398*%
%ADD11OC8,0.06737*%
%ADD12R,0.06706X0.04737*%
%ADD13R,0.05918X0.07099*%
%ADD14R,0.07099X0.05918*%
%ADD15R,0.10643X0.10839*%
%ADD16R,0.07099X0.03950*%
%ADD17R,0.05524X0.02965*%
%ADD18R,0.03950X0.03950*%
%ADD19R,0.03162X0.02769*%
%ADD20R,0.07099X0.09068*%
%ADD21R,0.08280X0.08280*%
%ADD22R,0.08280X0.07887*%
%ADD23R,0.06115X0.02375*%
%ADD24R,0.06706X0.05918*%
%ADD25R,0.05918X0.06706*%
%ADD26R,0.05918X0.05918*%
%ADD27R,0.04737X0.03556*%
%ADD28R,0.06343X0.06343*%
%ADD29R,0.05156X0.05156*%
%ADD30R,0.04959X0.04959*%
D10*
X0012220Y0022358D03*
X0012024Y0117043D03*
X0261827Y0117043D03*
X0261827Y0022949D03*
D11*
X0259465Y0062122D03*
X0259386Y0074366D03*
X0258717Y0088342D03*
X0258835Y0101925D03*
X0098717Y0113697D03*
X0088717Y0113697D03*
D12*
X0106591Y0057043D03*
X0106591Y0034996D03*
D13*
X0168835Y0024287D03*
X0176709Y0024287D03*
X0220921Y0022712D03*
X0228795Y0022712D03*
X0229268Y0035586D03*
X0221394Y0035586D03*
X0219740Y0070941D03*
X0211866Y0070941D03*
X0041079Y0094051D03*
X0033205Y0094051D03*
D14*
X0059110Y0092240D03*
X0059110Y0084366D03*
X0088756Y0080744D03*
X0088756Y0088618D03*
X0083244Y0053421D03*
X0083244Y0045547D03*
X0147811Y0044248D03*
X0147811Y0052122D03*
X0239543Y0096964D03*
X0239543Y0104838D03*
D15*
X0129386Y0063165D03*
X0129386Y0043283D03*
D16*
X0132654Y0109405D03*
X0119268Y0109405D03*
D17*
X0061079Y0068106D03*
X0050843Y0068106D03*
X0050843Y0064366D03*
X0050843Y0060626D03*
X0061079Y0060626D03*
D18*
X0039504Y0056571D03*
X0039504Y0050665D03*
D19*
X0153126Y0080508D03*
X0153126Y0084248D03*
X0153126Y0087988D03*
X0162378Y0087988D03*
X0162378Y0084248D03*
X0162378Y0080508D03*
X0169150Y0053933D03*
X0169150Y0050193D03*
X0169150Y0046452D03*
X0178402Y0046452D03*
X0178402Y0050193D03*
X0178402Y0053933D03*
D20*
X0019543Y0050744D03*
X0019543Y0075153D03*
D21*
X0009504Y0067673D03*
X0009504Y0058224D03*
D22*
X0009504Y0047988D03*
X0009504Y0077909D03*
D23*
X0020055Y0068067D03*
X0020055Y0065508D03*
X0020055Y0062949D03*
X0020055Y0060389D03*
X0020055Y0057830D03*
D24*
X0191197Y0080704D03*
X0191197Y0088185D03*
X0206276Y0055429D03*
X0206276Y0047949D03*
D25*
X0058362Y0047594D03*
X0050882Y0047594D03*
D26*
X0210843Y0087515D03*
X0222654Y0087515D03*
X0228283Y0053657D03*
X0240094Y0053657D03*
D27*
X0122142Y0085074D03*
X0122142Y0088815D03*
X0122142Y0092555D03*
X0112693Y0092555D03*
X0112693Y0085074D03*
D28*
X0049228Y0116452D03*
X0039386Y0116452D03*
X0029543Y0116452D03*
D29*
X0023441Y0094208D03*
X0067929Y0060350D03*
X0083087Y0060153D03*
X0114583Y0077082D03*
X0099819Y0080035D03*
X0142535Y0068421D03*
X0163205Y0059563D03*
X0194504Y0049720D03*
X0163205Y0038500D03*
X0148441Y0022752D03*
X0106118Y0026295D03*
X0030528Y0042830D03*
X0104740Y0109169D03*
X0159661Y0105429D03*
X0177969Y0083972D03*
X0194898Y0023539D03*
D30*
X0259268Y0035350D03*
X0146669Y0084366D03*
X0077378Y0108382D03*
X0073835Y0091059D03*
M02*
