G75*
%MOIN*%
%OFA0B0*%
%FSLAX25Y25*%
%IPPOS*%
%LPD*%
%AMOC8*
5,1,8,0,0,1.08239X$1,22.5*
%
%ADD10OC8,0.05937*%
%ADD11R,0.05543X0.05543*%
%ADD12R,0.04356X0.04356*%
%ADD13C,0.01772*%
%ADD14R,0.04159X0.04159*%
%ADD15C,0.01600*%
D10*
X0088717Y0113697D03*
X0098717Y0113697D03*
X0258835Y0101925D03*
X0258717Y0088342D03*
X0259386Y0074366D03*
X0259465Y0062122D03*
D11*
X0049228Y0116452D03*
X0039386Y0116452D03*
X0029543Y0116452D03*
D12*
X0023441Y0094208D03*
X0067929Y0060350D03*
X0083087Y0060153D03*
X0114583Y0077082D03*
X0099819Y0080035D03*
X0142535Y0068421D03*
X0163205Y0059563D03*
X0194504Y0049720D03*
X0163205Y0038500D03*
X0148441Y0022752D03*
X0106118Y0026295D03*
X0030528Y0042830D03*
X0104740Y0109169D03*
X0159661Y0105429D03*
X0177969Y0083972D03*
X0194898Y0023539D03*
D13*
X0030724Y0042634D02*
X0030528Y0042830D01*
X0030724Y0042634D02*
X0034465Y0042634D01*
X0034465Y0087515D01*
X0023441Y0087319D01*
X0023441Y0094208D01*
X0067929Y0060350D02*
X0083087Y0060350D01*
X0083087Y0060153D01*
X0114583Y0077082D02*
X0142535Y0077082D01*
X0142535Y0068421D01*
X0148441Y0074523D02*
X0160646Y0074523D01*
X0160646Y0105429D01*
X0159661Y0105429D01*
X0148047Y0084366D02*
X0148441Y0074523D01*
X0148441Y0022752D01*
X0163205Y0037909D02*
X0163205Y0038500D01*
X0163205Y0059563D01*
X0183480Y0049720D02*
X0183480Y0075704D01*
X0178362Y0075704D01*
X0178362Y0074523D01*
X0160646Y0074523D01*
X0148047Y0084366D02*
X0146669Y0084366D01*
X0177969Y0083972D02*
X0178362Y0083972D01*
X0178362Y0075704D01*
X0183480Y0049720D02*
X0194504Y0049720D01*
X0194504Y0023539D01*
X0194898Y0023539D01*
X0106118Y0026295D02*
X0099031Y0026295D01*
X0099031Y0080035D01*
X0099031Y0084760D01*
X0104937Y0084760D01*
X0104937Y0109169D01*
X0104740Y0109169D01*
X0099819Y0080035D02*
X0099031Y0080035D01*
D14*
X0073835Y0091059D03*
X0077378Y0108382D03*
X0146669Y0084366D03*
X0259268Y0035350D03*
D15*
X0194898Y0023539D01*
X0073835Y0091059D02*
X0073835Y0108578D01*
X0077378Y0108382D01*
M02*
