G75*
%MOIN*%
%OFA0B0*%
%FSLAX25Y25*%
%IPPOS*%
%LPD*%
%AMOC8*
5,1,8,0,0,1.08239X$1,22.5*
%
%ADD10C,0.00000*%
%ADD11OC8,0.05937*%
%ADD12R,0.05906X0.03937*%
%ADD13R,0.05118X0.06299*%
%ADD14R,0.06299X0.05118*%
%ADD15R,0.09843X0.10039*%
%ADD16R,0.06299X0.03150*%
%ADD17R,0.04724X0.02165*%
%ADD18R,0.03150X0.03150*%
%ADD19R,0.02362X0.01969*%
%ADD20R,0.06299X0.08268*%
%ADD21R,0.07480X0.07480*%
%ADD22R,0.07480X0.07087*%
%ADD23R,0.05315X0.01575*%
%ADD24R,0.05906X0.05118*%
%ADD25R,0.05118X0.05906*%
%ADD26R,0.05118X0.05118*%
%ADD27R,0.03937X0.02756*%
%ADD28R,0.05543X0.05543*%
%ADD29C,0.01772*%
%ADD30R,0.04356X0.04356*%
%ADD31R,0.04159X0.04159*%
%ADD32C,0.01600*%
D10*
X0001000Y0012515D02*
X0001000Y0126098D01*
X0272654Y0126098D01*
X0272654Y0011925D01*
X0001000Y0012515D01*
X0005921Y0022358D02*
X0005923Y0022516D01*
X0005929Y0022674D01*
X0005939Y0022832D01*
X0005953Y0022990D01*
X0005971Y0023147D01*
X0005992Y0023304D01*
X0006018Y0023460D01*
X0006048Y0023616D01*
X0006081Y0023771D01*
X0006119Y0023924D01*
X0006160Y0024077D01*
X0006205Y0024229D01*
X0006254Y0024380D01*
X0006307Y0024529D01*
X0006363Y0024677D01*
X0006423Y0024823D01*
X0006487Y0024968D01*
X0006555Y0025111D01*
X0006626Y0025253D01*
X0006700Y0025393D01*
X0006778Y0025530D01*
X0006860Y0025666D01*
X0006944Y0025800D01*
X0007033Y0025931D01*
X0007124Y0026060D01*
X0007219Y0026187D01*
X0007316Y0026312D01*
X0007417Y0026434D01*
X0007521Y0026553D01*
X0007628Y0026670D01*
X0007738Y0026784D01*
X0007851Y0026895D01*
X0007966Y0027004D01*
X0008084Y0027109D01*
X0008205Y0027211D01*
X0008328Y0027311D01*
X0008454Y0027407D01*
X0008582Y0027500D01*
X0008712Y0027590D01*
X0008845Y0027676D01*
X0008980Y0027760D01*
X0009116Y0027839D01*
X0009255Y0027916D01*
X0009396Y0027988D01*
X0009538Y0028058D01*
X0009682Y0028123D01*
X0009828Y0028185D01*
X0009975Y0028243D01*
X0010124Y0028298D01*
X0010274Y0028349D01*
X0010425Y0028396D01*
X0010577Y0028439D01*
X0010730Y0028478D01*
X0010885Y0028514D01*
X0011040Y0028545D01*
X0011196Y0028573D01*
X0011352Y0028597D01*
X0011509Y0028617D01*
X0011667Y0028633D01*
X0011824Y0028645D01*
X0011983Y0028653D01*
X0012141Y0028657D01*
X0012299Y0028657D01*
X0012457Y0028653D01*
X0012616Y0028645D01*
X0012773Y0028633D01*
X0012931Y0028617D01*
X0013088Y0028597D01*
X0013244Y0028573D01*
X0013400Y0028545D01*
X0013555Y0028514D01*
X0013710Y0028478D01*
X0013863Y0028439D01*
X0014015Y0028396D01*
X0014166Y0028349D01*
X0014316Y0028298D01*
X0014465Y0028243D01*
X0014612Y0028185D01*
X0014758Y0028123D01*
X0014902Y0028058D01*
X0015044Y0027988D01*
X0015185Y0027916D01*
X0015324Y0027839D01*
X0015460Y0027760D01*
X0015595Y0027676D01*
X0015728Y0027590D01*
X0015858Y0027500D01*
X0015986Y0027407D01*
X0016112Y0027311D01*
X0016235Y0027211D01*
X0016356Y0027109D01*
X0016474Y0027004D01*
X0016589Y0026895D01*
X0016702Y0026784D01*
X0016812Y0026670D01*
X0016919Y0026553D01*
X0017023Y0026434D01*
X0017124Y0026312D01*
X0017221Y0026187D01*
X0017316Y0026060D01*
X0017407Y0025931D01*
X0017496Y0025800D01*
X0017580Y0025666D01*
X0017662Y0025530D01*
X0017740Y0025393D01*
X0017814Y0025253D01*
X0017885Y0025111D01*
X0017953Y0024968D01*
X0018017Y0024823D01*
X0018077Y0024677D01*
X0018133Y0024529D01*
X0018186Y0024380D01*
X0018235Y0024229D01*
X0018280Y0024077D01*
X0018321Y0023924D01*
X0018359Y0023771D01*
X0018392Y0023616D01*
X0018422Y0023460D01*
X0018448Y0023304D01*
X0018469Y0023147D01*
X0018487Y0022990D01*
X0018501Y0022832D01*
X0018511Y0022674D01*
X0018517Y0022516D01*
X0018519Y0022358D01*
X0018517Y0022200D01*
X0018511Y0022042D01*
X0018501Y0021884D01*
X0018487Y0021726D01*
X0018469Y0021569D01*
X0018448Y0021412D01*
X0018422Y0021256D01*
X0018392Y0021100D01*
X0018359Y0020945D01*
X0018321Y0020792D01*
X0018280Y0020639D01*
X0018235Y0020487D01*
X0018186Y0020336D01*
X0018133Y0020187D01*
X0018077Y0020039D01*
X0018017Y0019893D01*
X0017953Y0019748D01*
X0017885Y0019605D01*
X0017814Y0019463D01*
X0017740Y0019323D01*
X0017662Y0019186D01*
X0017580Y0019050D01*
X0017496Y0018916D01*
X0017407Y0018785D01*
X0017316Y0018656D01*
X0017221Y0018529D01*
X0017124Y0018404D01*
X0017023Y0018282D01*
X0016919Y0018163D01*
X0016812Y0018046D01*
X0016702Y0017932D01*
X0016589Y0017821D01*
X0016474Y0017712D01*
X0016356Y0017607D01*
X0016235Y0017505D01*
X0016112Y0017405D01*
X0015986Y0017309D01*
X0015858Y0017216D01*
X0015728Y0017126D01*
X0015595Y0017040D01*
X0015460Y0016956D01*
X0015324Y0016877D01*
X0015185Y0016800D01*
X0015044Y0016728D01*
X0014902Y0016658D01*
X0014758Y0016593D01*
X0014612Y0016531D01*
X0014465Y0016473D01*
X0014316Y0016418D01*
X0014166Y0016367D01*
X0014015Y0016320D01*
X0013863Y0016277D01*
X0013710Y0016238D01*
X0013555Y0016202D01*
X0013400Y0016171D01*
X0013244Y0016143D01*
X0013088Y0016119D01*
X0012931Y0016099D01*
X0012773Y0016083D01*
X0012616Y0016071D01*
X0012457Y0016063D01*
X0012299Y0016059D01*
X0012141Y0016059D01*
X0011983Y0016063D01*
X0011824Y0016071D01*
X0011667Y0016083D01*
X0011509Y0016099D01*
X0011352Y0016119D01*
X0011196Y0016143D01*
X0011040Y0016171D01*
X0010885Y0016202D01*
X0010730Y0016238D01*
X0010577Y0016277D01*
X0010425Y0016320D01*
X0010274Y0016367D01*
X0010124Y0016418D01*
X0009975Y0016473D01*
X0009828Y0016531D01*
X0009682Y0016593D01*
X0009538Y0016658D01*
X0009396Y0016728D01*
X0009255Y0016800D01*
X0009116Y0016877D01*
X0008980Y0016956D01*
X0008845Y0017040D01*
X0008712Y0017126D01*
X0008582Y0017216D01*
X0008454Y0017309D01*
X0008328Y0017405D01*
X0008205Y0017505D01*
X0008084Y0017607D01*
X0007966Y0017712D01*
X0007851Y0017821D01*
X0007738Y0017932D01*
X0007628Y0018046D01*
X0007521Y0018163D01*
X0007417Y0018282D01*
X0007316Y0018404D01*
X0007219Y0018529D01*
X0007124Y0018656D01*
X0007033Y0018785D01*
X0006944Y0018916D01*
X0006860Y0019050D01*
X0006778Y0019186D01*
X0006700Y0019323D01*
X0006626Y0019463D01*
X0006555Y0019605D01*
X0006487Y0019748D01*
X0006423Y0019893D01*
X0006363Y0020039D01*
X0006307Y0020187D01*
X0006254Y0020336D01*
X0006205Y0020487D01*
X0006160Y0020639D01*
X0006119Y0020792D01*
X0006081Y0020945D01*
X0006048Y0021100D01*
X0006018Y0021256D01*
X0005992Y0021412D01*
X0005971Y0021569D01*
X0005953Y0021726D01*
X0005939Y0021884D01*
X0005929Y0022042D01*
X0005923Y0022200D01*
X0005921Y0022358D01*
X0005725Y0117043D02*
X0005727Y0117201D01*
X0005733Y0117359D01*
X0005743Y0117517D01*
X0005757Y0117675D01*
X0005775Y0117832D01*
X0005796Y0117989D01*
X0005822Y0118145D01*
X0005852Y0118301D01*
X0005885Y0118456D01*
X0005923Y0118609D01*
X0005964Y0118762D01*
X0006009Y0118914D01*
X0006058Y0119065D01*
X0006111Y0119214D01*
X0006167Y0119362D01*
X0006227Y0119508D01*
X0006291Y0119653D01*
X0006359Y0119796D01*
X0006430Y0119938D01*
X0006504Y0120078D01*
X0006582Y0120215D01*
X0006664Y0120351D01*
X0006748Y0120485D01*
X0006837Y0120616D01*
X0006928Y0120745D01*
X0007023Y0120872D01*
X0007120Y0120997D01*
X0007221Y0121119D01*
X0007325Y0121238D01*
X0007432Y0121355D01*
X0007542Y0121469D01*
X0007655Y0121580D01*
X0007770Y0121689D01*
X0007888Y0121794D01*
X0008009Y0121896D01*
X0008132Y0121996D01*
X0008258Y0122092D01*
X0008386Y0122185D01*
X0008516Y0122275D01*
X0008649Y0122361D01*
X0008784Y0122445D01*
X0008920Y0122524D01*
X0009059Y0122601D01*
X0009200Y0122673D01*
X0009342Y0122743D01*
X0009486Y0122808D01*
X0009632Y0122870D01*
X0009779Y0122928D01*
X0009928Y0122983D01*
X0010078Y0123034D01*
X0010229Y0123081D01*
X0010381Y0123124D01*
X0010534Y0123163D01*
X0010689Y0123199D01*
X0010844Y0123230D01*
X0011000Y0123258D01*
X0011156Y0123282D01*
X0011313Y0123302D01*
X0011471Y0123318D01*
X0011628Y0123330D01*
X0011787Y0123338D01*
X0011945Y0123342D01*
X0012103Y0123342D01*
X0012261Y0123338D01*
X0012420Y0123330D01*
X0012577Y0123318D01*
X0012735Y0123302D01*
X0012892Y0123282D01*
X0013048Y0123258D01*
X0013204Y0123230D01*
X0013359Y0123199D01*
X0013514Y0123163D01*
X0013667Y0123124D01*
X0013819Y0123081D01*
X0013970Y0123034D01*
X0014120Y0122983D01*
X0014269Y0122928D01*
X0014416Y0122870D01*
X0014562Y0122808D01*
X0014706Y0122743D01*
X0014848Y0122673D01*
X0014989Y0122601D01*
X0015128Y0122524D01*
X0015264Y0122445D01*
X0015399Y0122361D01*
X0015532Y0122275D01*
X0015662Y0122185D01*
X0015790Y0122092D01*
X0015916Y0121996D01*
X0016039Y0121896D01*
X0016160Y0121794D01*
X0016278Y0121689D01*
X0016393Y0121580D01*
X0016506Y0121469D01*
X0016616Y0121355D01*
X0016723Y0121238D01*
X0016827Y0121119D01*
X0016928Y0120997D01*
X0017025Y0120872D01*
X0017120Y0120745D01*
X0017211Y0120616D01*
X0017300Y0120485D01*
X0017384Y0120351D01*
X0017466Y0120215D01*
X0017544Y0120078D01*
X0017618Y0119938D01*
X0017689Y0119796D01*
X0017757Y0119653D01*
X0017821Y0119508D01*
X0017881Y0119362D01*
X0017937Y0119214D01*
X0017990Y0119065D01*
X0018039Y0118914D01*
X0018084Y0118762D01*
X0018125Y0118609D01*
X0018163Y0118456D01*
X0018196Y0118301D01*
X0018226Y0118145D01*
X0018252Y0117989D01*
X0018273Y0117832D01*
X0018291Y0117675D01*
X0018305Y0117517D01*
X0018315Y0117359D01*
X0018321Y0117201D01*
X0018323Y0117043D01*
X0018321Y0116885D01*
X0018315Y0116727D01*
X0018305Y0116569D01*
X0018291Y0116411D01*
X0018273Y0116254D01*
X0018252Y0116097D01*
X0018226Y0115941D01*
X0018196Y0115785D01*
X0018163Y0115630D01*
X0018125Y0115477D01*
X0018084Y0115324D01*
X0018039Y0115172D01*
X0017990Y0115021D01*
X0017937Y0114872D01*
X0017881Y0114724D01*
X0017821Y0114578D01*
X0017757Y0114433D01*
X0017689Y0114290D01*
X0017618Y0114148D01*
X0017544Y0114008D01*
X0017466Y0113871D01*
X0017384Y0113735D01*
X0017300Y0113601D01*
X0017211Y0113470D01*
X0017120Y0113341D01*
X0017025Y0113214D01*
X0016928Y0113089D01*
X0016827Y0112967D01*
X0016723Y0112848D01*
X0016616Y0112731D01*
X0016506Y0112617D01*
X0016393Y0112506D01*
X0016278Y0112397D01*
X0016160Y0112292D01*
X0016039Y0112190D01*
X0015916Y0112090D01*
X0015790Y0111994D01*
X0015662Y0111901D01*
X0015532Y0111811D01*
X0015399Y0111725D01*
X0015264Y0111641D01*
X0015128Y0111562D01*
X0014989Y0111485D01*
X0014848Y0111413D01*
X0014706Y0111343D01*
X0014562Y0111278D01*
X0014416Y0111216D01*
X0014269Y0111158D01*
X0014120Y0111103D01*
X0013970Y0111052D01*
X0013819Y0111005D01*
X0013667Y0110962D01*
X0013514Y0110923D01*
X0013359Y0110887D01*
X0013204Y0110856D01*
X0013048Y0110828D01*
X0012892Y0110804D01*
X0012735Y0110784D01*
X0012577Y0110768D01*
X0012420Y0110756D01*
X0012261Y0110748D01*
X0012103Y0110744D01*
X0011945Y0110744D01*
X0011787Y0110748D01*
X0011628Y0110756D01*
X0011471Y0110768D01*
X0011313Y0110784D01*
X0011156Y0110804D01*
X0011000Y0110828D01*
X0010844Y0110856D01*
X0010689Y0110887D01*
X0010534Y0110923D01*
X0010381Y0110962D01*
X0010229Y0111005D01*
X0010078Y0111052D01*
X0009928Y0111103D01*
X0009779Y0111158D01*
X0009632Y0111216D01*
X0009486Y0111278D01*
X0009342Y0111343D01*
X0009200Y0111413D01*
X0009059Y0111485D01*
X0008920Y0111562D01*
X0008784Y0111641D01*
X0008649Y0111725D01*
X0008516Y0111811D01*
X0008386Y0111901D01*
X0008258Y0111994D01*
X0008132Y0112090D01*
X0008009Y0112190D01*
X0007888Y0112292D01*
X0007770Y0112397D01*
X0007655Y0112506D01*
X0007542Y0112617D01*
X0007432Y0112731D01*
X0007325Y0112848D01*
X0007221Y0112967D01*
X0007120Y0113089D01*
X0007023Y0113214D01*
X0006928Y0113341D01*
X0006837Y0113470D01*
X0006748Y0113601D01*
X0006664Y0113735D01*
X0006582Y0113871D01*
X0006504Y0114008D01*
X0006430Y0114148D01*
X0006359Y0114290D01*
X0006291Y0114433D01*
X0006227Y0114578D01*
X0006167Y0114724D01*
X0006111Y0114872D01*
X0006058Y0115021D01*
X0006009Y0115172D01*
X0005964Y0115324D01*
X0005923Y0115477D01*
X0005885Y0115630D01*
X0005852Y0115785D01*
X0005822Y0115941D01*
X0005796Y0116097D01*
X0005775Y0116254D01*
X0005757Y0116411D01*
X0005743Y0116569D01*
X0005733Y0116727D01*
X0005727Y0116885D01*
X0005725Y0117043D01*
X0255528Y0117043D02*
X0255530Y0117201D01*
X0255536Y0117359D01*
X0255546Y0117517D01*
X0255560Y0117675D01*
X0255578Y0117832D01*
X0255599Y0117989D01*
X0255625Y0118145D01*
X0255655Y0118301D01*
X0255688Y0118456D01*
X0255726Y0118609D01*
X0255767Y0118762D01*
X0255812Y0118914D01*
X0255861Y0119065D01*
X0255914Y0119214D01*
X0255970Y0119362D01*
X0256030Y0119508D01*
X0256094Y0119653D01*
X0256162Y0119796D01*
X0256233Y0119938D01*
X0256307Y0120078D01*
X0256385Y0120215D01*
X0256467Y0120351D01*
X0256551Y0120485D01*
X0256640Y0120616D01*
X0256731Y0120745D01*
X0256826Y0120872D01*
X0256923Y0120997D01*
X0257024Y0121119D01*
X0257128Y0121238D01*
X0257235Y0121355D01*
X0257345Y0121469D01*
X0257458Y0121580D01*
X0257573Y0121689D01*
X0257691Y0121794D01*
X0257812Y0121896D01*
X0257935Y0121996D01*
X0258061Y0122092D01*
X0258189Y0122185D01*
X0258319Y0122275D01*
X0258452Y0122361D01*
X0258587Y0122445D01*
X0258723Y0122524D01*
X0258862Y0122601D01*
X0259003Y0122673D01*
X0259145Y0122743D01*
X0259289Y0122808D01*
X0259435Y0122870D01*
X0259582Y0122928D01*
X0259731Y0122983D01*
X0259881Y0123034D01*
X0260032Y0123081D01*
X0260184Y0123124D01*
X0260337Y0123163D01*
X0260492Y0123199D01*
X0260647Y0123230D01*
X0260803Y0123258D01*
X0260959Y0123282D01*
X0261116Y0123302D01*
X0261274Y0123318D01*
X0261431Y0123330D01*
X0261590Y0123338D01*
X0261748Y0123342D01*
X0261906Y0123342D01*
X0262064Y0123338D01*
X0262223Y0123330D01*
X0262380Y0123318D01*
X0262538Y0123302D01*
X0262695Y0123282D01*
X0262851Y0123258D01*
X0263007Y0123230D01*
X0263162Y0123199D01*
X0263317Y0123163D01*
X0263470Y0123124D01*
X0263622Y0123081D01*
X0263773Y0123034D01*
X0263923Y0122983D01*
X0264072Y0122928D01*
X0264219Y0122870D01*
X0264365Y0122808D01*
X0264509Y0122743D01*
X0264651Y0122673D01*
X0264792Y0122601D01*
X0264931Y0122524D01*
X0265067Y0122445D01*
X0265202Y0122361D01*
X0265335Y0122275D01*
X0265465Y0122185D01*
X0265593Y0122092D01*
X0265719Y0121996D01*
X0265842Y0121896D01*
X0265963Y0121794D01*
X0266081Y0121689D01*
X0266196Y0121580D01*
X0266309Y0121469D01*
X0266419Y0121355D01*
X0266526Y0121238D01*
X0266630Y0121119D01*
X0266731Y0120997D01*
X0266828Y0120872D01*
X0266923Y0120745D01*
X0267014Y0120616D01*
X0267103Y0120485D01*
X0267187Y0120351D01*
X0267269Y0120215D01*
X0267347Y0120078D01*
X0267421Y0119938D01*
X0267492Y0119796D01*
X0267560Y0119653D01*
X0267624Y0119508D01*
X0267684Y0119362D01*
X0267740Y0119214D01*
X0267793Y0119065D01*
X0267842Y0118914D01*
X0267887Y0118762D01*
X0267928Y0118609D01*
X0267966Y0118456D01*
X0267999Y0118301D01*
X0268029Y0118145D01*
X0268055Y0117989D01*
X0268076Y0117832D01*
X0268094Y0117675D01*
X0268108Y0117517D01*
X0268118Y0117359D01*
X0268124Y0117201D01*
X0268126Y0117043D01*
X0268124Y0116885D01*
X0268118Y0116727D01*
X0268108Y0116569D01*
X0268094Y0116411D01*
X0268076Y0116254D01*
X0268055Y0116097D01*
X0268029Y0115941D01*
X0267999Y0115785D01*
X0267966Y0115630D01*
X0267928Y0115477D01*
X0267887Y0115324D01*
X0267842Y0115172D01*
X0267793Y0115021D01*
X0267740Y0114872D01*
X0267684Y0114724D01*
X0267624Y0114578D01*
X0267560Y0114433D01*
X0267492Y0114290D01*
X0267421Y0114148D01*
X0267347Y0114008D01*
X0267269Y0113871D01*
X0267187Y0113735D01*
X0267103Y0113601D01*
X0267014Y0113470D01*
X0266923Y0113341D01*
X0266828Y0113214D01*
X0266731Y0113089D01*
X0266630Y0112967D01*
X0266526Y0112848D01*
X0266419Y0112731D01*
X0266309Y0112617D01*
X0266196Y0112506D01*
X0266081Y0112397D01*
X0265963Y0112292D01*
X0265842Y0112190D01*
X0265719Y0112090D01*
X0265593Y0111994D01*
X0265465Y0111901D01*
X0265335Y0111811D01*
X0265202Y0111725D01*
X0265067Y0111641D01*
X0264931Y0111562D01*
X0264792Y0111485D01*
X0264651Y0111413D01*
X0264509Y0111343D01*
X0264365Y0111278D01*
X0264219Y0111216D01*
X0264072Y0111158D01*
X0263923Y0111103D01*
X0263773Y0111052D01*
X0263622Y0111005D01*
X0263470Y0110962D01*
X0263317Y0110923D01*
X0263162Y0110887D01*
X0263007Y0110856D01*
X0262851Y0110828D01*
X0262695Y0110804D01*
X0262538Y0110784D01*
X0262380Y0110768D01*
X0262223Y0110756D01*
X0262064Y0110748D01*
X0261906Y0110744D01*
X0261748Y0110744D01*
X0261590Y0110748D01*
X0261431Y0110756D01*
X0261274Y0110768D01*
X0261116Y0110784D01*
X0260959Y0110804D01*
X0260803Y0110828D01*
X0260647Y0110856D01*
X0260492Y0110887D01*
X0260337Y0110923D01*
X0260184Y0110962D01*
X0260032Y0111005D01*
X0259881Y0111052D01*
X0259731Y0111103D01*
X0259582Y0111158D01*
X0259435Y0111216D01*
X0259289Y0111278D01*
X0259145Y0111343D01*
X0259003Y0111413D01*
X0258862Y0111485D01*
X0258723Y0111562D01*
X0258587Y0111641D01*
X0258452Y0111725D01*
X0258319Y0111811D01*
X0258189Y0111901D01*
X0258061Y0111994D01*
X0257935Y0112090D01*
X0257812Y0112190D01*
X0257691Y0112292D01*
X0257573Y0112397D01*
X0257458Y0112506D01*
X0257345Y0112617D01*
X0257235Y0112731D01*
X0257128Y0112848D01*
X0257024Y0112967D01*
X0256923Y0113089D01*
X0256826Y0113214D01*
X0256731Y0113341D01*
X0256640Y0113470D01*
X0256551Y0113601D01*
X0256467Y0113735D01*
X0256385Y0113871D01*
X0256307Y0114008D01*
X0256233Y0114148D01*
X0256162Y0114290D01*
X0256094Y0114433D01*
X0256030Y0114578D01*
X0255970Y0114724D01*
X0255914Y0114872D01*
X0255861Y0115021D01*
X0255812Y0115172D01*
X0255767Y0115324D01*
X0255726Y0115477D01*
X0255688Y0115630D01*
X0255655Y0115785D01*
X0255625Y0115941D01*
X0255599Y0116097D01*
X0255578Y0116254D01*
X0255560Y0116411D01*
X0255546Y0116569D01*
X0255536Y0116727D01*
X0255530Y0116885D01*
X0255528Y0117043D01*
X0255528Y0022949D02*
X0255530Y0023107D01*
X0255536Y0023265D01*
X0255546Y0023423D01*
X0255560Y0023581D01*
X0255578Y0023738D01*
X0255599Y0023895D01*
X0255625Y0024051D01*
X0255655Y0024207D01*
X0255688Y0024362D01*
X0255726Y0024515D01*
X0255767Y0024668D01*
X0255812Y0024820D01*
X0255861Y0024971D01*
X0255914Y0025120D01*
X0255970Y0025268D01*
X0256030Y0025414D01*
X0256094Y0025559D01*
X0256162Y0025702D01*
X0256233Y0025844D01*
X0256307Y0025984D01*
X0256385Y0026121D01*
X0256467Y0026257D01*
X0256551Y0026391D01*
X0256640Y0026522D01*
X0256731Y0026651D01*
X0256826Y0026778D01*
X0256923Y0026903D01*
X0257024Y0027025D01*
X0257128Y0027144D01*
X0257235Y0027261D01*
X0257345Y0027375D01*
X0257458Y0027486D01*
X0257573Y0027595D01*
X0257691Y0027700D01*
X0257812Y0027802D01*
X0257935Y0027902D01*
X0258061Y0027998D01*
X0258189Y0028091D01*
X0258319Y0028181D01*
X0258452Y0028267D01*
X0258587Y0028351D01*
X0258723Y0028430D01*
X0258862Y0028507D01*
X0259003Y0028579D01*
X0259145Y0028649D01*
X0259289Y0028714D01*
X0259435Y0028776D01*
X0259582Y0028834D01*
X0259731Y0028889D01*
X0259881Y0028940D01*
X0260032Y0028987D01*
X0260184Y0029030D01*
X0260337Y0029069D01*
X0260492Y0029105D01*
X0260647Y0029136D01*
X0260803Y0029164D01*
X0260959Y0029188D01*
X0261116Y0029208D01*
X0261274Y0029224D01*
X0261431Y0029236D01*
X0261590Y0029244D01*
X0261748Y0029248D01*
X0261906Y0029248D01*
X0262064Y0029244D01*
X0262223Y0029236D01*
X0262380Y0029224D01*
X0262538Y0029208D01*
X0262695Y0029188D01*
X0262851Y0029164D01*
X0263007Y0029136D01*
X0263162Y0029105D01*
X0263317Y0029069D01*
X0263470Y0029030D01*
X0263622Y0028987D01*
X0263773Y0028940D01*
X0263923Y0028889D01*
X0264072Y0028834D01*
X0264219Y0028776D01*
X0264365Y0028714D01*
X0264509Y0028649D01*
X0264651Y0028579D01*
X0264792Y0028507D01*
X0264931Y0028430D01*
X0265067Y0028351D01*
X0265202Y0028267D01*
X0265335Y0028181D01*
X0265465Y0028091D01*
X0265593Y0027998D01*
X0265719Y0027902D01*
X0265842Y0027802D01*
X0265963Y0027700D01*
X0266081Y0027595D01*
X0266196Y0027486D01*
X0266309Y0027375D01*
X0266419Y0027261D01*
X0266526Y0027144D01*
X0266630Y0027025D01*
X0266731Y0026903D01*
X0266828Y0026778D01*
X0266923Y0026651D01*
X0267014Y0026522D01*
X0267103Y0026391D01*
X0267187Y0026257D01*
X0267269Y0026121D01*
X0267347Y0025984D01*
X0267421Y0025844D01*
X0267492Y0025702D01*
X0267560Y0025559D01*
X0267624Y0025414D01*
X0267684Y0025268D01*
X0267740Y0025120D01*
X0267793Y0024971D01*
X0267842Y0024820D01*
X0267887Y0024668D01*
X0267928Y0024515D01*
X0267966Y0024362D01*
X0267999Y0024207D01*
X0268029Y0024051D01*
X0268055Y0023895D01*
X0268076Y0023738D01*
X0268094Y0023581D01*
X0268108Y0023423D01*
X0268118Y0023265D01*
X0268124Y0023107D01*
X0268126Y0022949D01*
X0268124Y0022791D01*
X0268118Y0022633D01*
X0268108Y0022475D01*
X0268094Y0022317D01*
X0268076Y0022160D01*
X0268055Y0022003D01*
X0268029Y0021847D01*
X0267999Y0021691D01*
X0267966Y0021536D01*
X0267928Y0021383D01*
X0267887Y0021230D01*
X0267842Y0021078D01*
X0267793Y0020927D01*
X0267740Y0020778D01*
X0267684Y0020630D01*
X0267624Y0020484D01*
X0267560Y0020339D01*
X0267492Y0020196D01*
X0267421Y0020054D01*
X0267347Y0019914D01*
X0267269Y0019777D01*
X0267187Y0019641D01*
X0267103Y0019507D01*
X0267014Y0019376D01*
X0266923Y0019247D01*
X0266828Y0019120D01*
X0266731Y0018995D01*
X0266630Y0018873D01*
X0266526Y0018754D01*
X0266419Y0018637D01*
X0266309Y0018523D01*
X0266196Y0018412D01*
X0266081Y0018303D01*
X0265963Y0018198D01*
X0265842Y0018096D01*
X0265719Y0017996D01*
X0265593Y0017900D01*
X0265465Y0017807D01*
X0265335Y0017717D01*
X0265202Y0017631D01*
X0265067Y0017547D01*
X0264931Y0017468D01*
X0264792Y0017391D01*
X0264651Y0017319D01*
X0264509Y0017249D01*
X0264365Y0017184D01*
X0264219Y0017122D01*
X0264072Y0017064D01*
X0263923Y0017009D01*
X0263773Y0016958D01*
X0263622Y0016911D01*
X0263470Y0016868D01*
X0263317Y0016829D01*
X0263162Y0016793D01*
X0263007Y0016762D01*
X0262851Y0016734D01*
X0262695Y0016710D01*
X0262538Y0016690D01*
X0262380Y0016674D01*
X0262223Y0016662D01*
X0262064Y0016654D01*
X0261906Y0016650D01*
X0261748Y0016650D01*
X0261590Y0016654D01*
X0261431Y0016662D01*
X0261274Y0016674D01*
X0261116Y0016690D01*
X0260959Y0016710D01*
X0260803Y0016734D01*
X0260647Y0016762D01*
X0260492Y0016793D01*
X0260337Y0016829D01*
X0260184Y0016868D01*
X0260032Y0016911D01*
X0259881Y0016958D01*
X0259731Y0017009D01*
X0259582Y0017064D01*
X0259435Y0017122D01*
X0259289Y0017184D01*
X0259145Y0017249D01*
X0259003Y0017319D01*
X0258862Y0017391D01*
X0258723Y0017468D01*
X0258587Y0017547D01*
X0258452Y0017631D01*
X0258319Y0017717D01*
X0258189Y0017807D01*
X0258061Y0017900D01*
X0257935Y0017996D01*
X0257812Y0018096D01*
X0257691Y0018198D01*
X0257573Y0018303D01*
X0257458Y0018412D01*
X0257345Y0018523D01*
X0257235Y0018637D01*
X0257128Y0018754D01*
X0257024Y0018873D01*
X0256923Y0018995D01*
X0256826Y0019120D01*
X0256731Y0019247D01*
X0256640Y0019376D01*
X0256551Y0019507D01*
X0256467Y0019641D01*
X0256385Y0019777D01*
X0256307Y0019914D01*
X0256233Y0020054D01*
X0256162Y0020196D01*
X0256094Y0020339D01*
X0256030Y0020484D01*
X0255970Y0020630D01*
X0255914Y0020778D01*
X0255861Y0020927D01*
X0255812Y0021078D01*
X0255767Y0021230D01*
X0255726Y0021383D01*
X0255688Y0021536D01*
X0255655Y0021691D01*
X0255625Y0021847D01*
X0255599Y0022003D01*
X0255578Y0022160D01*
X0255560Y0022317D01*
X0255546Y0022475D01*
X0255536Y0022633D01*
X0255530Y0022791D01*
X0255528Y0022949D01*
D11*
X0259465Y0062122D03*
X0259386Y0074366D03*
X0258717Y0088342D03*
X0258835Y0101925D03*
X0098717Y0113697D03*
X0088717Y0113697D03*
D12*
X0106591Y0057043D03*
X0106591Y0034996D03*
D13*
X0168835Y0024287D03*
X0176709Y0024287D03*
X0220921Y0022712D03*
X0228795Y0022712D03*
X0229268Y0035586D03*
X0221394Y0035586D03*
X0219740Y0070941D03*
X0211866Y0070941D03*
X0041079Y0094051D03*
X0033205Y0094051D03*
D14*
X0059110Y0092240D03*
X0059110Y0084366D03*
X0088756Y0080744D03*
X0088756Y0088618D03*
X0083244Y0053421D03*
X0083244Y0045547D03*
X0147811Y0044248D03*
X0147811Y0052122D03*
X0239543Y0096964D03*
X0239543Y0104838D03*
D15*
X0129386Y0063165D03*
X0129386Y0043283D03*
D16*
X0132654Y0109405D03*
X0119268Y0109405D03*
D17*
X0061079Y0068106D03*
X0050843Y0068106D03*
X0050843Y0064366D03*
X0050843Y0060626D03*
X0061079Y0060626D03*
D18*
X0039504Y0056571D03*
X0039504Y0050665D03*
D19*
X0153126Y0080508D03*
X0153126Y0084248D03*
X0153126Y0087988D03*
X0162378Y0087988D03*
X0162378Y0084248D03*
X0162378Y0080508D03*
X0169150Y0053933D03*
X0169150Y0050193D03*
X0169150Y0046452D03*
X0178402Y0046452D03*
X0178402Y0050193D03*
X0178402Y0053933D03*
D20*
X0019543Y0050744D03*
X0019543Y0075153D03*
D21*
X0009504Y0067673D03*
X0009504Y0058224D03*
D22*
X0009504Y0047988D03*
X0009504Y0077909D03*
D23*
X0020055Y0068067D03*
X0020055Y0065508D03*
X0020055Y0062949D03*
X0020055Y0060389D03*
X0020055Y0057830D03*
D24*
X0191197Y0080704D03*
X0191197Y0088185D03*
X0206276Y0055429D03*
X0206276Y0047949D03*
D25*
X0058362Y0047594D03*
X0050882Y0047594D03*
D26*
X0210843Y0087515D03*
X0222654Y0087515D03*
X0228283Y0053657D03*
X0240094Y0053657D03*
D27*
X0122142Y0085074D03*
X0122142Y0088815D03*
X0122142Y0092555D03*
X0112693Y0092555D03*
X0112693Y0085074D03*
D28*
X0049228Y0116452D03*
X0039386Y0116452D03*
X0029543Y0116452D03*
D29*
X0022116Y0112153D02*
X0022630Y0110913D01*
X0024004Y0109539D01*
X0025800Y0108795D01*
X0033287Y0108795D01*
X0033823Y0109017D01*
X0033897Y0104609D01*
X0033891Y0103540D01*
X0033915Y0103480D01*
X0033916Y0103416D01*
X0034342Y0102435D01*
X0034746Y0101446D01*
X0034791Y0101400D01*
X0034817Y0101341D01*
X0035291Y0100882D01*
X0034378Y0099968D01*
X0034012Y0099086D01*
X0033598Y0099086D01*
X0033598Y0094445D01*
X0032811Y0094445D01*
X0032811Y0099086D01*
X0030397Y0099086D01*
X0029918Y0098958D01*
X0029488Y0098710D01*
X0029137Y0098358D01*
X0028888Y0097928D01*
X0028760Y0097449D01*
X0028760Y0094445D01*
X0032811Y0094445D01*
X0032811Y0093657D01*
X0033598Y0093657D01*
X0033598Y0089015D01*
X0034012Y0089015D01*
X0034378Y0088134D01*
X0035752Y0086759D01*
X0037165Y0086174D01*
X0035674Y0084682D01*
X0034795Y0082561D01*
X0034795Y0073838D01*
X0027579Y0073838D01*
X0027579Y0080259D01*
X0026835Y0082055D01*
X0025461Y0083429D01*
X0023665Y0084173D01*
X0017406Y0084173D01*
X0017386Y0084220D01*
X0016012Y0085594D01*
X0014216Y0086338D01*
X0005886Y0086338D01*
X0005886Y0107671D01*
X0007706Y0106620D01*
X0010551Y0105858D01*
X0013496Y0105858D01*
X0016341Y0106620D01*
X0018891Y0108093D01*
X0020974Y0110175D01*
X0022116Y0112153D01*
X0022332Y0111632D02*
X0021815Y0111632D01*
X0020660Y0109861D02*
X0023681Y0109861D01*
X0018889Y0108091D02*
X0033839Y0108091D01*
X0033868Y0106321D02*
X0015225Y0106321D01*
X0008823Y0106321D02*
X0005886Y0106321D01*
X0005886Y0104551D02*
X0033896Y0104551D01*
X0034192Y0102781D02*
X0005886Y0102781D01*
X0005886Y0101011D02*
X0035158Y0101011D01*
X0034076Y0099240D02*
X0005886Y0099240D01*
X0005886Y0097470D02*
X0028766Y0097470D01*
X0028760Y0095700D02*
X0005886Y0095700D01*
X0005886Y0093930D02*
X0032811Y0093930D01*
X0032811Y0093657D02*
X0028760Y0093657D01*
X0028760Y0090653D01*
X0028888Y0090173D01*
X0029137Y0089743D01*
X0029488Y0089392D01*
X0029918Y0089144D01*
X0030397Y0089015D01*
X0032811Y0089015D01*
X0032811Y0093657D01*
X0033205Y0094051D02*
X0023441Y0094051D01*
X0023441Y0094208D01*
X0023638Y0100704D01*
X0059661Y0100704D01*
X0088992Y0100901D01*
X0088598Y0109169D01*
X0088717Y0113697D01*
X0088756Y0109169D01*
X0088756Y0098736D01*
X0099425Y0098933D01*
X0100016Y0092555D01*
X0112693Y0092555D01*
X0112693Y0092555D01*
X0112693Y0095819D01*
X0114910Y0095819D01*
X0115389Y0095690D01*
X0115570Y0095586D01*
X0116031Y0096700D01*
X0117406Y0098075D01*
X0119201Y0098819D01*
X0124953Y0098819D01*
X0124953Y0101656D01*
X0125831Y0103777D01*
X0126240Y0104185D01*
X0125961Y0104464D01*
X0125185Y0103688D01*
X0123389Y0102945D01*
X0115146Y0102945D01*
X0113483Y0103634D01*
X0110470Y0103634D01*
X0109686Y0102849D01*
X0107890Y0102105D01*
X0101590Y0102105D01*
X0099795Y0102849D01*
X0098420Y0104223D01*
X0097750Y0105842D01*
X0095463Y0105842D01*
X0091595Y0109710D01*
X0090727Y0108842D01*
X0088815Y0108842D01*
X0088815Y0113598D01*
X0088618Y0113598D01*
X0088618Y0108842D01*
X0086706Y0108842D01*
X0084343Y0111205D01*
X0084343Y0105330D01*
X0083599Y0103534D01*
X0083186Y0103121D01*
X0082877Y0102386D01*
X0082550Y0101469D01*
X0082441Y0101348D01*
X0082378Y0101199D01*
X0081686Y0100514D01*
X0081032Y0099791D01*
X0080886Y0099722D01*
X0080771Y0099608D01*
X0079869Y0099240D01*
X0078988Y0098822D01*
X0078826Y0098814D01*
X0078676Y0098753D01*
X0077702Y0098758D01*
X0076729Y0098709D01*
X0076576Y0098764D01*
X0051960Y0098891D01*
X0053531Y0097320D01*
X0054244Y0095598D01*
X0054452Y0095957D01*
X0054803Y0096308D01*
X0055233Y0096556D01*
X0055712Y0096685D01*
X0058717Y0096685D01*
X0058717Y0092634D01*
X0059504Y0092634D01*
X0059504Y0096685D01*
X0062508Y0096685D01*
X0062988Y0096556D01*
X0063418Y0096308D01*
X0063769Y0095957D01*
X0064017Y0095527D01*
X0064146Y0095047D01*
X0064146Y0092634D01*
X0059504Y0092634D01*
X0059504Y0091846D01*
X0064146Y0091846D01*
X0064146Y0091432D01*
X0065027Y0091067D01*
X0066402Y0089692D01*
X0066869Y0088564D01*
X0066869Y0094110D01*
X0067613Y0095906D01*
X0068988Y0097280D01*
X0070783Y0098024D01*
X0076886Y0098024D01*
X0078682Y0097280D01*
X0080056Y0095906D01*
X0080800Y0094110D01*
X0080800Y0088007D01*
X0080056Y0086212D01*
X0079324Y0085479D01*
X0079324Y0080012D01*
X0079409Y0079805D01*
X0079409Y0078130D01*
X0080720Y0078130D01*
X0080720Y0084275D01*
X0081464Y0086070D01*
X0082839Y0087445D01*
X0083720Y0087810D01*
X0083720Y0088224D01*
X0088362Y0088224D01*
X0088362Y0089012D01*
X0088362Y0093063D01*
X0085358Y0093063D01*
X0084878Y0092934D01*
X0084448Y0092686D01*
X0084097Y0092335D01*
X0083849Y0091905D01*
X0083720Y0091425D01*
X0083720Y0089012D01*
X0088362Y0089012D01*
X0089150Y0089012D01*
X0089150Y0093063D01*
X0092154Y0093063D01*
X0092633Y0092934D01*
X0093063Y0092686D01*
X0093415Y0092335D01*
X0093663Y0091905D01*
X0093791Y0091425D01*
X0093791Y0089012D01*
X0089150Y0089012D01*
X0089150Y0088224D01*
X0093791Y0088224D01*
X0093791Y0087810D01*
X0094178Y0087650D01*
X0094335Y0088029D01*
X0095959Y0089652D01*
X0098080Y0090531D01*
X0107894Y0090531D01*
X0107957Y0090594D01*
X0108839Y0090960D01*
X0108839Y0092555D01*
X0112693Y0092555D01*
X0112693Y0095819D01*
X0110476Y0095819D01*
X0109997Y0095690D01*
X0109566Y0095442D01*
X0109215Y0095091D01*
X0108967Y0094661D01*
X0108839Y0094181D01*
X0108839Y0092555D01*
X0112693Y0092555D01*
X0112693Y0092555D01*
X0112693Y0093930D02*
X0112693Y0093930D01*
X0112693Y0095700D02*
X0112693Y0095700D01*
X0115352Y0095700D02*
X0115617Y0095700D01*
X0116801Y0097470D02*
X0078223Y0097470D01*
X0079871Y0099240D02*
X0124953Y0099240D01*
X0124953Y0101011D02*
X0082188Y0101011D01*
X0083043Y0102781D02*
X0099959Y0102781D01*
X0098285Y0104551D02*
X0084021Y0104551D01*
X0084343Y0106321D02*
X0094984Y0106321D01*
X0093214Y0108091D02*
X0084343Y0108091D01*
X0084343Y0109861D02*
X0085687Y0109861D01*
X0088618Y0109861D02*
X0088815Y0109861D01*
X0088815Y0111632D02*
X0088618Y0111632D01*
X0088618Y0113402D02*
X0088815Y0113402D01*
X0104740Y0109405D02*
X0104740Y0109169D01*
X0104740Y0109405D02*
X0119268Y0109405D01*
X0125419Y0102781D02*
X0109521Y0102781D01*
X0110034Y0095700D02*
X0080141Y0095700D01*
X0080800Y0093930D02*
X0108839Y0093930D01*
X0108839Y0092160D02*
X0093516Y0092160D01*
X0093791Y0090390D02*
X0097739Y0090390D01*
X0094926Y0088619D02*
X0089150Y0088619D01*
X0088756Y0088618D02*
X0088756Y0098736D01*
X0088362Y0092160D02*
X0089150Y0092160D01*
X0089150Y0090390D02*
X0088362Y0090390D01*
X0088362Y0088619D02*
X0080800Y0088619D01*
X0080800Y0090390D02*
X0083720Y0090390D01*
X0083996Y0092160D02*
X0080800Y0092160D01*
X0080320Y0086849D02*
X0082243Y0086849D01*
X0081054Y0085079D02*
X0079324Y0085079D01*
X0079324Y0083309D02*
X0080720Y0083309D01*
X0080720Y0081539D02*
X0079324Y0081539D01*
X0079409Y0079769D02*
X0080720Y0079769D01*
X0073638Y0078657D02*
X0073638Y0072358D01*
X0088402Y0072358D01*
X0106591Y0072358D01*
X0114583Y0072358D01*
X0114583Y0077082D01*
X0121646Y0076228D02*
X0124422Y0076228D01*
X0124311Y0074458D02*
X0121646Y0074458D01*
X0121646Y0073933D02*
X0121646Y0078811D01*
X0124583Y0078811D01*
X0124224Y0073071D01*
X0123493Y0073071D01*
X0121697Y0072327D01*
X0120323Y0070952D01*
X0119579Y0069157D01*
X0119579Y0057173D01*
X0120323Y0055378D01*
X0121697Y0054003D01*
X0123493Y0053260D01*
X0134205Y0053260D01*
X0134205Y0050189D01*
X0130272Y0050189D01*
X0130272Y0044169D01*
X0128500Y0044169D01*
X0128500Y0050189D01*
X0124216Y0050189D01*
X0123737Y0050060D01*
X0123307Y0049812D01*
X0122956Y0049461D01*
X0122707Y0049031D01*
X0122579Y0048551D01*
X0122579Y0044169D01*
X0128500Y0044169D01*
X0128500Y0042397D01*
X0130272Y0042397D01*
X0130272Y0036378D01*
X0134205Y0036378D01*
X0134205Y0035777D01*
X0135083Y0033655D01*
X0136707Y0032032D01*
X0137715Y0031614D01*
X0138479Y0030851D01*
X0140600Y0029972D01*
X0149195Y0029972D01*
X0151317Y0030851D01*
X0152940Y0032474D01*
X0153819Y0034596D01*
X0153819Y0037637D01*
X0155103Y0038921D01*
X0155846Y0040717D01*
X0155846Y0047779D01*
X0155103Y0049574D01*
X0153728Y0050949D01*
X0152846Y0051314D01*
X0152846Y0051728D01*
X0148205Y0051728D01*
X0148205Y0052515D01*
X0152846Y0052515D01*
X0152846Y0054929D01*
X0152718Y0055409D01*
X0152470Y0055839D01*
X0152119Y0056190D01*
X0151689Y0056438D01*
X0151209Y0056567D01*
X0148205Y0056567D01*
X0148205Y0052516D01*
X0147417Y0052516D01*
X0147417Y0056567D01*
X0145748Y0056567D01*
X0145748Y0061383D01*
X0147481Y0062101D01*
X0148029Y0062649D01*
X0156141Y0062649D01*
X0156141Y0056413D01*
X0156885Y0054617D01*
X0157433Y0054069D01*
X0157433Y0052706D01*
X0158312Y0050585D01*
X0158906Y0049990D01*
X0158873Y0049960D01*
X0158810Y0049826D01*
X0158705Y0049722D01*
X0158321Y0048793D01*
X0157891Y0047884D01*
X0157883Y0047737D01*
X0157827Y0047601D01*
X0157827Y0046595D01*
X0157712Y0044272D01*
X0156885Y0043445D01*
X0156141Y0041649D01*
X0156141Y0035350D01*
X0156885Y0033554D01*
X0158259Y0032180D01*
X0160055Y0031436D01*
X0166355Y0031436D01*
X0168150Y0032180D01*
X0168699Y0032728D01*
X0178299Y0032728D01*
X0178299Y0032323D01*
X0173178Y0032323D01*
X0171382Y0031579D01*
X0170008Y0030204D01*
X0149755Y0030204D01*
X0152440Y0031974D02*
X0158755Y0031974D01*
X0156806Y0033744D02*
X0153466Y0033744D01*
X0153819Y0035515D02*
X0156141Y0035515D01*
X0156141Y0037285D02*
X0153819Y0037285D01*
X0155158Y0039055D02*
X0156141Y0039055D01*
X0156141Y0040825D02*
X0155846Y0040825D01*
X0155846Y0042595D02*
X0156533Y0042595D01*
X0155846Y0044365D02*
X0157716Y0044365D01*
X0157804Y0046136D02*
X0155846Y0046136D01*
X0155794Y0047906D02*
X0157901Y0047906D01*
X0158686Y0049676D02*
X0155001Y0049676D01*
X0157102Y0050193D02*
X0157102Y0062515D01*
X0148047Y0062515D01*
X0148047Y0052122D01*
X0147811Y0052122D01*
X0147417Y0053216D02*
X0148205Y0053216D01*
X0148205Y0054986D02*
X0147417Y0054986D01*
X0145748Y0056757D02*
X0156141Y0056757D01*
X0156141Y0058527D02*
X0145748Y0058527D01*
X0145748Y0060297D02*
X0156141Y0060297D01*
X0156141Y0062067D02*
X0147399Y0062067D01*
X0142535Y0068421D02*
X0139976Y0068421D01*
X0139976Y0036925D01*
X0141748Y0036925D01*
X0141748Y0035744D01*
X0148047Y0035744D01*
X0148047Y0044248D01*
X0147811Y0044248D01*
X0157102Y0050193D02*
X0157102Y0024287D01*
X0157102Y0022949D01*
X0148047Y0022949D01*
X0148441Y0022752D01*
X0129346Y0021964D01*
X0131118Y0021964D01*
X0129346Y0021964D02*
X0083480Y0021964D01*
X0083283Y0036334D01*
X0030724Y0036531D01*
X0030528Y0042830D01*
X0030724Y0042830D01*
X0030724Y0057791D01*
X0020055Y0057791D01*
X0020055Y0057830D01*
X0027013Y0057216D02*
X0027598Y0058630D01*
X0027598Y0062295D01*
X0033948Y0062295D01*
X0033732Y0061774D01*
X0033732Y0060781D01*
X0033043Y0059117D01*
X0033043Y0054024D01*
X0033212Y0053618D01*
X0033043Y0053212D01*
X0033043Y0048118D01*
X0033787Y0046323D01*
X0033811Y0046299D01*
X0033811Y0046210D01*
X0034690Y0044089D01*
X0036313Y0042465D01*
X0038435Y0041586D01*
X0044468Y0041586D01*
X0045555Y0040499D01*
X0047351Y0039756D01*
X0054413Y0039756D01*
X0054622Y0039842D01*
X0054831Y0039756D01*
X0061893Y0039756D01*
X0063689Y0040499D01*
X0064927Y0041737D01*
X0072454Y0041640D01*
X0072490Y0041626D01*
X0073601Y0041626D01*
X0074711Y0041611D01*
X0074747Y0041626D01*
X0074786Y0041626D01*
X0075813Y0042051D01*
X0076844Y0042463D01*
X0076871Y0042490D01*
X0076907Y0042504D01*
X0077693Y0043290D01*
X0078209Y0043793D01*
X0078209Y0042740D01*
X0078337Y0042260D01*
X0078585Y0041830D01*
X0078937Y0041479D01*
X0079367Y0041231D01*
X0079846Y0041102D01*
X0082850Y0041102D01*
X0082850Y0045153D01*
X0083638Y0045153D01*
X0083638Y0045941D01*
X0088280Y0045941D01*
X0088280Y0046355D01*
X0089161Y0046720D01*
X0090536Y0048094D01*
X0091280Y0049890D01*
X0091280Y0056952D01*
X0090536Y0058748D01*
X0090150Y0059133D01*
X0090150Y0063303D01*
X0089407Y0065099D01*
X0088032Y0066473D01*
X0087759Y0066586D01*
X0100819Y0066586D01*
X0100819Y0063102D01*
X0099496Y0061779D01*
X0098752Y0059983D01*
X0098752Y0054103D01*
X0099496Y0052307D01*
X0100870Y0050932D01*
X0102666Y0050189D01*
X0110515Y0050189D01*
X0112311Y0050932D01*
X0113685Y0052307D01*
X0114429Y0054103D01*
X0114429Y0059983D01*
X0113685Y0061779D01*
X0112362Y0063102D01*
X0112362Y0066586D01*
X0115731Y0066586D01*
X0117852Y0067465D01*
X0119476Y0069089D01*
X0120354Y0071210D01*
X0120354Y0071589D01*
X0120903Y0072137D01*
X0121646Y0073933D01*
X0121131Y0072688D02*
X0122569Y0072688D01*
X0120308Y0070918D02*
X0120233Y0070918D01*
X0119579Y0069148D02*
X0119500Y0069148D01*
X0119579Y0067377D02*
X0117641Y0067377D01*
X0119579Y0065607D02*
X0112362Y0065607D01*
X0112362Y0063837D02*
X0119579Y0063837D01*
X0119579Y0062067D02*
X0113397Y0062067D01*
X0114299Y0060297D02*
X0119579Y0060297D01*
X0119579Y0058527D02*
X0114429Y0058527D01*
X0114429Y0056757D02*
X0119751Y0056757D01*
X0120714Y0054986D02*
X0114429Y0054986D01*
X0114062Y0053216D02*
X0134205Y0053216D01*
X0134205Y0051446D02*
X0112824Y0051446D01*
X0106591Y0057043D02*
X0106591Y0072358D01*
X0099819Y0080035D02*
X0099228Y0080035D01*
X0099228Y0084760D01*
X0112693Y0084760D01*
X0112693Y0085074D01*
X0122142Y0085153D02*
X0122142Y0085074D01*
X0122142Y0085153D02*
X0130528Y0085153D01*
X0130764Y0085153D01*
X0129386Y0063165D01*
X0139583Y0068421D02*
X0139583Y0080429D01*
X0139583Y0088106D01*
X0143323Y0088106D01*
X0143323Y0090271D01*
X0149425Y0090271D01*
X0149425Y0088106D01*
X0153126Y0088106D01*
X0153126Y0087988D01*
X0153126Y0084248D02*
X0146669Y0084248D01*
X0146669Y0084366D01*
X0146433Y0080429D02*
X0153126Y0080508D01*
X0146433Y0080429D02*
X0139583Y0080429D01*
X0130528Y0085153D02*
X0130528Y0088303D01*
X0130724Y0088303D01*
X0130724Y0088815D01*
X0130724Y0100508D01*
X0142142Y0100508D01*
X0142142Y0108185D01*
X0142142Y0109405D01*
X0142142Y0111571D01*
X0142142Y0109405D02*
X0132654Y0109405D01*
X0147913Y0105990D02*
X0239150Y0105170D01*
X0239150Y0104445D01*
X0234508Y0104445D01*
X0234508Y0104031D01*
X0233626Y0103665D01*
X0232252Y0102291D01*
X0231508Y0100495D01*
X0231508Y0093433D01*
X0231568Y0093287D01*
X0228910Y0093287D01*
X0227980Y0094216D01*
X0226184Y0094960D01*
X0219123Y0094960D01*
X0217327Y0094216D01*
X0216748Y0093638D01*
X0216169Y0094216D01*
X0214373Y0094960D01*
X0207756Y0094960D01*
X0207756Y0100081D01*
X0206877Y0102202D01*
X0205254Y0103826D01*
X0203132Y0104704D01*
X0172883Y0104704D01*
X0170762Y0103826D01*
X0169139Y0102202D01*
X0168260Y0100081D01*
X0168260Y0093760D01*
X0164769Y0093760D01*
X0164531Y0093858D01*
X0160225Y0093858D01*
X0158429Y0093114D01*
X0157752Y0092437D01*
X0157075Y0093114D01*
X0155279Y0093858D01*
X0154322Y0093858D01*
X0154274Y0093878D01*
X0153981Y0093878D01*
X0152695Y0095164D01*
X0150573Y0096043D01*
X0145839Y0096043D01*
X0147035Y0097238D01*
X0147913Y0099359D01*
X0147913Y0105990D01*
X0147913Y0104551D02*
X0172513Y0104551D01*
X0169717Y0102781D02*
X0147913Y0102781D01*
X0147913Y0101011D02*
X0168645Y0101011D01*
X0168260Y0099240D02*
X0147864Y0099240D01*
X0147131Y0097470D02*
X0168260Y0097470D01*
X0168260Y0095700D02*
X0151401Y0095700D01*
X0153929Y0093930D02*
X0168260Y0093930D01*
X0174031Y0098933D02*
X0174031Y0087988D01*
X0162378Y0087988D01*
X0162378Y0084248D02*
X0177969Y0084248D01*
X0177969Y0083972D01*
X0177515Y0083309D02*
X0183358Y0083309D01*
X0183358Y0084235D02*
X0183358Y0077173D01*
X0183696Y0076358D01*
X0176654Y0076358D01*
X0176654Y0081380D01*
X0176142Y0082615D01*
X0177301Y0083095D01*
X0178924Y0084718D01*
X0179803Y0086840D01*
X0179803Y0093161D01*
X0183957Y0093161D01*
X0183358Y0091716D01*
X0183358Y0084654D01*
X0183445Y0084445D01*
X0183358Y0084235D01*
X0183358Y0085079D02*
X0179074Y0085079D01*
X0179803Y0086849D02*
X0183358Y0086849D01*
X0183358Y0088619D02*
X0179803Y0088619D01*
X0179803Y0090390D02*
X0183358Y0090390D01*
X0183542Y0092160D02*
X0179803Y0092160D01*
X0174031Y0098933D02*
X0191197Y0098933D01*
X0201984Y0098933D01*
X0201984Y0087122D01*
X0210843Y0087122D01*
X0210843Y0087515D01*
X0216456Y0093930D02*
X0217040Y0093930D01*
X0207756Y0095700D02*
X0231508Y0095700D01*
X0231508Y0093930D02*
X0228267Y0093930D01*
X0231508Y0097470D02*
X0207756Y0097470D01*
X0207756Y0099240D02*
X0231508Y0099240D01*
X0231721Y0101011D02*
X0207371Y0101011D01*
X0206299Y0102781D02*
X0232742Y0102781D01*
X0239150Y0104551D02*
X0203503Y0104551D01*
X0191197Y0098933D02*
X0191197Y0088185D01*
X0191197Y0080704D02*
X0190961Y0080704D01*
X0190961Y0070586D01*
X0211866Y0070586D01*
X0211866Y0070941D01*
X0219740Y0070980D02*
X0219740Y0070941D01*
X0219740Y0070980D02*
X0239976Y0070980D01*
X0239976Y0087515D01*
X0239976Y0096964D01*
X0239543Y0096964D01*
X0247365Y0101011D02*
X0250980Y0101011D01*
X0250980Y0102554D02*
X0250980Y0098672D01*
X0254459Y0095193D01*
X0253102Y0093836D01*
X0249742Y0093525D01*
X0249572Y0093595D01*
X0247579Y0093595D01*
X0247579Y0100495D01*
X0246835Y0102291D01*
X0245461Y0103665D01*
X0244579Y0104031D01*
X0244579Y0104445D01*
X0239937Y0104445D01*
X0239937Y0105163D01*
X0248892Y0105082D01*
X0250980Y0102554D01*
X0250793Y0102781D02*
X0246345Y0102781D01*
X0249331Y0104551D02*
X0239937Y0104551D01*
X0239543Y0104838D02*
X0159661Y0104838D01*
X0159661Y0105429D01*
X0130724Y0088815D02*
X0122142Y0088815D01*
X0121646Y0077998D02*
X0124532Y0077998D01*
X0139583Y0068421D02*
X0142535Y0068421D01*
X0163205Y0068421D01*
X0163205Y0059563D01*
X0163205Y0053854D01*
X0169150Y0053854D01*
X0169150Y0053933D01*
X0169150Y0050193D02*
X0157102Y0050193D01*
X0157955Y0051446D02*
X0152846Y0051446D01*
X0152846Y0053216D02*
X0157433Y0053216D01*
X0156732Y0054986D02*
X0152831Y0054986D01*
X0163598Y0046452D02*
X0163205Y0038500D01*
X0184071Y0038500D01*
X0184071Y0023736D01*
X0176709Y0023736D01*
X0176709Y0024287D01*
X0169228Y0023893D02*
X0169228Y0019252D01*
X0169642Y0019252D01*
X0170008Y0018370D01*
X0171347Y0017031D01*
X0022247Y0017355D01*
X0022643Y0018041D01*
X0023405Y0020885D01*
X0023405Y0023830D01*
X0022643Y0026675D01*
X0021171Y0029226D01*
X0019088Y0031308D01*
X0016538Y0032781D01*
X0013693Y0033543D01*
X0010748Y0033543D01*
X0007903Y0032781D01*
X0005886Y0031616D01*
X0005886Y0039559D01*
X0014216Y0039559D01*
X0016012Y0040303D01*
X0017386Y0041677D01*
X0017406Y0041724D01*
X0023665Y0041724D01*
X0025461Y0042468D01*
X0026835Y0043842D01*
X0027579Y0045638D01*
X0027579Y0055849D01*
X0027013Y0057216D01*
X0027203Y0056757D02*
X0033043Y0056757D01*
X0033043Y0058527D02*
X0027556Y0058527D01*
X0027598Y0060297D02*
X0033532Y0060297D01*
X0033854Y0062067D02*
X0027598Y0062067D01*
X0030724Y0064366D02*
X0030724Y0057791D01*
X0033043Y0054986D02*
X0027579Y0054986D01*
X0027579Y0053216D02*
X0033045Y0053216D01*
X0033043Y0051446D02*
X0027579Y0051446D01*
X0027579Y0049676D02*
X0033043Y0049676D01*
X0033131Y0047906D02*
X0027579Y0047906D01*
X0027579Y0046136D02*
X0033842Y0046136D01*
X0034575Y0044365D02*
X0027052Y0044365D01*
X0025588Y0042595D02*
X0036183Y0042595D01*
X0039583Y0047358D02*
X0050094Y0047358D01*
X0050882Y0047594D01*
X0058362Y0047594D02*
X0073638Y0047397D01*
X0073638Y0068027D01*
X0073638Y0072358D01*
X0073638Y0068027D02*
X0061079Y0068027D01*
X0061079Y0068106D01*
X0050843Y0068067D02*
X0050843Y0068106D01*
X0050843Y0068067D02*
X0040567Y0068067D01*
X0040567Y0081413D01*
X0048638Y0081413D01*
X0048638Y0094051D01*
X0041079Y0094051D01*
X0033598Y0095700D02*
X0032811Y0095700D01*
X0032811Y0097470D02*
X0033598Y0097470D01*
X0033598Y0092160D02*
X0032811Y0092160D01*
X0032811Y0090390D02*
X0033598Y0090390D01*
X0034176Y0088619D02*
X0005886Y0088619D01*
X0005886Y0090390D02*
X0028830Y0090390D01*
X0028760Y0092160D02*
X0005886Y0092160D01*
X0005886Y0086849D02*
X0035662Y0086849D01*
X0036071Y0085079D02*
X0016527Y0085079D01*
X0025581Y0083309D02*
X0035105Y0083309D01*
X0034795Y0081539D02*
X0027049Y0081539D01*
X0027579Y0079769D02*
X0034795Y0079769D01*
X0034795Y0077998D02*
X0027579Y0077998D01*
X0027579Y0076228D02*
X0034795Y0076228D01*
X0034795Y0074458D02*
X0027579Y0074458D01*
X0020055Y0068067D02*
X0040567Y0068067D01*
X0030724Y0064366D02*
X0050843Y0064366D01*
X0050843Y0060626D02*
X0039504Y0060626D01*
X0039504Y0056571D01*
X0039504Y0050665D02*
X0039583Y0049484D01*
X0039583Y0047358D01*
X0045230Y0040825D02*
X0016534Y0040825D01*
X0005886Y0039055D02*
X0099215Y0039055D01*
X0099496Y0039732D02*
X0098752Y0037936D01*
X0098752Y0032055D01*
X0099444Y0030385D01*
X0099054Y0029445D01*
X0099054Y0023145D01*
X0099798Y0021349D01*
X0101173Y0019975D01*
X0102968Y0019231D01*
X0109268Y0019231D01*
X0111064Y0019975D01*
X0112438Y0021349D01*
X0113182Y0023145D01*
X0113182Y0029445D01*
X0113091Y0029665D01*
X0113685Y0030260D01*
X0114429Y0032055D01*
X0114429Y0037936D01*
X0113685Y0039732D01*
X0112311Y0041106D01*
X0110515Y0041850D01*
X0102666Y0041850D01*
X0100870Y0041106D01*
X0099496Y0039732D01*
X0100589Y0040825D02*
X0064014Y0040825D01*
X0076998Y0042595D02*
X0078247Y0042595D01*
X0082850Y0042595D02*
X0083638Y0042595D01*
X0083638Y0041102D02*
X0086642Y0041102D01*
X0087122Y0041231D01*
X0087552Y0041479D01*
X0087903Y0041830D01*
X0088151Y0042260D01*
X0088280Y0042740D01*
X0088280Y0045153D01*
X0083638Y0045153D01*
X0083638Y0041102D01*
X0083480Y0040626D02*
X0083283Y0036334D01*
X0083480Y0040626D02*
X0083244Y0045547D01*
X0082850Y0044365D02*
X0083638Y0044365D01*
X0088280Y0044365D02*
X0122579Y0044365D01*
X0122579Y0046136D02*
X0088280Y0046136D01*
X0090347Y0047906D02*
X0122579Y0047906D01*
X0123171Y0049676D02*
X0091191Y0049676D01*
X0091280Y0051446D02*
X0100357Y0051446D01*
X0099119Y0053216D02*
X0091280Y0053216D01*
X0091280Y0054986D02*
X0098752Y0054986D01*
X0098752Y0056757D02*
X0091280Y0056757D01*
X0090627Y0058527D02*
X0098752Y0058527D01*
X0098882Y0060297D02*
X0090150Y0060297D01*
X0090150Y0062067D02*
X0099784Y0062067D01*
X0100819Y0063837D02*
X0089929Y0063837D01*
X0088898Y0065607D02*
X0100819Y0065607D01*
X0088402Y0072358D02*
X0088402Y0080744D01*
X0088756Y0080744D01*
X0073638Y0078657D02*
X0059071Y0078657D01*
X0059071Y0084366D01*
X0059110Y0084366D01*
X0066846Y0088619D02*
X0066869Y0088619D01*
X0066869Y0090390D02*
X0065705Y0090390D01*
X0066869Y0092160D02*
X0059504Y0092160D01*
X0059465Y0092240D02*
X0059661Y0100704D01*
X0053381Y0097470D02*
X0069446Y0097470D01*
X0067528Y0095700D02*
X0063917Y0095700D01*
X0064146Y0093930D02*
X0066869Y0093930D01*
X0059504Y0093930D02*
X0058717Y0093930D01*
X0059110Y0092240D02*
X0059465Y0092240D01*
X0059504Y0095700D02*
X0058717Y0095700D01*
X0054303Y0095700D02*
X0054202Y0095700D01*
X0061079Y0060626D02*
X0067929Y0060626D01*
X0067929Y0060350D01*
X0083087Y0060153D02*
X0083441Y0060153D01*
X0083244Y0053421D01*
X0088241Y0042595D02*
X0128500Y0042595D01*
X0128500Y0042397D02*
X0122579Y0042397D01*
X0122579Y0038015D01*
X0122707Y0037536D01*
X0122956Y0037106D01*
X0123307Y0036754D01*
X0123737Y0036506D01*
X0124216Y0036378D01*
X0128500Y0036378D01*
X0128500Y0042397D01*
X0129346Y0043086D02*
X0129346Y0021964D01*
X0140040Y0030204D02*
X0113630Y0030204D01*
X0113182Y0028434D02*
X0164674Y0028434D01*
X0164767Y0028595D02*
X0164518Y0028165D01*
X0164390Y0027685D01*
X0164390Y0024681D01*
X0168441Y0024681D01*
X0168441Y0029323D01*
X0166027Y0029323D01*
X0165548Y0029194D01*
X0165118Y0028946D01*
X0164767Y0028595D01*
X0164390Y0026664D02*
X0113182Y0026664D01*
X0113182Y0024894D02*
X0164390Y0024894D01*
X0164390Y0023893D02*
X0164390Y0020889D01*
X0164518Y0020410D01*
X0164767Y0019980D01*
X0165118Y0019628D01*
X0165548Y0019380D01*
X0166027Y0019252D01*
X0168441Y0019252D01*
X0168441Y0023893D01*
X0169228Y0023893D01*
X0168835Y0024287D02*
X0157102Y0024287D01*
X0164390Y0023893D02*
X0168441Y0023893D01*
X0168441Y0024681D01*
X0169228Y0024681D01*
X0169228Y0029323D01*
X0169642Y0029323D01*
X0170008Y0030204D01*
X0169228Y0028434D02*
X0168441Y0028434D01*
X0168441Y0026664D02*
X0169228Y0026664D01*
X0169228Y0024894D02*
X0168441Y0024894D01*
X0168441Y0023123D02*
X0169228Y0023123D01*
X0169228Y0021353D02*
X0168441Y0021353D01*
X0168441Y0019583D02*
X0169228Y0019583D01*
X0170565Y0017813D02*
X0022512Y0017813D01*
X0023057Y0019583D02*
X0102119Y0019583D01*
X0099797Y0021353D02*
X0023405Y0021353D01*
X0023405Y0023123D02*
X0099063Y0023123D01*
X0099054Y0024894D02*
X0023121Y0024894D01*
X0022646Y0026664D02*
X0099054Y0026664D01*
X0099054Y0028434D02*
X0021628Y0028434D01*
X0020192Y0030204D02*
X0099369Y0030204D01*
X0098786Y0031974D02*
X0017935Y0031974D01*
X0006506Y0031974D02*
X0005886Y0031974D01*
X0005886Y0033744D02*
X0098752Y0033744D01*
X0098752Y0035515D02*
X0005886Y0035515D01*
X0005886Y0037285D02*
X0098752Y0037285D01*
X0106118Y0034996D02*
X0106118Y0026295D01*
X0113173Y0023123D02*
X0164390Y0023123D01*
X0164390Y0021353D02*
X0112440Y0021353D01*
X0110117Y0019583D02*
X0165196Y0019583D01*
X0182047Y0017008D02*
X0183004Y0017964D01*
X0185219Y0017964D01*
X0187340Y0018843D01*
X0188964Y0020467D01*
X0189843Y0022588D01*
X0189843Y0029972D01*
X0205495Y0029972D01*
X0214567Y0029972D01*
X0214693Y0029669D01*
X0216067Y0028295D01*
X0217673Y0027630D01*
X0217634Y0027619D01*
X0217204Y0027371D01*
X0216853Y0027020D01*
X0216605Y0026590D01*
X0216476Y0026110D01*
X0216476Y0023106D01*
X0220527Y0023106D01*
X0220527Y0022319D01*
X0216476Y0022319D01*
X0216476Y0019314D01*
X0216605Y0018835D01*
X0216853Y0018405D01*
X0217204Y0018054D01*
X0217634Y0017805D01*
X0218114Y0017677D01*
X0220528Y0017677D01*
X0220528Y0022319D01*
X0221315Y0022319D01*
X0221315Y0017677D01*
X0221729Y0017677D01*
X0222042Y0016921D01*
X0182047Y0017008D01*
X0182853Y0017813D02*
X0217621Y0017813D01*
X0216476Y0019583D02*
X0188080Y0019583D01*
X0189331Y0021353D02*
X0216476Y0021353D01*
X0216476Y0023123D02*
X0189843Y0023123D01*
X0189843Y0024894D02*
X0216476Y0024894D01*
X0216648Y0026664D02*
X0189843Y0026664D01*
X0189843Y0028434D02*
X0215928Y0028434D01*
X0220921Y0022712D02*
X0194898Y0022712D01*
X0194898Y0023539D01*
X0190370Y0035744D02*
X0190370Y0046374D01*
X0178402Y0046374D01*
X0178402Y0046452D01*
X0178402Y0050193D02*
X0194504Y0050193D01*
X0194504Y0049720D01*
X0195230Y0049676D02*
X0198437Y0049676D01*
X0198437Y0051446D02*
X0194636Y0051446D01*
X0194291Y0050615D02*
X0195157Y0052706D01*
X0195157Y0057137D01*
X0198437Y0057137D01*
X0198437Y0051898D01*
X0198524Y0051689D01*
X0198437Y0051479D01*
X0198437Y0044418D01*
X0199181Y0042622D01*
X0199559Y0042244D01*
X0199559Y0041515D01*
X0196142Y0041515D01*
X0196142Y0047522D01*
X0195263Y0049643D01*
X0194291Y0050615D01*
X0195983Y0047906D02*
X0198437Y0047906D01*
X0198437Y0046136D02*
X0196142Y0046136D01*
X0196142Y0044365D02*
X0198459Y0044365D01*
X0199207Y0042595D02*
X0196142Y0042595D01*
X0190370Y0035744D02*
X0204346Y0035744D01*
X0221394Y0035744D01*
X0221394Y0035586D01*
X0229268Y0035586D02*
X0229268Y0035744D01*
X0249425Y0035744D01*
X0249622Y0035744D01*
X0249622Y0022752D01*
X0228795Y0022752D01*
X0228795Y0022712D01*
X0221315Y0021353D02*
X0220528Y0021353D01*
X0220528Y0019583D02*
X0221315Y0019583D01*
X0221315Y0017813D02*
X0220528Y0017813D01*
X0205331Y0035744D02*
X0204346Y0035744D01*
X0205331Y0035744D02*
X0205331Y0047949D01*
X0206276Y0047949D01*
X0198437Y0053216D02*
X0195157Y0053216D01*
X0195157Y0054986D02*
X0198437Y0054986D01*
X0198437Y0056757D02*
X0195157Y0056757D01*
X0189386Y0053854D02*
X0189386Y0062909D01*
X0206276Y0062909D01*
X0217535Y0062909D01*
X0217535Y0053067D01*
X0228283Y0053067D01*
X0228283Y0053657D01*
X0240094Y0053657D02*
X0249425Y0053657D01*
X0249425Y0035744D01*
X0255394Y0035515D02*
X0267768Y0035515D01*
X0267768Y0037285D02*
X0255231Y0037285D01*
X0255197Y0037367D02*
X0255197Y0054805D01*
X0254762Y0055855D01*
X0254842Y0059880D01*
X0257454Y0057267D01*
X0259366Y0057267D01*
X0259366Y0062023D01*
X0259563Y0062023D01*
X0259563Y0057267D01*
X0261475Y0057267D01*
X0264319Y0060111D01*
X0264319Y0062023D01*
X0259563Y0062023D01*
X0259563Y0062220D01*
X0264319Y0062220D01*
X0264319Y0064132D01*
X0261940Y0066512D01*
X0262639Y0066512D01*
X0267240Y0071112D01*
X0267240Y0077619D01*
X0263171Y0081689D01*
X0266571Y0085089D01*
X0266571Y0091596D01*
X0263092Y0095074D01*
X0266689Y0098672D01*
X0266689Y0105178D01*
X0265437Y0106431D01*
X0266144Y0106620D01*
X0267768Y0107558D01*
X0267768Y0032434D01*
X0266144Y0033371D01*
X0263299Y0034134D01*
X0260354Y0034134D01*
X0257509Y0033371D01*
X0255394Y0032150D01*
X0255394Y0036892D01*
X0255197Y0037367D01*
X0255197Y0039055D02*
X0267768Y0039055D01*
X0267768Y0040825D02*
X0255197Y0040825D01*
X0255197Y0042595D02*
X0267768Y0042595D01*
X0267768Y0044365D02*
X0255197Y0044365D01*
X0255197Y0046136D02*
X0267768Y0046136D01*
X0267768Y0047906D02*
X0255197Y0047906D01*
X0255197Y0049676D02*
X0267768Y0049676D01*
X0267768Y0051446D02*
X0255197Y0051446D01*
X0255197Y0053216D02*
X0267768Y0053216D01*
X0267768Y0054986D02*
X0255122Y0054986D01*
X0254780Y0056757D02*
X0267768Y0056757D01*
X0267768Y0058527D02*
X0262735Y0058527D01*
X0264319Y0060297D02*
X0267768Y0060297D01*
X0267768Y0062067D02*
X0259563Y0062067D01*
X0259366Y0062067D02*
X0254885Y0062067D01*
X0254884Y0062023D02*
X0254888Y0062220D01*
X0259366Y0062220D01*
X0259366Y0062023D01*
X0254884Y0062023D01*
X0254815Y0058527D02*
X0256195Y0058527D01*
X0259366Y0058527D02*
X0259563Y0058527D01*
X0259563Y0060297D02*
X0259366Y0060297D01*
X0264319Y0063837D02*
X0267768Y0063837D01*
X0267768Y0065607D02*
X0262844Y0065607D01*
X0263505Y0067377D02*
X0267768Y0067377D01*
X0267768Y0069148D02*
X0265275Y0069148D01*
X0267046Y0070918D02*
X0267768Y0070918D01*
X0267768Y0072688D02*
X0267240Y0072688D01*
X0267240Y0074458D02*
X0267768Y0074458D01*
X0267768Y0076228D02*
X0267240Y0076228D01*
X0266861Y0077998D02*
X0267768Y0077998D01*
X0267768Y0079769D02*
X0265091Y0079769D01*
X0263321Y0081539D02*
X0267768Y0081539D01*
X0267768Y0083309D02*
X0264791Y0083309D01*
X0266561Y0085079D02*
X0267768Y0085079D01*
X0267768Y0086849D02*
X0266571Y0086849D01*
X0266571Y0088619D02*
X0267768Y0088619D01*
X0267768Y0090390D02*
X0266571Y0090390D01*
X0266007Y0092160D02*
X0267768Y0092160D01*
X0267768Y0093930D02*
X0264236Y0093930D01*
X0263718Y0095700D02*
X0267768Y0095700D01*
X0267768Y0097470D02*
X0265488Y0097470D01*
X0266689Y0099240D02*
X0267768Y0099240D01*
X0267768Y0101011D02*
X0266689Y0101011D01*
X0266689Y0102781D02*
X0267768Y0102781D01*
X0267768Y0104551D02*
X0266689Y0104551D01*
X0267768Y0106321D02*
X0265546Y0106321D01*
X0252182Y0097470D02*
X0247579Y0097470D01*
X0247579Y0095700D02*
X0253952Y0095700D01*
X0253197Y0093930D02*
X0247579Y0093930D01*
X0247579Y0099240D02*
X0250980Y0099240D01*
X0239976Y0087515D02*
X0222654Y0087515D01*
X0190961Y0070586D02*
X0170882Y0070586D01*
X0170882Y0080232D01*
X0162378Y0080232D01*
X0162378Y0080508D01*
X0176588Y0081539D02*
X0183358Y0081539D01*
X0183358Y0079769D02*
X0176654Y0079769D01*
X0176654Y0077998D02*
X0183358Y0077998D01*
X0206276Y0062909D02*
X0206276Y0055429D01*
X0189386Y0053854D02*
X0188992Y0053854D01*
X0188992Y0053933D01*
X0178402Y0053933D01*
X0169150Y0046452D02*
X0163598Y0046452D01*
X0167654Y0031974D02*
X0172337Y0031974D01*
X0136846Y0031974D02*
X0114395Y0031974D01*
X0114429Y0033744D02*
X0135047Y0033744D01*
X0134313Y0035515D02*
X0114429Y0035515D01*
X0114429Y0037285D02*
X0122852Y0037285D01*
X0122579Y0039055D02*
X0113966Y0039055D01*
X0112592Y0040825D02*
X0122579Y0040825D01*
X0128500Y0040825D02*
X0130272Y0040825D01*
X0130272Y0039055D02*
X0128500Y0039055D01*
X0128500Y0037285D02*
X0130272Y0037285D01*
X0129346Y0043086D02*
X0129386Y0043283D01*
X0128500Y0044365D02*
X0130272Y0044365D01*
X0130272Y0046136D02*
X0128500Y0046136D01*
X0128500Y0047906D02*
X0130272Y0047906D01*
X0130272Y0049676D02*
X0128500Y0049676D01*
X0106591Y0034996D02*
X0106118Y0034996D01*
X0255394Y0033744D02*
X0258902Y0033744D01*
X0264752Y0033744D02*
X0267768Y0033744D01*
D30*
X0194898Y0023539D03*
X0163205Y0038500D03*
X0148441Y0022752D03*
X0106118Y0026295D03*
X0083087Y0060153D03*
X0067929Y0060350D03*
X0099819Y0080035D03*
X0114583Y0077082D03*
X0142535Y0068421D03*
X0163205Y0059563D03*
X0194504Y0049720D03*
X0177969Y0083972D03*
X0159661Y0105429D03*
X0104740Y0109169D03*
X0023441Y0094208D03*
X0030528Y0042830D03*
D31*
X0073835Y0091059D03*
X0077378Y0108382D03*
X0146669Y0084366D03*
X0259268Y0035350D03*
D32*
X0259268Y0062122D01*
X0259465Y0062122D01*
X0249425Y0053657D02*
X0249031Y0053657D01*
X0249425Y0073539D01*
X0259583Y0073539D01*
X0259386Y0074366D01*
X0258717Y0088342D02*
X0257142Y0088500D01*
X0248638Y0087712D01*
X0248441Y0087909D01*
X0248638Y0087712D02*
X0248835Y0087515D01*
X0239976Y0087515D01*
X0258835Y0101925D02*
X0258874Y0101925D01*
X0251591Y0110744D01*
X0142142Y0111728D01*
X0142142Y0108185D01*
X0099031Y0113697D02*
X0099031Y0120980D01*
X0076394Y0120980D01*
X0076394Y0116256D01*
X0049228Y0116256D01*
X0049228Y0116452D01*
X0039386Y0116452D02*
X0039583Y0104641D01*
X0077575Y0104445D01*
X0077378Y0108382D01*
X0098717Y0113697D02*
X0099031Y0113697D01*
X0073835Y0091059D02*
X0073638Y0091059D01*
X0073638Y0078657D01*
M02*
