%
M48
M72
T01C0.02559
T02C0.02756
T03C0.03543
T04C0.03937
T05C0.12598
%
T01
X146669Y84366
X77378Y108382
X73835Y91059
X259268Y35350
T02
X194898Y23539
X163205Y38500
X148441Y22752
X106118Y26295
X83087Y60153
X67929Y60350
X99819Y80035
X114583Y77082
X142535Y68421
X163205Y59563
X194504Y49720
X177969Y83972
X159661Y105429
X104740Y109169
X23441Y94208
X30528Y42830
T03
X29543Y116452
X39386Y116452
X49228Y116452
T04
X88717Y113697
X98717Y113697
X258835Y101925
X258717Y88342
X259386Y74366
X259465Y62122
T05
X12220Y22358
X12024Y117043
X261827Y117043
X261827Y22949
M30
