G75*
%MOIN*%
%OFA0B0*%
%FSLAX25Y25*%
%IPPOS*%
%LPD*%
%AMOC8*
5,1,8,0,0,1.08239X$1,22.5*
%
%ADD10C,0.00000*%
%ADD11C,0.06000*%
%ADD12R,0.06102X0.05118*%
%ADD13C,0.01600*%
D10*
X0001367Y0001367D02*
X0001367Y0075068D01*
X0311288Y0075068D01*
X0311288Y0001367D01*
X0001367Y0001367D01*
D11*
X0126367Y0058367D02*
X0126367Y0064367D01*
X0136367Y0064367D02*
X0136367Y0058367D01*
X0146367Y0058367D02*
X0146367Y0064367D01*
X0156367Y0064367D02*
X0156367Y0058367D01*
X0166367Y0058367D02*
X0166367Y0064367D01*
X0176367Y0064367D02*
X0176367Y0058367D01*
X0186367Y0058367D02*
X0186367Y0064367D01*
D12*
X0197017Y0035225D03*
X0215717Y0035225D03*
X0247017Y0035225D03*
X0260717Y0035225D03*
X0292017Y0035225D03*
X0292017Y0017509D03*
X0260717Y0017509D03*
X0247017Y0017509D03*
X0215717Y0017509D03*
X0197017Y0017509D03*
X0165717Y0017509D03*
X0147017Y0017509D03*
X0115717Y0017509D03*
X0102017Y0017509D03*
X0070717Y0017509D03*
X0052017Y0017509D03*
X0020717Y0017509D03*
X0020717Y0035225D03*
X0052017Y0035225D03*
X0070717Y0035225D03*
X0102017Y0035225D03*
X0115717Y0035225D03*
X0147017Y0035225D03*
X0165717Y0035225D03*
D13*
X0156367Y0035225D01*
X0156367Y0061367D01*
X0146367Y0061367D02*
X0146367Y0035225D01*
X0147017Y0035225D01*
X0115717Y0035225D01*
X0110266Y0035493D02*
X0107468Y0035493D01*
X0107468Y0033895D02*
X0110266Y0033895D01*
X0110266Y0032296D02*
X0107468Y0032296D01*
X0107468Y0032189D02*
X0107468Y0038262D01*
X0107102Y0039144D01*
X0106427Y0039819D01*
X0105545Y0040184D01*
X0098488Y0040184D01*
X0097606Y0039819D01*
X0096931Y0039144D01*
X0096633Y0038425D01*
X0076101Y0038425D01*
X0075803Y0039144D01*
X0075128Y0039819D01*
X0074567Y0040051D01*
X0074567Y0048167D01*
X0137003Y0048167D01*
X0138180Y0048654D01*
X0139080Y0049554D01*
X0139567Y0050730D01*
X0139567Y0053930D01*
X0140945Y0055308D01*
X0141367Y0056327D01*
X0141789Y0055308D01*
X0143167Y0053930D01*
X0143167Y0040051D01*
X0142606Y0039819D01*
X0141931Y0039144D01*
X0141633Y0038425D01*
X0121101Y0038425D01*
X0120803Y0039144D01*
X0120128Y0039819D01*
X0119246Y0040184D01*
X0112189Y0040184D01*
X0111307Y0039819D01*
X0110632Y0039144D01*
X0110266Y0038262D01*
X0110266Y0032189D01*
X0110632Y0031307D01*
X0111307Y0030632D01*
X0112189Y0030266D01*
X0119246Y0030266D01*
X0120128Y0030632D01*
X0120803Y0031307D01*
X0121101Y0032025D01*
X0141633Y0032025D01*
X0141931Y0031307D01*
X0142606Y0030632D01*
X0143488Y0030266D01*
X0150545Y0030266D01*
X0151427Y0030632D01*
X0152102Y0031307D01*
X0152468Y0032189D01*
X0152468Y0038262D01*
X0152102Y0039144D01*
X0151427Y0039819D01*
X0150545Y0040184D01*
X0149567Y0040184D01*
X0149567Y0053930D01*
X0150945Y0055308D01*
X0151367Y0056327D01*
X0151789Y0055308D01*
X0153167Y0053930D01*
X0153167Y0034589D01*
X0153654Y0033413D01*
X0154554Y0032512D01*
X0155730Y0032025D01*
X0160334Y0032025D01*
X0160632Y0031307D01*
X0161307Y0030632D01*
X0162189Y0030266D01*
X0169246Y0030266D01*
X0170128Y0030632D01*
X0170803Y0031307D01*
X0171101Y0032025D01*
X0191633Y0032025D01*
X0191931Y0031307D01*
X0192606Y0030632D01*
X0193488Y0030266D01*
X0200545Y0030266D01*
X0201427Y0030632D01*
X0202102Y0031307D01*
X0202468Y0032189D01*
X0202468Y0038262D01*
X0202102Y0039144D01*
X0201427Y0039819D01*
X0200545Y0040184D01*
X0193488Y0040184D01*
X0192606Y0039819D01*
X0191931Y0039144D01*
X0191633Y0038425D01*
X0171101Y0038425D01*
X0170803Y0039144D01*
X0170128Y0039819D01*
X0169246Y0040184D01*
X0162189Y0040184D01*
X0161307Y0039819D01*
X0160632Y0039144D01*
X0160334Y0038425D01*
X0159567Y0038425D01*
X0159567Y0053930D01*
X0160945Y0055308D01*
X0161367Y0056327D01*
X0161789Y0055308D01*
X0163167Y0053930D01*
X0163167Y0045730D01*
X0163654Y0044554D01*
X0164554Y0043654D01*
X0165730Y0043167D01*
X0213167Y0043167D01*
X0213167Y0040184D01*
X0212189Y0040184D01*
X0211307Y0039819D01*
X0210632Y0039144D01*
X0210266Y0038262D01*
X0210266Y0032189D01*
X0210632Y0031307D01*
X0211307Y0030632D01*
X0212189Y0030266D01*
X0219246Y0030266D01*
X0220128Y0030632D01*
X0220803Y0031307D01*
X0221101Y0032025D01*
X0241633Y0032025D01*
X0241931Y0031307D01*
X0242606Y0030632D01*
X0243488Y0030266D01*
X0250545Y0030266D01*
X0251427Y0030632D01*
X0252102Y0031307D01*
X0252468Y0032189D01*
X0252468Y0038262D01*
X0252102Y0039144D01*
X0251427Y0039819D01*
X0250545Y0040184D01*
X0243488Y0040184D01*
X0242606Y0039819D01*
X0241931Y0039144D01*
X0241633Y0038425D01*
X0221101Y0038425D01*
X0220803Y0039144D01*
X0220128Y0039819D01*
X0219567Y0040051D01*
X0219567Y0047003D01*
X0219085Y0048167D01*
X0258167Y0048167D01*
X0258167Y0040184D01*
X0257189Y0040184D01*
X0256307Y0039819D01*
X0255632Y0039144D01*
X0255266Y0038262D01*
X0255266Y0032189D01*
X0255632Y0031307D01*
X0256307Y0030632D01*
X0257189Y0030266D01*
X0264246Y0030266D01*
X0265128Y0030632D01*
X0265803Y0031307D01*
X0266101Y0032025D01*
X0286633Y0032025D01*
X0286931Y0031307D01*
X0287606Y0030632D01*
X0288488Y0030266D01*
X0295545Y0030266D01*
X0296427Y0030632D01*
X0297102Y0031307D01*
X0297468Y0032189D01*
X0297468Y0038262D01*
X0297102Y0039144D01*
X0296427Y0039819D01*
X0295545Y0040184D01*
X0288488Y0040184D01*
X0287606Y0039819D01*
X0286931Y0039144D01*
X0286633Y0038425D01*
X0266101Y0038425D01*
X0265803Y0039144D01*
X0265128Y0039819D01*
X0264567Y0040051D01*
X0264567Y0052003D01*
X0264080Y0053180D01*
X0263180Y0054080D01*
X0262003Y0054567D01*
X0189303Y0054567D01*
X0189494Y0054706D01*
X0190028Y0055240D01*
X0190472Y0055851D01*
X0190815Y0056524D01*
X0191049Y0057243D01*
X0191167Y0057989D01*
X0191167Y0061167D01*
X0186567Y0061167D01*
X0186567Y0061567D01*
X0186167Y0061567D01*
X0186167Y0069167D01*
X0185989Y0069167D01*
X0185243Y0069049D01*
X0184524Y0068815D01*
X0183851Y0068472D01*
X0183240Y0068028D01*
X0182706Y0067494D01*
X0182262Y0066883D01*
X0181919Y0066209D01*
X0181712Y0065574D01*
X0180945Y0067426D01*
X0179426Y0068945D01*
X0177441Y0069767D01*
X0175293Y0069767D01*
X0173308Y0068945D01*
X0171789Y0067426D01*
X0171367Y0066407D01*
X0170945Y0067426D01*
X0169426Y0068945D01*
X0167441Y0069767D01*
X0165293Y0069767D01*
X0163308Y0068945D01*
X0161789Y0067426D01*
X0161367Y0066407D01*
X0160945Y0067426D01*
X0159426Y0068945D01*
X0157441Y0069767D01*
X0155293Y0069767D01*
X0153308Y0068945D01*
X0151789Y0067426D01*
X0151367Y0066407D01*
X0150945Y0067426D01*
X0149426Y0068945D01*
X0147441Y0069767D01*
X0145293Y0069767D01*
X0143308Y0068945D01*
X0141789Y0067426D01*
X0141367Y0066407D01*
X0140945Y0067426D01*
X0139426Y0068945D01*
X0137441Y0069767D01*
X0135293Y0069767D01*
X0133308Y0068945D01*
X0131789Y0067426D01*
X0131367Y0066407D01*
X0130945Y0067426D01*
X0129426Y0068945D01*
X0127441Y0069767D01*
X0125293Y0069767D01*
X0123308Y0068945D01*
X0121789Y0067426D01*
X0120967Y0065441D01*
X0120967Y0064567D01*
X0020730Y0064567D01*
X0019554Y0064080D01*
X0018654Y0063180D01*
X0018167Y0062003D01*
X0018167Y0040184D01*
X0017189Y0040184D01*
X0016307Y0039819D01*
X0015632Y0039144D01*
X0015266Y0038262D01*
X0015266Y0032189D01*
X0015632Y0031307D01*
X0016307Y0030632D01*
X0017189Y0030266D01*
X0024246Y0030266D01*
X0025128Y0030632D01*
X0025803Y0031307D01*
X0026101Y0032025D01*
X0046633Y0032025D01*
X0046931Y0031307D01*
X0047606Y0030632D01*
X0048488Y0030266D01*
X0055545Y0030266D01*
X0056427Y0030632D01*
X0057102Y0031307D01*
X0057468Y0032189D01*
X0057468Y0038262D01*
X0057102Y0039144D01*
X0056427Y0039819D01*
X0055545Y0040184D01*
X0048488Y0040184D01*
X0047606Y0039819D01*
X0046931Y0039144D01*
X0046633Y0038425D01*
X0026101Y0038425D01*
X0025803Y0039144D01*
X0025128Y0039819D01*
X0024567Y0040051D01*
X0024567Y0058167D01*
X0120967Y0058167D01*
X0120967Y0057293D01*
X0121789Y0055308D01*
X0122530Y0054567D01*
X0070730Y0054567D01*
X0069554Y0054080D01*
X0068654Y0053180D01*
X0068167Y0052003D01*
X0068167Y0040184D01*
X0067189Y0040184D01*
X0066307Y0039819D01*
X0065632Y0039144D01*
X0065266Y0038262D01*
X0065266Y0032189D01*
X0065632Y0031307D01*
X0066307Y0030632D01*
X0067189Y0030266D01*
X0074246Y0030266D01*
X0075128Y0030632D01*
X0075803Y0031307D01*
X0076101Y0032025D01*
X0096633Y0032025D01*
X0096931Y0031307D01*
X0097606Y0030632D01*
X0098488Y0030266D01*
X0105545Y0030266D01*
X0106427Y0030632D01*
X0107102Y0031307D01*
X0107468Y0032189D01*
X0106493Y0030697D02*
X0111241Y0030697D01*
X0120194Y0030697D02*
X0142540Y0030697D01*
X0151493Y0030697D02*
X0161241Y0030697D01*
X0155077Y0032296D02*
X0152468Y0032296D01*
X0152468Y0033895D02*
X0153454Y0033895D01*
X0153167Y0035493D02*
X0152468Y0035493D01*
X0152468Y0037092D02*
X0153167Y0037092D01*
X0153167Y0038690D02*
X0152290Y0038690D01*
X0153167Y0040289D02*
X0149567Y0040289D01*
X0149567Y0041887D02*
X0153167Y0041887D01*
X0153167Y0043486D02*
X0149567Y0043486D01*
X0149567Y0045084D02*
X0153167Y0045084D01*
X0159567Y0045084D02*
X0163435Y0045084D01*
X0164961Y0043486D02*
X0159567Y0043486D01*
X0159567Y0041887D02*
X0213167Y0041887D01*
X0213167Y0040289D02*
X0159567Y0040289D01*
X0159567Y0038690D02*
X0160444Y0038690D01*
X0170991Y0038690D02*
X0191743Y0038690D01*
X0202290Y0038690D02*
X0210444Y0038690D01*
X0210266Y0037092D02*
X0202468Y0037092D01*
X0202468Y0035493D02*
X0210266Y0035493D01*
X0215717Y0035225D02*
X0216367Y0035225D01*
X0216367Y0046367D01*
X0166367Y0046367D01*
X0166367Y0061367D01*
X0176367Y0061367D02*
X0176367Y0051367D01*
X0261367Y0051367D01*
X0261367Y0035225D01*
X0260717Y0035225D01*
X0292017Y0035225D01*
X0297468Y0035493D02*
X0306488Y0035493D01*
X0306488Y0033895D02*
X0297468Y0033895D01*
X0297468Y0032296D02*
X0306488Y0032296D01*
X0306488Y0030697D02*
X0296493Y0030697D01*
X0287540Y0030697D02*
X0265194Y0030697D01*
X0256241Y0030697D02*
X0251493Y0030697D01*
X0252468Y0032296D02*
X0255266Y0032296D01*
X0255266Y0033895D02*
X0252468Y0033895D01*
X0252468Y0035493D02*
X0255266Y0035493D01*
X0255266Y0037092D02*
X0252468Y0037092D01*
X0252290Y0038690D02*
X0255444Y0038690D01*
X0258167Y0040289D02*
X0219567Y0040289D01*
X0219567Y0041887D02*
X0258167Y0041887D01*
X0258167Y0043486D02*
X0219567Y0043486D01*
X0219567Y0045084D02*
X0258167Y0045084D01*
X0264567Y0045084D02*
X0306488Y0045084D01*
X0306488Y0043486D02*
X0264567Y0043486D01*
X0264567Y0041887D02*
X0306488Y0041887D01*
X0306488Y0040289D02*
X0264567Y0040289D01*
X0265991Y0038690D02*
X0286743Y0038690D01*
X0297290Y0038690D02*
X0306488Y0038690D01*
X0306488Y0037092D02*
X0297468Y0037092D01*
X0306488Y0029099D02*
X0006167Y0029099D01*
X0006167Y0030697D02*
X0016241Y0030697D01*
X0015266Y0032296D02*
X0006167Y0032296D01*
X0006167Y0033895D02*
X0015266Y0033895D01*
X0015266Y0035493D02*
X0006167Y0035493D01*
X0006167Y0037092D02*
X0015266Y0037092D01*
X0015444Y0038690D02*
X0006167Y0038690D01*
X0006167Y0040289D02*
X0018167Y0040289D01*
X0018167Y0041887D02*
X0006167Y0041887D01*
X0006167Y0043486D02*
X0018167Y0043486D01*
X0018167Y0045084D02*
X0006167Y0045084D01*
X0006167Y0046683D02*
X0018167Y0046683D01*
X0018167Y0048281D02*
X0006167Y0048281D01*
X0006167Y0049880D02*
X0018167Y0049880D01*
X0018167Y0051478D02*
X0006167Y0051478D01*
X0006167Y0053077D02*
X0018167Y0053077D01*
X0018167Y0054675D02*
X0006167Y0054675D01*
X0006167Y0056274D02*
X0018167Y0056274D01*
X0018167Y0057872D02*
X0006167Y0057872D01*
X0006167Y0059471D02*
X0018167Y0059471D01*
X0018167Y0061069D02*
X0006167Y0061069D01*
X0006167Y0062668D02*
X0018442Y0062668D01*
X0021367Y0061367D02*
X0126367Y0061367D01*
X0136367Y0061367D02*
X0136367Y0051367D01*
X0071367Y0051367D01*
X0071367Y0035225D01*
X0070717Y0035225D01*
X0102017Y0035225D01*
X0107468Y0037092D02*
X0110266Y0037092D01*
X0110444Y0038690D02*
X0107290Y0038690D01*
X0096743Y0038690D02*
X0075991Y0038690D01*
X0074567Y0040289D02*
X0143167Y0040289D01*
X0143167Y0041887D02*
X0074567Y0041887D01*
X0074567Y0043486D02*
X0143167Y0043486D01*
X0143167Y0045084D02*
X0074567Y0045084D01*
X0068167Y0045084D02*
X0024567Y0045084D01*
X0024567Y0043486D02*
X0068167Y0043486D01*
X0068167Y0041887D02*
X0024567Y0041887D01*
X0024567Y0040289D02*
X0068167Y0040289D01*
X0065444Y0038690D02*
X0057290Y0038690D01*
X0057468Y0037092D02*
X0065266Y0037092D01*
X0065266Y0035493D02*
X0057468Y0035493D01*
X0057468Y0033895D02*
X0065266Y0033895D01*
X0065266Y0032296D02*
X0057468Y0032296D01*
X0056493Y0030697D02*
X0066241Y0030697D01*
X0075194Y0030697D02*
X0097540Y0030697D01*
X0120991Y0038690D02*
X0141743Y0038690D01*
X0165717Y0035225D02*
X0197017Y0035225D01*
X0202468Y0033895D02*
X0210266Y0033895D01*
X0210266Y0032296D02*
X0202468Y0032296D01*
X0201493Y0030697D02*
X0211241Y0030697D01*
X0220194Y0030697D02*
X0242540Y0030697D01*
X0247017Y0035225D02*
X0215717Y0035225D01*
X0220991Y0038690D02*
X0241743Y0038690D01*
X0258167Y0046683D02*
X0219567Y0046683D01*
X0189452Y0054675D02*
X0306488Y0054675D01*
X0306488Y0053077D02*
X0264122Y0053077D01*
X0264567Y0051478D02*
X0306488Y0051478D01*
X0306488Y0049880D02*
X0264567Y0049880D01*
X0264567Y0048281D02*
X0306488Y0048281D01*
X0306488Y0046683D02*
X0264567Y0046683D01*
X0306488Y0056274D02*
X0190688Y0056274D01*
X0191148Y0057872D02*
X0306488Y0057872D01*
X0306488Y0059471D02*
X0191167Y0059471D01*
X0191167Y0061069D02*
X0306488Y0061069D01*
X0306367Y0061367D02*
X0186367Y0061367D01*
X0186567Y0061567D02*
X0186567Y0069167D01*
X0186745Y0069167D01*
X0187491Y0069049D01*
X0188209Y0068815D01*
X0188883Y0068472D01*
X0189494Y0068028D01*
X0190028Y0067494D01*
X0190472Y0066883D01*
X0190815Y0066209D01*
X0191049Y0065491D01*
X0191167Y0064745D01*
X0191167Y0061567D01*
X0186567Y0061567D01*
X0186567Y0062668D02*
X0186167Y0062668D01*
X0191167Y0062668D02*
X0306488Y0062668D01*
X0306367Y0061367D02*
X0306367Y0017509D01*
X0292017Y0017509D01*
X0260717Y0017509D01*
X0247017Y0017509D01*
X0215717Y0017509D01*
X0197017Y0017509D01*
X0165717Y0017509D01*
X0147017Y0017509D01*
X0115717Y0017509D01*
X0102017Y0017509D01*
X0070717Y0017509D01*
X0052017Y0017509D01*
X0020717Y0017509D01*
X0020238Y0017909D02*
X0006167Y0017909D01*
X0006167Y0016311D02*
X0015866Y0016311D01*
X0015866Y0017029D02*
X0015866Y0014713D01*
X0015989Y0014255D01*
X0016226Y0013844D01*
X0016561Y0013509D01*
X0016971Y0013272D01*
X0017429Y0013150D01*
X0020238Y0013150D01*
X0020238Y0017029D01*
X0021197Y0017029D01*
X0021197Y0017988D01*
X0025568Y0017988D01*
X0025568Y0020305D01*
X0025446Y0020762D01*
X0025209Y0021173D01*
X0024874Y0021508D01*
X0024463Y0021745D01*
X0024005Y0021868D01*
X0021197Y0021868D01*
X0021197Y0017988D01*
X0020238Y0017988D01*
X0020238Y0017029D01*
X0015866Y0017029D01*
X0015866Y0017988D02*
X0020238Y0017988D01*
X0020238Y0021868D01*
X0017429Y0021868D01*
X0016971Y0021745D01*
X0016561Y0021508D01*
X0016226Y0021173D01*
X0015989Y0020762D01*
X0015866Y0020305D01*
X0015866Y0017988D01*
X0021197Y0017909D02*
X0051537Y0017909D01*
X0051537Y0017988D02*
X0051537Y0017029D01*
X0052496Y0017029D01*
X0052496Y0013150D01*
X0055305Y0013150D01*
X0055762Y0013272D01*
X0056173Y0013509D01*
X0056508Y0013844D01*
X0056745Y0014255D01*
X0056868Y0014713D01*
X0056868Y0017029D01*
X0052496Y0017029D01*
X0052496Y0017988D01*
X0056868Y0017988D01*
X0056868Y0020305D01*
X0056745Y0020762D01*
X0056508Y0021173D01*
X0056173Y0021508D01*
X0055762Y0021745D01*
X0055305Y0021868D01*
X0052496Y0021868D01*
X0052496Y0017988D01*
X0051537Y0017988D01*
X0047165Y0017988D01*
X0047165Y0020305D01*
X0047288Y0020762D01*
X0047525Y0021173D01*
X0047860Y0021508D01*
X0048271Y0021745D01*
X0048728Y0021868D01*
X0051537Y0021868D01*
X0051537Y0017988D01*
X0051537Y0017029D02*
X0047165Y0017029D01*
X0047165Y0014713D01*
X0047288Y0014255D01*
X0047525Y0013844D01*
X0047860Y0013509D01*
X0048271Y0013272D01*
X0048728Y0013150D01*
X0051537Y0013150D01*
X0051537Y0017029D01*
X0051537Y0016311D02*
X0052496Y0016311D01*
X0047165Y0016311D02*
X0025568Y0016311D01*
X0025568Y0017029D02*
X0021197Y0017029D01*
X0021197Y0013150D01*
X0024005Y0013150D01*
X0024463Y0013272D01*
X0024874Y0013509D01*
X0025209Y0013844D01*
X0025446Y0014255D01*
X0025568Y0014713D01*
X0025568Y0017029D01*
X0021197Y0016311D02*
X0020238Y0016311D01*
X0020238Y0014712D02*
X0021197Y0014712D01*
X0015866Y0014712D02*
X0006167Y0014712D01*
X0006167Y0013114D02*
X0306488Y0013114D01*
X0306488Y0014712D02*
X0296868Y0014712D01*
X0296868Y0014713D02*
X0296868Y0017029D01*
X0292496Y0017029D01*
X0292496Y0013150D01*
X0295305Y0013150D01*
X0295762Y0013272D01*
X0296173Y0013509D01*
X0296508Y0013844D01*
X0296745Y0014255D01*
X0296868Y0014713D01*
X0292496Y0014712D02*
X0291537Y0014712D01*
X0291537Y0013150D02*
X0288728Y0013150D01*
X0288271Y0013272D01*
X0287860Y0013509D01*
X0287525Y0013844D01*
X0287288Y0014255D01*
X0287165Y0014713D01*
X0287165Y0017029D01*
X0291537Y0017029D01*
X0292496Y0017029D01*
X0292496Y0017988D01*
X0296868Y0017988D01*
X0296868Y0020305D01*
X0296745Y0020762D01*
X0296508Y0021173D01*
X0296173Y0021508D01*
X0295762Y0021745D01*
X0295305Y0021868D01*
X0292496Y0021868D01*
X0292496Y0017988D01*
X0291537Y0017988D01*
X0291537Y0017029D01*
X0291537Y0013150D01*
X0287165Y0014712D02*
X0265568Y0014712D01*
X0265568Y0014713D02*
X0265568Y0017029D01*
X0261197Y0017029D01*
X0261197Y0017988D01*
X0265568Y0017988D01*
X0265568Y0020305D01*
X0265446Y0020762D01*
X0265209Y0021173D01*
X0264874Y0021508D01*
X0264463Y0021745D01*
X0264005Y0021868D01*
X0261197Y0021868D01*
X0261197Y0017988D01*
X0260238Y0017988D01*
X0260238Y0017029D01*
X0261197Y0017029D01*
X0261197Y0013150D01*
X0264005Y0013150D01*
X0264463Y0013272D01*
X0264874Y0013509D01*
X0265209Y0013844D01*
X0265446Y0014255D01*
X0265568Y0014713D01*
X0261197Y0014712D02*
X0260238Y0014712D01*
X0260238Y0013150D02*
X0257429Y0013150D01*
X0256971Y0013272D01*
X0256561Y0013509D01*
X0256226Y0013844D01*
X0255989Y0014255D01*
X0255866Y0014713D01*
X0255866Y0017029D01*
X0260238Y0017029D01*
X0260238Y0013150D01*
X0255866Y0014712D02*
X0251868Y0014712D01*
X0251868Y0014713D02*
X0251868Y0017029D01*
X0247496Y0017029D01*
X0247496Y0013150D01*
X0250305Y0013150D01*
X0250762Y0013272D01*
X0251173Y0013509D01*
X0251508Y0013844D01*
X0251745Y0014255D01*
X0251868Y0014713D01*
X0251868Y0016311D02*
X0255866Y0016311D01*
X0255866Y0017988D02*
X0260238Y0017988D01*
X0260238Y0021868D01*
X0257429Y0021868D01*
X0256971Y0021745D01*
X0256561Y0021508D01*
X0256226Y0021173D01*
X0255989Y0020762D01*
X0255866Y0020305D01*
X0255866Y0017988D01*
X0251868Y0017988D02*
X0251868Y0020305D01*
X0251745Y0020762D01*
X0251508Y0021173D01*
X0251173Y0021508D01*
X0250762Y0021745D01*
X0250305Y0021868D01*
X0247496Y0021868D01*
X0247496Y0017988D01*
X0251868Y0017988D01*
X0251868Y0019508D02*
X0255866Y0019508D01*
X0256187Y0021106D02*
X0251546Y0021106D01*
X0247496Y0021106D02*
X0246537Y0021106D01*
X0246537Y0021868D02*
X0243728Y0021868D01*
X0243271Y0021745D01*
X0242860Y0021508D01*
X0242525Y0021173D01*
X0242288Y0020762D01*
X0242165Y0020305D01*
X0242165Y0017988D01*
X0246537Y0017988D01*
X0246537Y0017029D01*
X0247496Y0017029D01*
X0247496Y0017988D01*
X0246537Y0017988D01*
X0246537Y0021868D01*
X0242487Y0021106D02*
X0220247Y0021106D01*
X0220209Y0021173D02*
X0219874Y0021508D01*
X0219463Y0021745D01*
X0219005Y0021868D01*
X0216197Y0021868D01*
X0216197Y0017988D01*
X0220568Y0017988D01*
X0220568Y0020305D01*
X0220446Y0020762D01*
X0220209Y0021173D01*
X0220568Y0019508D02*
X0242165Y0019508D01*
X0246537Y0019508D02*
X0247496Y0019508D01*
X0247496Y0017909D02*
X0260238Y0017909D01*
X0261197Y0017909D02*
X0291537Y0017909D01*
X0291537Y0017988D02*
X0287165Y0017988D01*
X0287165Y0020305D01*
X0287288Y0020762D01*
X0287525Y0021173D01*
X0287860Y0021508D01*
X0288271Y0021745D01*
X0288728Y0021868D01*
X0291537Y0021868D01*
X0291537Y0017988D01*
X0292496Y0017909D02*
X0306488Y0017909D01*
X0306488Y0016311D02*
X0296868Y0016311D01*
X0292496Y0016311D02*
X0291537Y0016311D01*
X0287165Y0016311D02*
X0265568Y0016311D01*
X0261197Y0016311D02*
X0260238Y0016311D01*
X0260238Y0019508D02*
X0261197Y0019508D01*
X0265568Y0019508D02*
X0287165Y0019508D01*
X0287487Y0021106D02*
X0265247Y0021106D01*
X0261197Y0021106D02*
X0260238Y0021106D01*
X0246537Y0017909D02*
X0216197Y0017909D01*
X0216197Y0017988D02*
X0216197Y0017029D01*
X0220568Y0017029D01*
X0220568Y0014713D01*
X0220446Y0014255D01*
X0220209Y0013844D01*
X0219874Y0013509D01*
X0219463Y0013272D01*
X0219005Y0013150D01*
X0216197Y0013150D01*
X0216197Y0017029D01*
X0215238Y0017029D01*
X0215238Y0013150D01*
X0212429Y0013150D01*
X0211971Y0013272D01*
X0211561Y0013509D01*
X0211226Y0013844D01*
X0210989Y0014255D01*
X0210866Y0014713D01*
X0210866Y0017029D01*
X0215238Y0017029D01*
X0215238Y0017988D01*
X0210866Y0017988D01*
X0210866Y0020305D01*
X0210989Y0020762D01*
X0211226Y0021173D01*
X0211561Y0021508D01*
X0211971Y0021745D01*
X0212429Y0021868D01*
X0215238Y0021868D01*
X0215238Y0017988D01*
X0216197Y0017988D01*
X0215238Y0017909D02*
X0197496Y0017909D01*
X0197496Y0017988D02*
X0201868Y0017988D01*
X0201868Y0020305D01*
X0201745Y0020762D01*
X0201508Y0021173D01*
X0201173Y0021508D01*
X0200762Y0021745D01*
X0200305Y0021868D01*
X0197496Y0021868D01*
X0197496Y0017988D01*
X0197496Y0017029D01*
X0197496Y0013150D01*
X0200305Y0013150D01*
X0200762Y0013272D01*
X0201173Y0013509D01*
X0201508Y0013844D01*
X0201745Y0014255D01*
X0201868Y0014713D01*
X0201868Y0017029D01*
X0197496Y0017029D01*
X0196537Y0017029D01*
X0196537Y0013150D01*
X0193728Y0013150D01*
X0193271Y0013272D01*
X0192860Y0013509D01*
X0192525Y0013844D01*
X0192288Y0014255D01*
X0192165Y0014713D01*
X0192165Y0017029D01*
X0196537Y0017029D01*
X0196537Y0017988D01*
X0192165Y0017988D01*
X0192165Y0020305D01*
X0192288Y0020762D01*
X0192525Y0021173D01*
X0192860Y0021508D01*
X0193271Y0021745D01*
X0193728Y0021868D01*
X0196537Y0021868D01*
X0196537Y0017988D01*
X0197496Y0017988D01*
X0196537Y0017909D02*
X0166197Y0017909D01*
X0166197Y0017988D02*
X0170568Y0017988D01*
X0170568Y0020305D01*
X0170446Y0020762D01*
X0170209Y0021173D01*
X0169874Y0021508D01*
X0169463Y0021745D01*
X0169005Y0021868D01*
X0166197Y0021868D01*
X0166197Y0017988D01*
X0166197Y0017029D01*
X0170568Y0017029D01*
X0170568Y0014713D01*
X0170446Y0014255D01*
X0170209Y0013844D01*
X0169874Y0013509D01*
X0169463Y0013272D01*
X0169005Y0013150D01*
X0166197Y0013150D01*
X0166197Y0017029D01*
X0165238Y0017029D01*
X0165238Y0013150D01*
X0162429Y0013150D01*
X0161971Y0013272D01*
X0161561Y0013509D01*
X0161226Y0013844D01*
X0160989Y0014255D01*
X0160866Y0014713D01*
X0160866Y0017029D01*
X0165238Y0017029D01*
X0165238Y0017988D01*
X0160866Y0017988D01*
X0160866Y0020305D01*
X0160989Y0020762D01*
X0161226Y0021173D01*
X0161561Y0021508D01*
X0161971Y0021745D01*
X0162429Y0021868D01*
X0165238Y0021868D01*
X0165238Y0017988D01*
X0166197Y0017988D01*
X0165238Y0017909D02*
X0147496Y0017909D01*
X0147496Y0017988D02*
X0151868Y0017988D01*
X0151868Y0020305D01*
X0151745Y0020762D01*
X0151508Y0021173D01*
X0151173Y0021508D01*
X0150762Y0021745D01*
X0150305Y0021868D01*
X0147496Y0021868D01*
X0147496Y0017988D01*
X0147496Y0017029D01*
X0147496Y0013150D01*
X0150305Y0013150D01*
X0150762Y0013272D01*
X0151173Y0013509D01*
X0151508Y0013844D01*
X0151745Y0014255D01*
X0151868Y0014713D01*
X0151868Y0017029D01*
X0147496Y0017029D01*
X0146537Y0017029D01*
X0146537Y0013150D01*
X0143728Y0013150D01*
X0143271Y0013272D01*
X0142860Y0013509D01*
X0142525Y0013844D01*
X0142288Y0014255D01*
X0142165Y0014713D01*
X0142165Y0017029D01*
X0146537Y0017029D01*
X0146537Y0017988D01*
X0142165Y0017988D01*
X0142165Y0020305D01*
X0142288Y0020762D01*
X0142525Y0021173D01*
X0142860Y0021508D01*
X0143271Y0021745D01*
X0143728Y0021868D01*
X0146537Y0021868D01*
X0146537Y0017988D01*
X0147496Y0017988D01*
X0146537Y0017909D02*
X0116197Y0017909D01*
X0116197Y0017988D02*
X0120568Y0017988D01*
X0120568Y0020305D01*
X0120446Y0020762D01*
X0120209Y0021173D01*
X0119874Y0021508D01*
X0119463Y0021745D01*
X0119005Y0021868D01*
X0116197Y0021868D01*
X0116197Y0017988D01*
X0116197Y0017029D01*
X0120568Y0017029D01*
X0120568Y0014713D01*
X0120446Y0014255D01*
X0120209Y0013844D01*
X0119874Y0013509D01*
X0119463Y0013272D01*
X0119005Y0013150D01*
X0116197Y0013150D01*
X0116197Y0017029D01*
X0115238Y0017029D01*
X0115238Y0013150D01*
X0112429Y0013150D01*
X0111971Y0013272D01*
X0111561Y0013509D01*
X0111226Y0013844D01*
X0110989Y0014255D01*
X0110866Y0014713D01*
X0110866Y0017029D01*
X0115238Y0017029D01*
X0115238Y0017988D01*
X0110866Y0017988D01*
X0110866Y0020305D01*
X0110989Y0020762D01*
X0111226Y0021173D01*
X0111561Y0021508D01*
X0111971Y0021745D01*
X0112429Y0021868D01*
X0115238Y0021868D01*
X0115238Y0017988D01*
X0116197Y0017988D01*
X0115238Y0017909D02*
X0102496Y0017909D01*
X0102496Y0017988D02*
X0106868Y0017988D01*
X0106868Y0020305D01*
X0106745Y0020762D01*
X0106508Y0021173D01*
X0106173Y0021508D01*
X0105762Y0021745D01*
X0105305Y0021868D01*
X0102496Y0021868D01*
X0102496Y0017988D01*
X0102496Y0017029D01*
X0102496Y0013150D01*
X0105305Y0013150D01*
X0105762Y0013272D01*
X0106173Y0013509D01*
X0106508Y0013844D01*
X0106745Y0014255D01*
X0106868Y0014713D01*
X0106868Y0017029D01*
X0102496Y0017029D01*
X0101537Y0017029D01*
X0101537Y0013150D01*
X0098728Y0013150D01*
X0098271Y0013272D01*
X0097860Y0013509D01*
X0097525Y0013844D01*
X0097288Y0014255D01*
X0097165Y0014713D01*
X0097165Y0017029D01*
X0101537Y0017029D01*
X0101537Y0017988D01*
X0097165Y0017988D01*
X0097165Y0020305D01*
X0097288Y0020762D01*
X0097525Y0021173D01*
X0097860Y0021508D01*
X0098271Y0021745D01*
X0098728Y0021868D01*
X0101537Y0021868D01*
X0101537Y0017988D01*
X0102496Y0017988D01*
X0101537Y0017909D02*
X0071197Y0017909D01*
X0071197Y0017988D02*
X0075568Y0017988D01*
X0075568Y0020305D01*
X0075446Y0020762D01*
X0075209Y0021173D01*
X0074874Y0021508D01*
X0074463Y0021745D01*
X0074005Y0021868D01*
X0071197Y0021868D01*
X0071197Y0017988D01*
X0071197Y0017029D01*
X0075568Y0017029D01*
X0075568Y0014713D01*
X0075446Y0014255D01*
X0075209Y0013844D01*
X0074874Y0013509D01*
X0074463Y0013272D01*
X0074005Y0013150D01*
X0071197Y0013150D01*
X0071197Y0017029D01*
X0070238Y0017029D01*
X0070238Y0013150D01*
X0067429Y0013150D01*
X0066971Y0013272D01*
X0066561Y0013509D01*
X0066226Y0013844D01*
X0065989Y0014255D01*
X0065866Y0014713D01*
X0065866Y0017029D01*
X0070238Y0017029D01*
X0070238Y0017988D01*
X0065866Y0017988D01*
X0065866Y0020305D01*
X0065989Y0020762D01*
X0066226Y0021173D01*
X0066561Y0021508D01*
X0066971Y0021745D01*
X0067429Y0021868D01*
X0070238Y0021868D01*
X0070238Y0017988D01*
X0071197Y0017988D01*
X0070238Y0017909D02*
X0052496Y0017909D01*
X0052496Y0019508D02*
X0051537Y0019508D01*
X0047165Y0019508D02*
X0025568Y0019508D01*
X0025247Y0021106D02*
X0047487Y0021106D01*
X0051537Y0021106D02*
X0052496Y0021106D01*
X0056546Y0021106D02*
X0066187Y0021106D01*
X0070238Y0021106D02*
X0071197Y0021106D01*
X0071197Y0019508D02*
X0070238Y0019508D01*
X0065866Y0019508D02*
X0056868Y0019508D01*
X0056868Y0016311D02*
X0065866Y0016311D01*
X0070238Y0016311D02*
X0071197Y0016311D01*
X0071197Y0014712D02*
X0070238Y0014712D01*
X0065866Y0014712D02*
X0056868Y0014712D01*
X0052496Y0014712D02*
X0051537Y0014712D01*
X0047165Y0014712D02*
X0025568Y0014712D01*
X0021197Y0019508D02*
X0020238Y0019508D01*
X0015866Y0019508D02*
X0006167Y0019508D01*
X0006167Y0021106D02*
X0016187Y0021106D01*
X0020238Y0021106D02*
X0021197Y0021106D01*
X0006167Y0022705D02*
X0306488Y0022705D01*
X0306488Y0024303D02*
X0006167Y0024303D01*
X0006167Y0025902D02*
X0306488Y0025902D01*
X0306488Y0027500D02*
X0006167Y0027500D01*
X0025194Y0030697D02*
X0047540Y0030697D01*
X0052017Y0035225D02*
X0020717Y0035225D01*
X0021367Y0035225D01*
X0021367Y0061367D01*
X0020004Y0064266D02*
X0006167Y0064266D01*
X0006167Y0065865D02*
X0121142Y0065865D01*
X0121826Y0067463D02*
X0006167Y0067463D01*
X0006167Y0069062D02*
X0123590Y0069062D01*
X0129143Y0069062D02*
X0133590Y0069062D01*
X0131826Y0067463D02*
X0130907Y0067463D01*
X0139143Y0069062D02*
X0143590Y0069062D01*
X0141826Y0067463D02*
X0140907Y0067463D01*
X0149143Y0069062D02*
X0153590Y0069062D01*
X0159143Y0069062D02*
X0163590Y0069062D01*
X0169143Y0069062D02*
X0173590Y0069062D01*
X0171826Y0067463D02*
X0170907Y0067463D01*
X0179143Y0069062D02*
X0185325Y0069062D01*
X0186167Y0069062D02*
X0186567Y0069062D01*
X0187409Y0069062D02*
X0306488Y0069062D01*
X0306488Y0070268D02*
X0006167Y0070268D01*
X0006167Y0006167D01*
X0306488Y0006167D01*
X0306488Y0070268D01*
X0306488Y0067463D02*
X0190050Y0067463D01*
X0186567Y0067463D02*
X0186167Y0067463D01*
X0182683Y0067463D02*
X0180907Y0067463D01*
X0181591Y0065865D02*
X0181807Y0065865D01*
X0186167Y0065865D02*
X0186567Y0065865D01*
X0190927Y0065865D02*
X0306488Y0065865D01*
X0306488Y0064266D02*
X0191167Y0064266D01*
X0186567Y0064266D02*
X0186167Y0064266D01*
X0161826Y0067463D02*
X0160907Y0067463D01*
X0151826Y0067463D02*
X0150907Y0067463D01*
X0120967Y0057872D02*
X0024567Y0057872D01*
X0024567Y0056274D02*
X0121389Y0056274D01*
X0122422Y0054675D02*
X0024567Y0054675D01*
X0024567Y0053077D02*
X0068611Y0053077D01*
X0068167Y0051478D02*
X0024567Y0051478D01*
X0024567Y0049880D02*
X0068167Y0049880D01*
X0068167Y0048281D02*
X0024567Y0048281D01*
X0024567Y0046683D02*
X0068167Y0046683D01*
X0074567Y0046683D02*
X0143167Y0046683D01*
X0143167Y0048281D02*
X0137279Y0048281D01*
X0139215Y0049880D02*
X0143167Y0049880D01*
X0143167Y0051478D02*
X0139567Y0051478D01*
X0139567Y0053077D02*
X0143167Y0053077D01*
X0142422Y0054675D02*
X0140312Y0054675D01*
X0141345Y0056274D02*
X0141389Y0056274D01*
X0150312Y0054675D02*
X0152422Y0054675D01*
X0153167Y0053077D02*
X0149567Y0053077D01*
X0149567Y0051478D02*
X0153167Y0051478D01*
X0153167Y0049880D02*
X0149567Y0049880D01*
X0149567Y0048281D02*
X0153167Y0048281D01*
X0153167Y0046683D02*
X0149567Y0046683D01*
X0159567Y0046683D02*
X0163167Y0046683D01*
X0163167Y0048281D02*
X0159567Y0048281D01*
X0159567Y0049880D02*
X0163167Y0049880D01*
X0163167Y0051478D02*
X0159567Y0051478D01*
X0159567Y0053077D02*
X0163167Y0053077D01*
X0162422Y0054675D02*
X0160312Y0054675D01*
X0161345Y0056274D02*
X0161389Y0056274D01*
X0151389Y0056274D02*
X0151345Y0056274D01*
X0170194Y0030697D02*
X0192540Y0030697D01*
X0192487Y0021106D02*
X0170247Y0021106D01*
X0166197Y0021106D02*
X0165238Y0021106D01*
X0161187Y0021106D02*
X0151546Y0021106D01*
X0147496Y0021106D02*
X0146537Y0021106D01*
X0142487Y0021106D02*
X0120247Y0021106D01*
X0116197Y0021106D02*
X0115238Y0021106D01*
X0111187Y0021106D02*
X0106546Y0021106D01*
X0102496Y0021106D02*
X0101537Y0021106D01*
X0097487Y0021106D02*
X0075247Y0021106D01*
X0075568Y0019508D02*
X0097165Y0019508D01*
X0101537Y0019508D02*
X0102496Y0019508D01*
X0106868Y0019508D02*
X0110866Y0019508D01*
X0115238Y0019508D02*
X0116197Y0019508D01*
X0120568Y0019508D02*
X0142165Y0019508D01*
X0146537Y0019508D02*
X0147496Y0019508D01*
X0151868Y0019508D02*
X0160866Y0019508D01*
X0165238Y0019508D02*
X0166197Y0019508D01*
X0170568Y0019508D02*
X0192165Y0019508D01*
X0196537Y0019508D02*
X0197496Y0019508D01*
X0201868Y0019508D02*
X0210866Y0019508D01*
X0215238Y0019508D02*
X0216197Y0019508D01*
X0216197Y0021106D02*
X0215238Y0021106D01*
X0211187Y0021106D02*
X0201546Y0021106D01*
X0197496Y0021106D02*
X0196537Y0021106D01*
X0196537Y0016311D02*
X0197496Y0016311D01*
X0201868Y0016311D02*
X0210866Y0016311D01*
X0215238Y0016311D02*
X0216197Y0016311D01*
X0216197Y0014712D02*
X0215238Y0014712D01*
X0210866Y0014712D02*
X0201868Y0014712D01*
X0197496Y0014712D02*
X0196537Y0014712D01*
X0192165Y0014712D02*
X0170568Y0014712D01*
X0166197Y0014712D02*
X0165238Y0014712D01*
X0160866Y0014712D02*
X0151868Y0014712D01*
X0147496Y0014712D02*
X0146537Y0014712D01*
X0142165Y0014712D02*
X0120568Y0014712D01*
X0116197Y0014712D02*
X0115238Y0014712D01*
X0110866Y0014712D02*
X0106868Y0014712D01*
X0106868Y0016311D02*
X0110866Y0016311D01*
X0115238Y0016311D02*
X0116197Y0016311D01*
X0120568Y0016311D02*
X0142165Y0016311D01*
X0146537Y0016311D02*
X0147496Y0016311D01*
X0151868Y0016311D02*
X0160866Y0016311D01*
X0165238Y0016311D02*
X0166197Y0016311D01*
X0170568Y0016311D02*
X0192165Y0016311D01*
X0220568Y0016311D02*
X0242165Y0016311D01*
X0242165Y0017029D02*
X0242165Y0014713D01*
X0242288Y0014255D01*
X0242525Y0013844D01*
X0242860Y0013509D01*
X0243271Y0013272D01*
X0243728Y0013150D01*
X0246537Y0013150D01*
X0246537Y0017029D01*
X0242165Y0017029D01*
X0246537Y0016311D02*
X0247496Y0016311D01*
X0247496Y0014712D02*
X0246537Y0014712D01*
X0242165Y0014712D02*
X0220568Y0014712D01*
X0291537Y0019508D02*
X0292496Y0019508D01*
X0296868Y0019508D02*
X0306488Y0019508D01*
X0306488Y0021106D02*
X0296546Y0021106D01*
X0292496Y0021106D02*
X0291537Y0021106D01*
X0306488Y0011515D02*
X0006167Y0011515D01*
X0006167Y0009917D02*
X0306488Y0009917D01*
X0306488Y0008318D02*
X0006167Y0008318D01*
X0006167Y0006720D02*
X0306488Y0006720D01*
X0102496Y0014712D02*
X0101537Y0014712D01*
X0101537Y0016311D02*
X0102496Y0016311D01*
X0097165Y0016311D02*
X0075568Y0016311D01*
X0075568Y0014712D02*
X0097165Y0014712D01*
X0046743Y0038690D02*
X0025991Y0038690D01*
M02*
