G75*
%MOIN*%
%OFA0B0*%
%FSLAX25Y25*%
%IPPOS*%
%LPD*%
%AMOC8*
5,1,8,0,0,1.08239X$1,22.5*
%
%ADD10C,0.00600*%
%ADD11C,0.00800*%
D10*
X0121367Y0058867D02*
X0123867Y0056367D01*
X0128867Y0056367D01*
X0131367Y0058867D01*
X0133867Y0056367D01*
X0138867Y0056367D01*
X0141367Y0058867D01*
X0141367Y0063867D01*
X0138867Y0066367D01*
X0133867Y0066367D01*
X0131367Y0063867D01*
X0131367Y0058867D01*
X0121367Y0058867D02*
X0121367Y0063867D01*
X0123867Y0066367D01*
X0128867Y0066367D01*
X0131367Y0063867D01*
X0141367Y0063867D02*
X0143867Y0066367D01*
X0148867Y0066367D01*
X0151367Y0063867D01*
X0153867Y0066367D01*
X0158867Y0066367D01*
X0161367Y0063867D01*
X0163867Y0066367D01*
X0168867Y0066367D01*
X0171367Y0063867D01*
X0171367Y0058867D01*
X0168867Y0056367D01*
X0163867Y0056367D01*
X0161367Y0058867D01*
X0158867Y0056367D01*
X0153867Y0056367D01*
X0151367Y0058867D01*
X0148867Y0056367D01*
X0143867Y0056367D01*
X0141367Y0058867D01*
X0151367Y0058867D02*
X0151367Y0063867D01*
X0161367Y0063867D02*
X0161367Y0058867D01*
X0171367Y0058867D02*
X0173867Y0056367D01*
X0178867Y0056367D01*
X0181367Y0058867D01*
X0183867Y0056367D01*
X0188867Y0056367D01*
X0191367Y0058867D01*
X0191367Y0063867D01*
X0188867Y0066367D01*
X0183867Y0066367D01*
X0181367Y0063867D01*
X0181367Y0058867D01*
X0181367Y0063867D02*
X0178867Y0066367D01*
X0173867Y0066367D01*
X0171367Y0063867D01*
D11*
X0047194Y0014162D02*
X0025540Y0014162D01*
X0024162Y0022430D02*
X0024162Y0030304D01*
X0029477Y0026367D02*
X0029479Y0026536D01*
X0029485Y0026705D01*
X0029496Y0026874D01*
X0029510Y0027042D01*
X0029529Y0027210D01*
X0029552Y0027378D01*
X0029578Y0027545D01*
X0029609Y0027711D01*
X0029644Y0027877D01*
X0029683Y0028041D01*
X0029727Y0028205D01*
X0029774Y0028367D01*
X0029825Y0028528D01*
X0029880Y0028688D01*
X0029939Y0028847D01*
X0030001Y0029004D01*
X0030068Y0029159D01*
X0030139Y0029313D01*
X0030213Y0029465D01*
X0030291Y0029615D01*
X0030372Y0029763D01*
X0030457Y0029909D01*
X0030546Y0030053D01*
X0030638Y0030195D01*
X0030734Y0030334D01*
X0030833Y0030471D01*
X0030935Y0030606D01*
X0031041Y0030738D01*
X0031150Y0030867D01*
X0031262Y0030994D01*
X0031377Y0031118D01*
X0031495Y0031239D01*
X0031616Y0031357D01*
X0031740Y0031472D01*
X0031867Y0031584D01*
X0031996Y0031693D01*
X0032128Y0031799D01*
X0032263Y0031901D01*
X0032400Y0032000D01*
X0032539Y0032096D01*
X0032681Y0032188D01*
X0032825Y0032277D01*
X0032971Y0032362D01*
X0033119Y0032443D01*
X0033269Y0032521D01*
X0033421Y0032595D01*
X0033575Y0032666D01*
X0033730Y0032733D01*
X0033887Y0032795D01*
X0034046Y0032854D01*
X0034206Y0032909D01*
X0034367Y0032960D01*
X0034529Y0033007D01*
X0034693Y0033051D01*
X0034857Y0033090D01*
X0035023Y0033125D01*
X0035189Y0033156D01*
X0035356Y0033182D01*
X0035524Y0033205D01*
X0035692Y0033224D01*
X0035860Y0033238D01*
X0036029Y0033249D01*
X0036198Y0033255D01*
X0036367Y0033257D01*
X0036536Y0033255D01*
X0036705Y0033249D01*
X0036874Y0033238D01*
X0037042Y0033224D01*
X0037210Y0033205D01*
X0037378Y0033182D01*
X0037545Y0033156D01*
X0037711Y0033125D01*
X0037877Y0033090D01*
X0038041Y0033051D01*
X0038205Y0033007D01*
X0038367Y0032960D01*
X0038528Y0032909D01*
X0038688Y0032854D01*
X0038847Y0032795D01*
X0039004Y0032733D01*
X0039159Y0032666D01*
X0039313Y0032595D01*
X0039465Y0032521D01*
X0039615Y0032443D01*
X0039763Y0032362D01*
X0039909Y0032277D01*
X0040053Y0032188D01*
X0040195Y0032096D01*
X0040334Y0032000D01*
X0040471Y0031901D01*
X0040606Y0031799D01*
X0040738Y0031693D01*
X0040867Y0031584D01*
X0040994Y0031472D01*
X0041118Y0031357D01*
X0041239Y0031239D01*
X0041357Y0031118D01*
X0041472Y0030994D01*
X0041584Y0030867D01*
X0041693Y0030738D01*
X0041799Y0030606D01*
X0041901Y0030471D01*
X0042000Y0030334D01*
X0042096Y0030195D01*
X0042188Y0030053D01*
X0042277Y0029909D01*
X0042362Y0029763D01*
X0042443Y0029615D01*
X0042521Y0029465D01*
X0042595Y0029313D01*
X0042666Y0029159D01*
X0042733Y0029004D01*
X0042795Y0028847D01*
X0042854Y0028688D01*
X0042909Y0028528D01*
X0042960Y0028367D01*
X0043007Y0028205D01*
X0043051Y0028041D01*
X0043090Y0027877D01*
X0043125Y0027711D01*
X0043156Y0027545D01*
X0043182Y0027378D01*
X0043205Y0027210D01*
X0043224Y0027042D01*
X0043238Y0026874D01*
X0043249Y0026705D01*
X0043255Y0026536D01*
X0043257Y0026367D01*
X0043255Y0026198D01*
X0043249Y0026029D01*
X0043238Y0025860D01*
X0043224Y0025692D01*
X0043205Y0025524D01*
X0043182Y0025356D01*
X0043156Y0025189D01*
X0043125Y0025023D01*
X0043090Y0024857D01*
X0043051Y0024693D01*
X0043007Y0024529D01*
X0042960Y0024367D01*
X0042909Y0024206D01*
X0042854Y0024046D01*
X0042795Y0023887D01*
X0042733Y0023730D01*
X0042666Y0023575D01*
X0042595Y0023421D01*
X0042521Y0023269D01*
X0042443Y0023119D01*
X0042362Y0022971D01*
X0042277Y0022825D01*
X0042188Y0022681D01*
X0042096Y0022539D01*
X0042000Y0022400D01*
X0041901Y0022263D01*
X0041799Y0022128D01*
X0041693Y0021996D01*
X0041584Y0021867D01*
X0041472Y0021740D01*
X0041357Y0021616D01*
X0041239Y0021495D01*
X0041118Y0021377D01*
X0040994Y0021262D01*
X0040867Y0021150D01*
X0040738Y0021041D01*
X0040606Y0020935D01*
X0040471Y0020833D01*
X0040334Y0020734D01*
X0040195Y0020638D01*
X0040053Y0020546D01*
X0039909Y0020457D01*
X0039763Y0020372D01*
X0039615Y0020291D01*
X0039465Y0020213D01*
X0039313Y0020139D01*
X0039159Y0020068D01*
X0039004Y0020001D01*
X0038847Y0019939D01*
X0038688Y0019880D01*
X0038528Y0019825D01*
X0038367Y0019774D01*
X0038205Y0019727D01*
X0038041Y0019683D01*
X0037877Y0019644D01*
X0037711Y0019609D01*
X0037545Y0019578D01*
X0037378Y0019552D01*
X0037210Y0019529D01*
X0037042Y0019510D01*
X0036874Y0019496D01*
X0036705Y0019485D01*
X0036536Y0019479D01*
X0036367Y0019477D01*
X0036198Y0019479D01*
X0036029Y0019485D01*
X0035860Y0019496D01*
X0035692Y0019510D01*
X0035524Y0019529D01*
X0035356Y0019552D01*
X0035189Y0019578D01*
X0035023Y0019609D01*
X0034857Y0019644D01*
X0034693Y0019683D01*
X0034529Y0019727D01*
X0034367Y0019774D01*
X0034206Y0019825D01*
X0034046Y0019880D01*
X0033887Y0019939D01*
X0033730Y0020001D01*
X0033575Y0020068D01*
X0033421Y0020139D01*
X0033269Y0020213D01*
X0033119Y0020291D01*
X0032971Y0020372D01*
X0032825Y0020457D01*
X0032681Y0020546D01*
X0032539Y0020638D01*
X0032400Y0020734D01*
X0032263Y0020833D01*
X0032128Y0020935D01*
X0031996Y0021041D01*
X0031867Y0021150D01*
X0031740Y0021262D01*
X0031616Y0021377D01*
X0031495Y0021495D01*
X0031377Y0021616D01*
X0031262Y0021740D01*
X0031150Y0021867D01*
X0031041Y0021996D01*
X0030935Y0022128D01*
X0030833Y0022263D01*
X0030734Y0022400D01*
X0030638Y0022539D01*
X0030546Y0022681D01*
X0030457Y0022825D01*
X0030372Y0022971D01*
X0030291Y0023119D01*
X0030213Y0023269D01*
X0030139Y0023421D01*
X0030068Y0023575D01*
X0030001Y0023730D01*
X0029939Y0023887D01*
X0029880Y0024046D01*
X0029825Y0024206D01*
X0029774Y0024367D01*
X0029727Y0024529D01*
X0029683Y0024693D01*
X0029644Y0024857D01*
X0029609Y0025023D01*
X0029578Y0025189D01*
X0029552Y0025356D01*
X0029529Y0025524D01*
X0029510Y0025692D01*
X0029496Y0025860D01*
X0029485Y0026029D01*
X0029479Y0026198D01*
X0029477Y0026367D01*
X0048572Y0030304D02*
X0048572Y0022430D01*
X0074162Y0022430D02*
X0074162Y0030304D01*
X0079477Y0026367D02*
X0079479Y0026536D01*
X0079485Y0026705D01*
X0079496Y0026874D01*
X0079510Y0027042D01*
X0079529Y0027210D01*
X0079552Y0027378D01*
X0079578Y0027545D01*
X0079609Y0027711D01*
X0079644Y0027877D01*
X0079683Y0028041D01*
X0079727Y0028205D01*
X0079774Y0028367D01*
X0079825Y0028528D01*
X0079880Y0028688D01*
X0079939Y0028847D01*
X0080001Y0029004D01*
X0080068Y0029159D01*
X0080139Y0029313D01*
X0080213Y0029465D01*
X0080291Y0029615D01*
X0080372Y0029763D01*
X0080457Y0029909D01*
X0080546Y0030053D01*
X0080638Y0030195D01*
X0080734Y0030334D01*
X0080833Y0030471D01*
X0080935Y0030606D01*
X0081041Y0030738D01*
X0081150Y0030867D01*
X0081262Y0030994D01*
X0081377Y0031118D01*
X0081495Y0031239D01*
X0081616Y0031357D01*
X0081740Y0031472D01*
X0081867Y0031584D01*
X0081996Y0031693D01*
X0082128Y0031799D01*
X0082263Y0031901D01*
X0082400Y0032000D01*
X0082539Y0032096D01*
X0082681Y0032188D01*
X0082825Y0032277D01*
X0082971Y0032362D01*
X0083119Y0032443D01*
X0083269Y0032521D01*
X0083421Y0032595D01*
X0083575Y0032666D01*
X0083730Y0032733D01*
X0083887Y0032795D01*
X0084046Y0032854D01*
X0084206Y0032909D01*
X0084367Y0032960D01*
X0084529Y0033007D01*
X0084693Y0033051D01*
X0084857Y0033090D01*
X0085023Y0033125D01*
X0085189Y0033156D01*
X0085356Y0033182D01*
X0085524Y0033205D01*
X0085692Y0033224D01*
X0085860Y0033238D01*
X0086029Y0033249D01*
X0086198Y0033255D01*
X0086367Y0033257D01*
X0086536Y0033255D01*
X0086705Y0033249D01*
X0086874Y0033238D01*
X0087042Y0033224D01*
X0087210Y0033205D01*
X0087378Y0033182D01*
X0087545Y0033156D01*
X0087711Y0033125D01*
X0087877Y0033090D01*
X0088041Y0033051D01*
X0088205Y0033007D01*
X0088367Y0032960D01*
X0088528Y0032909D01*
X0088688Y0032854D01*
X0088847Y0032795D01*
X0089004Y0032733D01*
X0089159Y0032666D01*
X0089313Y0032595D01*
X0089465Y0032521D01*
X0089615Y0032443D01*
X0089763Y0032362D01*
X0089909Y0032277D01*
X0090053Y0032188D01*
X0090195Y0032096D01*
X0090334Y0032000D01*
X0090471Y0031901D01*
X0090606Y0031799D01*
X0090738Y0031693D01*
X0090867Y0031584D01*
X0090994Y0031472D01*
X0091118Y0031357D01*
X0091239Y0031239D01*
X0091357Y0031118D01*
X0091472Y0030994D01*
X0091584Y0030867D01*
X0091693Y0030738D01*
X0091799Y0030606D01*
X0091901Y0030471D01*
X0092000Y0030334D01*
X0092096Y0030195D01*
X0092188Y0030053D01*
X0092277Y0029909D01*
X0092362Y0029763D01*
X0092443Y0029615D01*
X0092521Y0029465D01*
X0092595Y0029313D01*
X0092666Y0029159D01*
X0092733Y0029004D01*
X0092795Y0028847D01*
X0092854Y0028688D01*
X0092909Y0028528D01*
X0092960Y0028367D01*
X0093007Y0028205D01*
X0093051Y0028041D01*
X0093090Y0027877D01*
X0093125Y0027711D01*
X0093156Y0027545D01*
X0093182Y0027378D01*
X0093205Y0027210D01*
X0093224Y0027042D01*
X0093238Y0026874D01*
X0093249Y0026705D01*
X0093255Y0026536D01*
X0093257Y0026367D01*
X0093255Y0026198D01*
X0093249Y0026029D01*
X0093238Y0025860D01*
X0093224Y0025692D01*
X0093205Y0025524D01*
X0093182Y0025356D01*
X0093156Y0025189D01*
X0093125Y0025023D01*
X0093090Y0024857D01*
X0093051Y0024693D01*
X0093007Y0024529D01*
X0092960Y0024367D01*
X0092909Y0024206D01*
X0092854Y0024046D01*
X0092795Y0023887D01*
X0092733Y0023730D01*
X0092666Y0023575D01*
X0092595Y0023421D01*
X0092521Y0023269D01*
X0092443Y0023119D01*
X0092362Y0022971D01*
X0092277Y0022825D01*
X0092188Y0022681D01*
X0092096Y0022539D01*
X0092000Y0022400D01*
X0091901Y0022263D01*
X0091799Y0022128D01*
X0091693Y0021996D01*
X0091584Y0021867D01*
X0091472Y0021740D01*
X0091357Y0021616D01*
X0091239Y0021495D01*
X0091118Y0021377D01*
X0090994Y0021262D01*
X0090867Y0021150D01*
X0090738Y0021041D01*
X0090606Y0020935D01*
X0090471Y0020833D01*
X0090334Y0020734D01*
X0090195Y0020638D01*
X0090053Y0020546D01*
X0089909Y0020457D01*
X0089763Y0020372D01*
X0089615Y0020291D01*
X0089465Y0020213D01*
X0089313Y0020139D01*
X0089159Y0020068D01*
X0089004Y0020001D01*
X0088847Y0019939D01*
X0088688Y0019880D01*
X0088528Y0019825D01*
X0088367Y0019774D01*
X0088205Y0019727D01*
X0088041Y0019683D01*
X0087877Y0019644D01*
X0087711Y0019609D01*
X0087545Y0019578D01*
X0087378Y0019552D01*
X0087210Y0019529D01*
X0087042Y0019510D01*
X0086874Y0019496D01*
X0086705Y0019485D01*
X0086536Y0019479D01*
X0086367Y0019477D01*
X0086198Y0019479D01*
X0086029Y0019485D01*
X0085860Y0019496D01*
X0085692Y0019510D01*
X0085524Y0019529D01*
X0085356Y0019552D01*
X0085189Y0019578D01*
X0085023Y0019609D01*
X0084857Y0019644D01*
X0084693Y0019683D01*
X0084529Y0019727D01*
X0084367Y0019774D01*
X0084206Y0019825D01*
X0084046Y0019880D01*
X0083887Y0019939D01*
X0083730Y0020001D01*
X0083575Y0020068D01*
X0083421Y0020139D01*
X0083269Y0020213D01*
X0083119Y0020291D01*
X0082971Y0020372D01*
X0082825Y0020457D01*
X0082681Y0020546D01*
X0082539Y0020638D01*
X0082400Y0020734D01*
X0082263Y0020833D01*
X0082128Y0020935D01*
X0081996Y0021041D01*
X0081867Y0021150D01*
X0081740Y0021262D01*
X0081616Y0021377D01*
X0081495Y0021495D01*
X0081377Y0021616D01*
X0081262Y0021740D01*
X0081150Y0021867D01*
X0081041Y0021996D01*
X0080935Y0022128D01*
X0080833Y0022263D01*
X0080734Y0022400D01*
X0080638Y0022539D01*
X0080546Y0022681D01*
X0080457Y0022825D01*
X0080372Y0022971D01*
X0080291Y0023119D01*
X0080213Y0023269D01*
X0080139Y0023421D01*
X0080068Y0023575D01*
X0080001Y0023730D01*
X0079939Y0023887D01*
X0079880Y0024046D01*
X0079825Y0024206D01*
X0079774Y0024367D01*
X0079727Y0024529D01*
X0079683Y0024693D01*
X0079644Y0024857D01*
X0079609Y0025023D01*
X0079578Y0025189D01*
X0079552Y0025356D01*
X0079529Y0025524D01*
X0079510Y0025692D01*
X0079496Y0025860D01*
X0079485Y0026029D01*
X0079479Y0026198D01*
X0079477Y0026367D01*
X0098572Y0030304D02*
X0098572Y0022430D01*
X0119162Y0022430D02*
X0119162Y0030304D01*
X0124477Y0026367D02*
X0124479Y0026536D01*
X0124485Y0026705D01*
X0124496Y0026874D01*
X0124510Y0027042D01*
X0124529Y0027210D01*
X0124552Y0027378D01*
X0124578Y0027545D01*
X0124609Y0027711D01*
X0124644Y0027877D01*
X0124683Y0028041D01*
X0124727Y0028205D01*
X0124774Y0028367D01*
X0124825Y0028528D01*
X0124880Y0028688D01*
X0124939Y0028847D01*
X0125001Y0029004D01*
X0125068Y0029159D01*
X0125139Y0029313D01*
X0125213Y0029465D01*
X0125291Y0029615D01*
X0125372Y0029763D01*
X0125457Y0029909D01*
X0125546Y0030053D01*
X0125638Y0030195D01*
X0125734Y0030334D01*
X0125833Y0030471D01*
X0125935Y0030606D01*
X0126041Y0030738D01*
X0126150Y0030867D01*
X0126262Y0030994D01*
X0126377Y0031118D01*
X0126495Y0031239D01*
X0126616Y0031357D01*
X0126740Y0031472D01*
X0126867Y0031584D01*
X0126996Y0031693D01*
X0127128Y0031799D01*
X0127263Y0031901D01*
X0127400Y0032000D01*
X0127539Y0032096D01*
X0127681Y0032188D01*
X0127825Y0032277D01*
X0127971Y0032362D01*
X0128119Y0032443D01*
X0128269Y0032521D01*
X0128421Y0032595D01*
X0128575Y0032666D01*
X0128730Y0032733D01*
X0128887Y0032795D01*
X0129046Y0032854D01*
X0129206Y0032909D01*
X0129367Y0032960D01*
X0129529Y0033007D01*
X0129693Y0033051D01*
X0129857Y0033090D01*
X0130023Y0033125D01*
X0130189Y0033156D01*
X0130356Y0033182D01*
X0130524Y0033205D01*
X0130692Y0033224D01*
X0130860Y0033238D01*
X0131029Y0033249D01*
X0131198Y0033255D01*
X0131367Y0033257D01*
X0131536Y0033255D01*
X0131705Y0033249D01*
X0131874Y0033238D01*
X0132042Y0033224D01*
X0132210Y0033205D01*
X0132378Y0033182D01*
X0132545Y0033156D01*
X0132711Y0033125D01*
X0132877Y0033090D01*
X0133041Y0033051D01*
X0133205Y0033007D01*
X0133367Y0032960D01*
X0133528Y0032909D01*
X0133688Y0032854D01*
X0133847Y0032795D01*
X0134004Y0032733D01*
X0134159Y0032666D01*
X0134313Y0032595D01*
X0134465Y0032521D01*
X0134615Y0032443D01*
X0134763Y0032362D01*
X0134909Y0032277D01*
X0135053Y0032188D01*
X0135195Y0032096D01*
X0135334Y0032000D01*
X0135471Y0031901D01*
X0135606Y0031799D01*
X0135738Y0031693D01*
X0135867Y0031584D01*
X0135994Y0031472D01*
X0136118Y0031357D01*
X0136239Y0031239D01*
X0136357Y0031118D01*
X0136472Y0030994D01*
X0136584Y0030867D01*
X0136693Y0030738D01*
X0136799Y0030606D01*
X0136901Y0030471D01*
X0137000Y0030334D01*
X0137096Y0030195D01*
X0137188Y0030053D01*
X0137277Y0029909D01*
X0137362Y0029763D01*
X0137443Y0029615D01*
X0137521Y0029465D01*
X0137595Y0029313D01*
X0137666Y0029159D01*
X0137733Y0029004D01*
X0137795Y0028847D01*
X0137854Y0028688D01*
X0137909Y0028528D01*
X0137960Y0028367D01*
X0138007Y0028205D01*
X0138051Y0028041D01*
X0138090Y0027877D01*
X0138125Y0027711D01*
X0138156Y0027545D01*
X0138182Y0027378D01*
X0138205Y0027210D01*
X0138224Y0027042D01*
X0138238Y0026874D01*
X0138249Y0026705D01*
X0138255Y0026536D01*
X0138257Y0026367D01*
X0138255Y0026198D01*
X0138249Y0026029D01*
X0138238Y0025860D01*
X0138224Y0025692D01*
X0138205Y0025524D01*
X0138182Y0025356D01*
X0138156Y0025189D01*
X0138125Y0025023D01*
X0138090Y0024857D01*
X0138051Y0024693D01*
X0138007Y0024529D01*
X0137960Y0024367D01*
X0137909Y0024206D01*
X0137854Y0024046D01*
X0137795Y0023887D01*
X0137733Y0023730D01*
X0137666Y0023575D01*
X0137595Y0023421D01*
X0137521Y0023269D01*
X0137443Y0023119D01*
X0137362Y0022971D01*
X0137277Y0022825D01*
X0137188Y0022681D01*
X0137096Y0022539D01*
X0137000Y0022400D01*
X0136901Y0022263D01*
X0136799Y0022128D01*
X0136693Y0021996D01*
X0136584Y0021867D01*
X0136472Y0021740D01*
X0136357Y0021616D01*
X0136239Y0021495D01*
X0136118Y0021377D01*
X0135994Y0021262D01*
X0135867Y0021150D01*
X0135738Y0021041D01*
X0135606Y0020935D01*
X0135471Y0020833D01*
X0135334Y0020734D01*
X0135195Y0020638D01*
X0135053Y0020546D01*
X0134909Y0020457D01*
X0134763Y0020372D01*
X0134615Y0020291D01*
X0134465Y0020213D01*
X0134313Y0020139D01*
X0134159Y0020068D01*
X0134004Y0020001D01*
X0133847Y0019939D01*
X0133688Y0019880D01*
X0133528Y0019825D01*
X0133367Y0019774D01*
X0133205Y0019727D01*
X0133041Y0019683D01*
X0132877Y0019644D01*
X0132711Y0019609D01*
X0132545Y0019578D01*
X0132378Y0019552D01*
X0132210Y0019529D01*
X0132042Y0019510D01*
X0131874Y0019496D01*
X0131705Y0019485D01*
X0131536Y0019479D01*
X0131367Y0019477D01*
X0131198Y0019479D01*
X0131029Y0019485D01*
X0130860Y0019496D01*
X0130692Y0019510D01*
X0130524Y0019529D01*
X0130356Y0019552D01*
X0130189Y0019578D01*
X0130023Y0019609D01*
X0129857Y0019644D01*
X0129693Y0019683D01*
X0129529Y0019727D01*
X0129367Y0019774D01*
X0129206Y0019825D01*
X0129046Y0019880D01*
X0128887Y0019939D01*
X0128730Y0020001D01*
X0128575Y0020068D01*
X0128421Y0020139D01*
X0128269Y0020213D01*
X0128119Y0020291D01*
X0127971Y0020372D01*
X0127825Y0020457D01*
X0127681Y0020546D01*
X0127539Y0020638D01*
X0127400Y0020734D01*
X0127263Y0020833D01*
X0127128Y0020935D01*
X0126996Y0021041D01*
X0126867Y0021150D01*
X0126740Y0021262D01*
X0126616Y0021377D01*
X0126495Y0021495D01*
X0126377Y0021616D01*
X0126262Y0021740D01*
X0126150Y0021867D01*
X0126041Y0021996D01*
X0125935Y0022128D01*
X0125833Y0022263D01*
X0125734Y0022400D01*
X0125638Y0022539D01*
X0125546Y0022681D01*
X0125457Y0022825D01*
X0125372Y0022971D01*
X0125291Y0023119D01*
X0125213Y0023269D01*
X0125139Y0023421D01*
X0125068Y0023575D01*
X0125001Y0023730D01*
X0124939Y0023887D01*
X0124880Y0024046D01*
X0124825Y0024206D01*
X0124774Y0024367D01*
X0124727Y0024529D01*
X0124683Y0024693D01*
X0124644Y0024857D01*
X0124609Y0025023D01*
X0124578Y0025189D01*
X0124552Y0025356D01*
X0124529Y0025524D01*
X0124510Y0025692D01*
X0124496Y0025860D01*
X0124485Y0026029D01*
X0124479Y0026198D01*
X0124477Y0026367D01*
X0143572Y0030304D02*
X0143572Y0022430D01*
X0169162Y0022430D02*
X0169162Y0030304D01*
X0174477Y0026367D02*
X0174479Y0026536D01*
X0174485Y0026705D01*
X0174496Y0026874D01*
X0174510Y0027042D01*
X0174529Y0027210D01*
X0174552Y0027378D01*
X0174578Y0027545D01*
X0174609Y0027711D01*
X0174644Y0027877D01*
X0174683Y0028041D01*
X0174727Y0028205D01*
X0174774Y0028367D01*
X0174825Y0028528D01*
X0174880Y0028688D01*
X0174939Y0028847D01*
X0175001Y0029004D01*
X0175068Y0029159D01*
X0175139Y0029313D01*
X0175213Y0029465D01*
X0175291Y0029615D01*
X0175372Y0029763D01*
X0175457Y0029909D01*
X0175546Y0030053D01*
X0175638Y0030195D01*
X0175734Y0030334D01*
X0175833Y0030471D01*
X0175935Y0030606D01*
X0176041Y0030738D01*
X0176150Y0030867D01*
X0176262Y0030994D01*
X0176377Y0031118D01*
X0176495Y0031239D01*
X0176616Y0031357D01*
X0176740Y0031472D01*
X0176867Y0031584D01*
X0176996Y0031693D01*
X0177128Y0031799D01*
X0177263Y0031901D01*
X0177400Y0032000D01*
X0177539Y0032096D01*
X0177681Y0032188D01*
X0177825Y0032277D01*
X0177971Y0032362D01*
X0178119Y0032443D01*
X0178269Y0032521D01*
X0178421Y0032595D01*
X0178575Y0032666D01*
X0178730Y0032733D01*
X0178887Y0032795D01*
X0179046Y0032854D01*
X0179206Y0032909D01*
X0179367Y0032960D01*
X0179529Y0033007D01*
X0179693Y0033051D01*
X0179857Y0033090D01*
X0180023Y0033125D01*
X0180189Y0033156D01*
X0180356Y0033182D01*
X0180524Y0033205D01*
X0180692Y0033224D01*
X0180860Y0033238D01*
X0181029Y0033249D01*
X0181198Y0033255D01*
X0181367Y0033257D01*
X0181536Y0033255D01*
X0181705Y0033249D01*
X0181874Y0033238D01*
X0182042Y0033224D01*
X0182210Y0033205D01*
X0182378Y0033182D01*
X0182545Y0033156D01*
X0182711Y0033125D01*
X0182877Y0033090D01*
X0183041Y0033051D01*
X0183205Y0033007D01*
X0183367Y0032960D01*
X0183528Y0032909D01*
X0183688Y0032854D01*
X0183847Y0032795D01*
X0184004Y0032733D01*
X0184159Y0032666D01*
X0184313Y0032595D01*
X0184465Y0032521D01*
X0184615Y0032443D01*
X0184763Y0032362D01*
X0184909Y0032277D01*
X0185053Y0032188D01*
X0185195Y0032096D01*
X0185334Y0032000D01*
X0185471Y0031901D01*
X0185606Y0031799D01*
X0185738Y0031693D01*
X0185867Y0031584D01*
X0185994Y0031472D01*
X0186118Y0031357D01*
X0186239Y0031239D01*
X0186357Y0031118D01*
X0186472Y0030994D01*
X0186584Y0030867D01*
X0186693Y0030738D01*
X0186799Y0030606D01*
X0186901Y0030471D01*
X0187000Y0030334D01*
X0187096Y0030195D01*
X0187188Y0030053D01*
X0187277Y0029909D01*
X0187362Y0029763D01*
X0187443Y0029615D01*
X0187521Y0029465D01*
X0187595Y0029313D01*
X0187666Y0029159D01*
X0187733Y0029004D01*
X0187795Y0028847D01*
X0187854Y0028688D01*
X0187909Y0028528D01*
X0187960Y0028367D01*
X0188007Y0028205D01*
X0188051Y0028041D01*
X0188090Y0027877D01*
X0188125Y0027711D01*
X0188156Y0027545D01*
X0188182Y0027378D01*
X0188205Y0027210D01*
X0188224Y0027042D01*
X0188238Y0026874D01*
X0188249Y0026705D01*
X0188255Y0026536D01*
X0188257Y0026367D01*
X0188255Y0026198D01*
X0188249Y0026029D01*
X0188238Y0025860D01*
X0188224Y0025692D01*
X0188205Y0025524D01*
X0188182Y0025356D01*
X0188156Y0025189D01*
X0188125Y0025023D01*
X0188090Y0024857D01*
X0188051Y0024693D01*
X0188007Y0024529D01*
X0187960Y0024367D01*
X0187909Y0024206D01*
X0187854Y0024046D01*
X0187795Y0023887D01*
X0187733Y0023730D01*
X0187666Y0023575D01*
X0187595Y0023421D01*
X0187521Y0023269D01*
X0187443Y0023119D01*
X0187362Y0022971D01*
X0187277Y0022825D01*
X0187188Y0022681D01*
X0187096Y0022539D01*
X0187000Y0022400D01*
X0186901Y0022263D01*
X0186799Y0022128D01*
X0186693Y0021996D01*
X0186584Y0021867D01*
X0186472Y0021740D01*
X0186357Y0021616D01*
X0186239Y0021495D01*
X0186118Y0021377D01*
X0185994Y0021262D01*
X0185867Y0021150D01*
X0185738Y0021041D01*
X0185606Y0020935D01*
X0185471Y0020833D01*
X0185334Y0020734D01*
X0185195Y0020638D01*
X0185053Y0020546D01*
X0184909Y0020457D01*
X0184763Y0020372D01*
X0184615Y0020291D01*
X0184465Y0020213D01*
X0184313Y0020139D01*
X0184159Y0020068D01*
X0184004Y0020001D01*
X0183847Y0019939D01*
X0183688Y0019880D01*
X0183528Y0019825D01*
X0183367Y0019774D01*
X0183205Y0019727D01*
X0183041Y0019683D01*
X0182877Y0019644D01*
X0182711Y0019609D01*
X0182545Y0019578D01*
X0182378Y0019552D01*
X0182210Y0019529D01*
X0182042Y0019510D01*
X0181874Y0019496D01*
X0181705Y0019485D01*
X0181536Y0019479D01*
X0181367Y0019477D01*
X0181198Y0019479D01*
X0181029Y0019485D01*
X0180860Y0019496D01*
X0180692Y0019510D01*
X0180524Y0019529D01*
X0180356Y0019552D01*
X0180189Y0019578D01*
X0180023Y0019609D01*
X0179857Y0019644D01*
X0179693Y0019683D01*
X0179529Y0019727D01*
X0179367Y0019774D01*
X0179206Y0019825D01*
X0179046Y0019880D01*
X0178887Y0019939D01*
X0178730Y0020001D01*
X0178575Y0020068D01*
X0178421Y0020139D01*
X0178269Y0020213D01*
X0178119Y0020291D01*
X0177971Y0020372D01*
X0177825Y0020457D01*
X0177681Y0020546D01*
X0177539Y0020638D01*
X0177400Y0020734D01*
X0177263Y0020833D01*
X0177128Y0020935D01*
X0176996Y0021041D01*
X0176867Y0021150D01*
X0176740Y0021262D01*
X0176616Y0021377D01*
X0176495Y0021495D01*
X0176377Y0021616D01*
X0176262Y0021740D01*
X0176150Y0021867D01*
X0176041Y0021996D01*
X0175935Y0022128D01*
X0175833Y0022263D01*
X0175734Y0022400D01*
X0175638Y0022539D01*
X0175546Y0022681D01*
X0175457Y0022825D01*
X0175372Y0022971D01*
X0175291Y0023119D01*
X0175213Y0023269D01*
X0175139Y0023421D01*
X0175068Y0023575D01*
X0175001Y0023730D01*
X0174939Y0023887D01*
X0174880Y0024046D01*
X0174825Y0024206D01*
X0174774Y0024367D01*
X0174727Y0024529D01*
X0174683Y0024693D01*
X0174644Y0024857D01*
X0174609Y0025023D01*
X0174578Y0025189D01*
X0174552Y0025356D01*
X0174529Y0025524D01*
X0174510Y0025692D01*
X0174496Y0025860D01*
X0174485Y0026029D01*
X0174479Y0026198D01*
X0174477Y0026367D01*
X0193572Y0030304D02*
X0193572Y0022430D01*
X0219162Y0022430D02*
X0219162Y0030304D01*
X0224477Y0026367D02*
X0224479Y0026536D01*
X0224485Y0026705D01*
X0224496Y0026874D01*
X0224510Y0027042D01*
X0224529Y0027210D01*
X0224552Y0027378D01*
X0224578Y0027545D01*
X0224609Y0027711D01*
X0224644Y0027877D01*
X0224683Y0028041D01*
X0224727Y0028205D01*
X0224774Y0028367D01*
X0224825Y0028528D01*
X0224880Y0028688D01*
X0224939Y0028847D01*
X0225001Y0029004D01*
X0225068Y0029159D01*
X0225139Y0029313D01*
X0225213Y0029465D01*
X0225291Y0029615D01*
X0225372Y0029763D01*
X0225457Y0029909D01*
X0225546Y0030053D01*
X0225638Y0030195D01*
X0225734Y0030334D01*
X0225833Y0030471D01*
X0225935Y0030606D01*
X0226041Y0030738D01*
X0226150Y0030867D01*
X0226262Y0030994D01*
X0226377Y0031118D01*
X0226495Y0031239D01*
X0226616Y0031357D01*
X0226740Y0031472D01*
X0226867Y0031584D01*
X0226996Y0031693D01*
X0227128Y0031799D01*
X0227263Y0031901D01*
X0227400Y0032000D01*
X0227539Y0032096D01*
X0227681Y0032188D01*
X0227825Y0032277D01*
X0227971Y0032362D01*
X0228119Y0032443D01*
X0228269Y0032521D01*
X0228421Y0032595D01*
X0228575Y0032666D01*
X0228730Y0032733D01*
X0228887Y0032795D01*
X0229046Y0032854D01*
X0229206Y0032909D01*
X0229367Y0032960D01*
X0229529Y0033007D01*
X0229693Y0033051D01*
X0229857Y0033090D01*
X0230023Y0033125D01*
X0230189Y0033156D01*
X0230356Y0033182D01*
X0230524Y0033205D01*
X0230692Y0033224D01*
X0230860Y0033238D01*
X0231029Y0033249D01*
X0231198Y0033255D01*
X0231367Y0033257D01*
X0231536Y0033255D01*
X0231705Y0033249D01*
X0231874Y0033238D01*
X0232042Y0033224D01*
X0232210Y0033205D01*
X0232378Y0033182D01*
X0232545Y0033156D01*
X0232711Y0033125D01*
X0232877Y0033090D01*
X0233041Y0033051D01*
X0233205Y0033007D01*
X0233367Y0032960D01*
X0233528Y0032909D01*
X0233688Y0032854D01*
X0233847Y0032795D01*
X0234004Y0032733D01*
X0234159Y0032666D01*
X0234313Y0032595D01*
X0234465Y0032521D01*
X0234615Y0032443D01*
X0234763Y0032362D01*
X0234909Y0032277D01*
X0235053Y0032188D01*
X0235195Y0032096D01*
X0235334Y0032000D01*
X0235471Y0031901D01*
X0235606Y0031799D01*
X0235738Y0031693D01*
X0235867Y0031584D01*
X0235994Y0031472D01*
X0236118Y0031357D01*
X0236239Y0031239D01*
X0236357Y0031118D01*
X0236472Y0030994D01*
X0236584Y0030867D01*
X0236693Y0030738D01*
X0236799Y0030606D01*
X0236901Y0030471D01*
X0237000Y0030334D01*
X0237096Y0030195D01*
X0237188Y0030053D01*
X0237277Y0029909D01*
X0237362Y0029763D01*
X0237443Y0029615D01*
X0237521Y0029465D01*
X0237595Y0029313D01*
X0237666Y0029159D01*
X0237733Y0029004D01*
X0237795Y0028847D01*
X0237854Y0028688D01*
X0237909Y0028528D01*
X0237960Y0028367D01*
X0238007Y0028205D01*
X0238051Y0028041D01*
X0238090Y0027877D01*
X0238125Y0027711D01*
X0238156Y0027545D01*
X0238182Y0027378D01*
X0238205Y0027210D01*
X0238224Y0027042D01*
X0238238Y0026874D01*
X0238249Y0026705D01*
X0238255Y0026536D01*
X0238257Y0026367D01*
X0238255Y0026198D01*
X0238249Y0026029D01*
X0238238Y0025860D01*
X0238224Y0025692D01*
X0238205Y0025524D01*
X0238182Y0025356D01*
X0238156Y0025189D01*
X0238125Y0025023D01*
X0238090Y0024857D01*
X0238051Y0024693D01*
X0238007Y0024529D01*
X0237960Y0024367D01*
X0237909Y0024206D01*
X0237854Y0024046D01*
X0237795Y0023887D01*
X0237733Y0023730D01*
X0237666Y0023575D01*
X0237595Y0023421D01*
X0237521Y0023269D01*
X0237443Y0023119D01*
X0237362Y0022971D01*
X0237277Y0022825D01*
X0237188Y0022681D01*
X0237096Y0022539D01*
X0237000Y0022400D01*
X0236901Y0022263D01*
X0236799Y0022128D01*
X0236693Y0021996D01*
X0236584Y0021867D01*
X0236472Y0021740D01*
X0236357Y0021616D01*
X0236239Y0021495D01*
X0236118Y0021377D01*
X0235994Y0021262D01*
X0235867Y0021150D01*
X0235738Y0021041D01*
X0235606Y0020935D01*
X0235471Y0020833D01*
X0235334Y0020734D01*
X0235195Y0020638D01*
X0235053Y0020546D01*
X0234909Y0020457D01*
X0234763Y0020372D01*
X0234615Y0020291D01*
X0234465Y0020213D01*
X0234313Y0020139D01*
X0234159Y0020068D01*
X0234004Y0020001D01*
X0233847Y0019939D01*
X0233688Y0019880D01*
X0233528Y0019825D01*
X0233367Y0019774D01*
X0233205Y0019727D01*
X0233041Y0019683D01*
X0232877Y0019644D01*
X0232711Y0019609D01*
X0232545Y0019578D01*
X0232378Y0019552D01*
X0232210Y0019529D01*
X0232042Y0019510D01*
X0231874Y0019496D01*
X0231705Y0019485D01*
X0231536Y0019479D01*
X0231367Y0019477D01*
X0231198Y0019479D01*
X0231029Y0019485D01*
X0230860Y0019496D01*
X0230692Y0019510D01*
X0230524Y0019529D01*
X0230356Y0019552D01*
X0230189Y0019578D01*
X0230023Y0019609D01*
X0229857Y0019644D01*
X0229693Y0019683D01*
X0229529Y0019727D01*
X0229367Y0019774D01*
X0229206Y0019825D01*
X0229046Y0019880D01*
X0228887Y0019939D01*
X0228730Y0020001D01*
X0228575Y0020068D01*
X0228421Y0020139D01*
X0228269Y0020213D01*
X0228119Y0020291D01*
X0227971Y0020372D01*
X0227825Y0020457D01*
X0227681Y0020546D01*
X0227539Y0020638D01*
X0227400Y0020734D01*
X0227263Y0020833D01*
X0227128Y0020935D01*
X0226996Y0021041D01*
X0226867Y0021150D01*
X0226740Y0021262D01*
X0226616Y0021377D01*
X0226495Y0021495D01*
X0226377Y0021616D01*
X0226262Y0021740D01*
X0226150Y0021867D01*
X0226041Y0021996D01*
X0225935Y0022128D01*
X0225833Y0022263D01*
X0225734Y0022400D01*
X0225638Y0022539D01*
X0225546Y0022681D01*
X0225457Y0022825D01*
X0225372Y0022971D01*
X0225291Y0023119D01*
X0225213Y0023269D01*
X0225139Y0023421D01*
X0225068Y0023575D01*
X0225001Y0023730D01*
X0224939Y0023887D01*
X0224880Y0024046D01*
X0224825Y0024206D01*
X0224774Y0024367D01*
X0224727Y0024529D01*
X0224683Y0024693D01*
X0224644Y0024857D01*
X0224609Y0025023D01*
X0224578Y0025189D01*
X0224552Y0025356D01*
X0224529Y0025524D01*
X0224510Y0025692D01*
X0224496Y0025860D01*
X0224485Y0026029D01*
X0224479Y0026198D01*
X0224477Y0026367D01*
X0243572Y0030304D02*
X0243572Y0022430D01*
X0264162Y0022430D02*
X0264162Y0030304D01*
X0269477Y0026367D02*
X0269479Y0026536D01*
X0269485Y0026705D01*
X0269496Y0026874D01*
X0269510Y0027042D01*
X0269529Y0027210D01*
X0269552Y0027378D01*
X0269578Y0027545D01*
X0269609Y0027711D01*
X0269644Y0027877D01*
X0269683Y0028041D01*
X0269727Y0028205D01*
X0269774Y0028367D01*
X0269825Y0028528D01*
X0269880Y0028688D01*
X0269939Y0028847D01*
X0270001Y0029004D01*
X0270068Y0029159D01*
X0270139Y0029313D01*
X0270213Y0029465D01*
X0270291Y0029615D01*
X0270372Y0029763D01*
X0270457Y0029909D01*
X0270546Y0030053D01*
X0270638Y0030195D01*
X0270734Y0030334D01*
X0270833Y0030471D01*
X0270935Y0030606D01*
X0271041Y0030738D01*
X0271150Y0030867D01*
X0271262Y0030994D01*
X0271377Y0031118D01*
X0271495Y0031239D01*
X0271616Y0031357D01*
X0271740Y0031472D01*
X0271867Y0031584D01*
X0271996Y0031693D01*
X0272128Y0031799D01*
X0272263Y0031901D01*
X0272400Y0032000D01*
X0272539Y0032096D01*
X0272681Y0032188D01*
X0272825Y0032277D01*
X0272971Y0032362D01*
X0273119Y0032443D01*
X0273269Y0032521D01*
X0273421Y0032595D01*
X0273575Y0032666D01*
X0273730Y0032733D01*
X0273887Y0032795D01*
X0274046Y0032854D01*
X0274206Y0032909D01*
X0274367Y0032960D01*
X0274529Y0033007D01*
X0274693Y0033051D01*
X0274857Y0033090D01*
X0275023Y0033125D01*
X0275189Y0033156D01*
X0275356Y0033182D01*
X0275524Y0033205D01*
X0275692Y0033224D01*
X0275860Y0033238D01*
X0276029Y0033249D01*
X0276198Y0033255D01*
X0276367Y0033257D01*
X0276536Y0033255D01*
X0276705Y0033249D01*
X0276874Y0033238D01*
X0277042Y0033224D01*
X0277210Y0033205D01*
X0277378Y0033182D01*
X0277545Y0033156D01*
X0277711Y0033125D01*
X0277877Y0033090D01*
X0278041Y0033051D01*
X0278205Y0033007D01*
X0278367Y0032960D01*
X0278528Y0032909D01*
X0278688Y0032854D01*
X0278847Y0032795D01*
X0279004Y0032733D01*
X0279159Y0032666D01*
X0279313Y0032595D01*
X0279465Y0032521D01*
X0279615Y0032443D01*
X0279763Y0032362D01*
X0279909Y0032277D01*
X0280053Y0032188D01*
X0280195Y0032096D01*
X0280334Y0032000D01*
X0280471Y0031901D01*
X0280606Y0031799D01*
X0280738Y0031693D01*
X0280867Y0031584D01*
X0280994Y0031472D01*
X0281118Y0031357D01*
X0281239Y0031239D01*
X0281357Y0031118D01*
X0281472Y0030994D01*
X0281584Y0030867D01*
X0281693Y0030738D01*
X0281799Y0030606D01*
X0281901Y0030471D01*
X0282000Y0030334D01*
X0282096Y0030195D01*
X0282188Y0030053D01*
X0282277Y0029909D01*
X0282362Y0029763D01*
X0282443Y0029615D01*
X0282521Y0029465D01*
X0282595Y0029313D01*
X0282666Y0029159D01*
X0282733Y0029004D01*
X0282795Y0028847D01*
X0282854Y0028688D01*
X0282909Y0028528D01*
X0282960Y0028367D01*
X0283007Y0028205D01*
X0283051Y0028041D01*
X0283090Y0027877D01*
X0283125Y0027711D01*
X0283156Y0027545D01*
X0283182Y0027378D01*
X0283205Y0027210D01*
X0283224Y0027042D01*
X0283238Y0026874D01*
X0283249Y0026705D01*
X0283255Y0026536D01*
X0283257Y0026367D01*
X0283255Y0026198D01*
X0283249Y0026029D01*
X0283238Y0025860D01*
X0283224Y0025692D01*
X0283205Y0025524D01*
X0283182Y0025356D01*
X0283156Y0025189D01*
X0283125Y0025023D01*
X0283090Y0024857D01*
X0283051Y0024693D01*
X0283007Y0024529D01*
X0282960Y0024367D01*
X0282909Y0024206D01*
X0282854Y0024046D01*
X0282795Y0023887D01*
X0282733Y0023730D01*
X0282666Y0023575D01*
X0282595Y0023421D01*
X0282521Y0023269D01*
X0282443Y0023119D01*
X0282362Y0022971D01*
X0282277Y0022825D01*
X0282188Y0022681D01*
X0282096Y0022539D01*
X0282000Y0022400D01*
X0281901Y0022263D01*
X0281799Y0022128D01*
X0281693Y0021996D01*
X0281584Y0021867D01*
X0281472Y0021740D01*
X0281357Y0021616D01*
X0281239Y0021495D01*
X0281118Y0021377D01*
X0280994Y0021262D01*
X0280867Y0021150D01*
X0280738Y0021041D01*
X0280606Y0020935D01*
X0280471Y0020833D01*
X0280334Y0020734D01*
X0280195Y0020638D01*
X0280053Y0020546D01*
X0279909Y0020457D01*
X0279763Y0020372D01*
X0279615Y0020291D01*
X0279465Y0020213D01*
X0279313Y0020139D01*
X0279159Y0020068D01*
X0279004Y0020001D01*
X0278847Y0019939D01*
X0278688Y0019880D01*
X0278528Y0019825D01*
X0278367Y0019774D01*
X0278205Y0019727D01*
X0278041Y0019683D01*
X0277877Y0019644D01*
X0277711Y0019609D01*
X0277545Y0019578D01*
X0277378Y0019552D01*
X0277210Y0019529D01*
X0277042Y0019510D01*
X0276874Y0019496D01*
X0276705Y0019485D01*
X0276536Y0019479D01*
X0276367Y0019477D01*
X0276198Y0019479D01*
X0276029Y0019485D01*
X0275860Y0019496D01*
X0275692Y0019510D01*
X0275524Y0019529D01*
X0275356Y0019552D01*
X0275189Y0019578D01*
X0275023Y0019609D01*
X0274857Y0019644D01*
X0274693Y0019683D01*
X0274529Y0019727D01*
X0274367Y0019774D01*
X0274206Y0019825D01*
X0274046Y0019880D01*
X0273887Y0019939D01*
X0273730Y0020001D01*
X0273575Y0020068D01*
X0273421Y0020139D01*
X0273269Y0020213D01*
X0273119Y0020291D01*
X0272971Y0020372D01*
X0272825Y0020457D01*
X0272681Y0020546D01*
X0272539Y0020638D01*
X0272400Y0020734D01*
X0272263Y0020833D01*
X0272128Y0020935D01*
X0271996Y0021041D01*
X0271867Y0021150D01*
X0271740Y0021262D01*
X0271616Y0021377D01*
X0271495Y0021495D01*
X0271377Y0021616D01*
X0271262Y0021740D01*
X0271150Y0021867D01*
X0271041Y0021996D01*
X0270935Y0022128D01*
X0270833Y0022263D01*
X0270734Y0022400D01*
X0270638Y0022539D01*
X0270546Y0022681D01*
X0270457Y0022825D01*
X0270372Y0022971D01*
X0270291Y0023119D01*
X0270213Y0023269D01*
X0270139Y0023421D01*
X0270068Y0023575D01*
X0270001Y0023730D01*
X0269939Y0023887D01*
X0269880Y0024046D01*
X0269825Y0024206D01*
X0269774Y0024367D01*
X0269727Y0024529D01*
X0269683Y0024693D01*
X0269644Y0024857D01*
X0269609Y0025023D01*
X0269578Y0025189D01*
X0269552Y0025356D01*
X0269529Y0025524D01*
X0269510Y0025692D01*
X0269496Y0025860D01*
X0269485Y0026029D01*
X0269479Y0026198D01*
X0269477Y0026367D01*
X0288572Y0030304D02*
X0288572Y0022430D01*
X0287194Y0014162D02*
X0265540Y0014162D01*
X0242194Y0014162D02*
X0220540Y0014162D01*
X0192194Y0014162D02*
X0170540Y0014162D01*
X0142194Y0014162D02*
X0120540Y0014162D01*
X0097194Y0014162D02*
X0075540Y0014162D01*
X0075540Y0038572D02*
X0097194Y0038572D01*
X0120540Y0038572D02*
X0142194Y0038572D01*
X0170540Y0038572D02*
X0192194Y0038572D01*
X0220540Y0038572D02*
X0242194Y0038572D01*
X0265540Y0038572D02*
X0287194Y0038572D01*
X0047194Y0038572D02*
X0025540Y0038572D01*
M02*
